<svg id="Layer_1" data-name="Layer 1" xmlns="http://www.w3.org/2000/svg" viewBox="0 0 1600 1200"><defs><style>.cls-1{opacity:0.56;}.cls-2{fill:#a2aead;}.cls-3{fill:#808f96;}.cls-4{fill:#63727a;}.cls-5{fill:#808890;}.cls-6{fill:#bcc6cb;}.cls-7{fill:#aeb2b0;}.cls-8{fill:#7f8b92;}.cls-9{fill:#5c676c;}.cls-10{fill:#d8ddde;}.cls-11{fill:#7e7a6a;}.cls-12{fill:#6b685c;}.cls-13{fill:#757972;}.cls-14{fill:#192d32;}.cls-15{fill:#162b2e;}.cls-16{fill:#172f35;}.cls-17{fill:#233a41;}.cls-18{fill:#243c41;}.cls-19{fill:#263b3f;}.cls-20{fill:#21383e;}.cls-21{fill:#152c31;}.cls-22{fill:#1b3036;}.cls-23{fill:#253e42;}.cls-24{fill:#647475;}.cls-25{fill:#2e3837;}.cls-26{fill:#2c424b;}.cls-27{fill:#8e9a98;}.cls-28{fill:#809499;}.cls-29{fill:#809598;}.cls-30{fill:#83989d;}.cls-31{fill:#818381;}.cls-32{fill:#7f9398;}.cls-33{fill:#7d9096;}.cls-34{fill:#809194;}.cls-35{fill:#74878e;}.cls-36{fill:#7b9094;}.cls-37{fill:#7d8f94;}.cls-38{fill:#899596;}.cls-39{fill:#788989;}.cls-40{fill:#79786a;}.cls-41{fill:#323c3d;}.cls-42{fill:#b3bab6;}.cls-43{fill:#313c43;}.cls-44{fill:#85959c;}.cls-45{fill:#2b383d;}.cls-46{fill:#2b3941;}.cls-47{fill:#98a6ad;}.cls-48{fill:#a9b0aa;}.cls-49{fill:#5f6865;}.cls-50{fill:#3f494b;}.cls-51{fill:#3a4643;}.cls-52{fill:#595c59;}.cls-53{fill:#6c6b5e;}.cls-54{fill:#6b685a;}.cls-55{fill:#605e54;}.cls-56{fill:#7e8079;}.cls-57{fill:#808076;}.cls-58{fill:#818079;}.cls-59{fill:#818980;}.cls-60{fill:#55574f;}.cls-61{fill:#5f6358;}.cls-62{fill:#686a62;}.cls-63{fill:#53544e;}.cls-64{fill:#bfc4c4;}.cls-65{fill:#2f4243;}.cls-66{fill:#93a3a3;}.cls-67{fill:#97a4a6;}.cls-68{fill:#33474a;}.cls-69{fill:#2f4141;}.cls-70{fill:#32464a;}.cls-71{fill:#96abb1;}.cls-72{fill:#66777f;}.cls-73{fill:#2f4246;}.cls-74{fill:#91a2a5;}.cls-75{fill:#182e31;}.cls-76{fill:#1e3134;}.cls-77{fill:#374b51;}.cls-78{fill:#90a4aa;}.cls-79{fill:#22363a;}.cls-80{fill:#21383d;}.cls-81{fill:#30474c;}.cls-82{fill:#1f353a;}.cls-83{fill:#272928;}.cls-84{fill:#303535;}.cls-85{fill:#495554;}.cls-86{fill:#566566;}.cls-87{fill:#415253;}.cls-88{fill:#2e2f2c;}.cls-89{fill:#a5afa8;}.cls-90{fill:#a7b3ac;}.cls-91{fill:#869090;}.cls-92{fill:#858c89;}.cls-93{fill:#9daba7;}.cls-94{fill:#74828a;}.cls-95{fill:#2b373c;}.cls-96{fill:#6e7d83;}.cls-97{fill:#33484d;}.cls-98{fill:#a6b4bd;}.cls-99{fill:#6a7b7f;}.cls-100{fill:#6f7b7e;}.cls-101{fill:#30464a;}.cls-102{fill:#a1afb4;}.cls-103{fill:#56656d;}.cls-104{fill:#69767e;}.cls-105{fill:#455158;}.cls-106{fill:#45545d;}.cls-107{fill:#939b97;}.cls-108{fill:#aeb3ad;}.cls-109{fill:#a6abaa;}.cls-110{fill:#686b5e;}.cls-111{fill:#2a3030;}.cls-112{fill:#333e3e;}.cls-113{fill:#737e83;}.cls-114{fill:#7c888b;}.cls-115{fill:#778186;}.cls-116{fill:#969893;}.cls-117{fill:#5c5c52;}.cls-118{fill:#8d8e85;}.cls-119{fill:#63675d;}.cls-120{fill:#56584e;}.cls-121{fill:#646156;}.cls-122{fill:#3b3c33;}.cls-123{fill:#75776f;}.cls-124{fill:#4d4e41;}.cls-125{fill:#46463b;}.cls-126{fill:#8d8d84;}.cls-127{fill:#727265;}.cls-128{fill:#313535;}.cls-129{fill:#a3a8a3;}.cls-130{fill:#91918a;}.cls-131{fill:#5b5a52;}.cls-132{fill:#66675e;}.cls-133{fill:#656860;}.cls-134{fill:#9fa399;}.cls-135{fill:#999995;}.cls-136{fill:#a0a29d;}.cls-137{fill:#555551;}.cls-138{fill:#5f5c51;}.cls-139{fill:#615f54;}.cls-140{fill:#4a493d;}.cls-141{fill:#637176;}.cls-142{fill:#5c6a6e;}.cls-143{fill:#7f817c;}.cls-144{fill:#252c2b;}.cls-145{fill:#6e7a7d;}.cls-146{fill:#232d2d;}.cls-147{fill:#1c2f33;}.cls-148{fill:#a0aeb4;}.cls-149{fill:#616660;}.cls-150{fill:#656663;}.cls-151{fill:#4a4a45;}.cls-152{fill:#9ca39e;}.cls-153{fill:#242928;}.cls-154{fill:#141918;}.cls-155{fill:#637270;}.cls-156{fill:#323734;}.cls-157{fill:#4c5554;}.cls-158{fill:#293137;}.cls-159{fill:#8c969a;}.cls-160{fill:#7e858b;}.cls-161{fill:#283033;}.cls-162{fill:#818883;}.cls-163{fill:#242f2f;}.cls-164{fill:#979fa2;}.cls-165{fill:#a2adb0;}.cls-166{fill:#273232;}.cls-167{fill:#9b9d96;}.cls-168{fill:#36434a;}.cls-169{fill:#a6afa4;}.cls-170{fill:#1d2323;}.cls-171{fill:#888b81;}.cls-172{fill:#2d373c;}.cls-173{fill:#9fa29a;}.cls-174{fill:#6e7170;}.cls-175{fill:#8b9083;}.cls-176{fill:#979990;}.cls-177{fill:#797e7a;}.cls-178{fill:#8c9088;}.cls-179{fill:#abaea6;}.cls-180{fill:#616058;}.cls-181{fill:#747368;}.cls-182{fill:#aaaea6;}.cls-183{fill:#545447;}.cls-184{fill:#4d4c43;}.cls-185{fill:#6d6f69;}.cls-186{fill:#181c1d;}.cls-187{fill:#686961;}.cls-188{fill:#a0a49c;}.cls-189{fill:#3c3e37;}.cls-190{fill:#494a41;}.cls-191{fill:#23292d;}.cls-192{fill:#353833;}.cls-193{fill:#131617;}.cls-194{fill:#131616;}.cls-195{fill:#596464;}.cls-196{fill:#545854;}.cls-197{fill:#525751;}.cls-198{fill:#5f6659;}.cls-199{fill:#21261f;}.cls-200{fill:#565a52;}.cls-201{fill:#43433a;}</style></defs><title>Background-01</title><g class="cls-1"><path class="cls-2" d="M1600.89,408.2v68.7h-.5c-1.8.1-3.7.1-5.5.1a661.37,661.37,0,0,1-66.1-21.4c-33.2-12.7-67.4-22.5-100.8-34.7-5.3-1.9-11.7-5.8-13.4,4.2-1.2,3.4-.5,8-1.8,11.4a6.79,6.79,0,0,1-2.5,3.1,9.89,9.89,0,0,1-4.1,1.3h-.4a2.77,2.77,0,0,0-.9.1c-5.8-17.7-9.1-35.2,3.2-50-11.2,8.1-8.7,21.5-8.9,34.3-.6,45.2,1,90.4-.3,135.5-1.3,44.7-1.1,89.3-2.1,134-.9,38.7-.6,77.5-.5,116.2.1,26.9-1.4,53.8-.5,80.8.9,27.9-2.3,55.9-4.1,83.9-.2,1-.4,2-.6,3.1h-19a74.53,74.53,0,0,0-1.2-17.6c.2-18.1-1.3-36.1-.9-54.2,0-.4.1-.8.1-1.1,0-.5.1-.9.1-1.3h0c.1-.9.1-1.7.2-2.6v-.6c2.9-22.6-.2-45.2,1.2-67.8a28.25,28.25,0,0,0,.2-2.9c.1-1,.2-2.1.2-3.1v-.4c0-.5.1-1.1.1-1.6v-1.2h0c.2-15.7-.2-31.3-3.3-46.8a13.55,13.55,0,0,1-.2-2h0v-.2h0a7.61,7.61,0,0,1,.3-2.1,6.37,6.37,0,0,0,.2-.7h0c8.4-20.2,2.7-40.5.5-60.8v-.9a4.87,4.87,0,0,1,.1-1.2c.1-.6.2-1.2.3-1.7v-.1a4.87,4.87,0,0,1,.4-1.1,36.28,36.28,0,0,0,3.6-20.1c-1.7-18-.6-36,1-53.9,0-.6.1-1.3.1-1.9.1-1,.1-2.1.2-3.1a3.75,3.75,0,0,1,.1-1c.1-.7.1-1.4.2-2.1v-.6c.1-1.6.2-3.2.4-4.8.4-11.5,3-23.1.1-34.6-1-8.2-.4-16.5.5-24.7v-.7c0-.6.1-1.2.1-1.8.1-.9.1-1.9.2-2.8.2-1.9.3-3.7.4-5.6h0c.3-5.4.3-10.9-1.2-16.3a97.78,97.78,0,0,1,.3-22.3v-.1a9.7,9.7,0,0,1,.1-1.7c0-1.2.1-2.4.2-3.5.2-2.7.4-5.5.7-8.2h0c.9-9.4,1.8-18.7-.2-28.1a85.65,85.65,0,0,1,.1-19.6v-.1c0-1,.1-2,.1-3.1v-.5c.2-3.1.5-6.3.8-9.4h0c.7-7.4,1.1-14.9-.6-22.3-.4-12.7-2.3-25.2-2.1-37.9.1-1.1.2-2.1.3-3.2l.3-3.3v-.2c0-.4.1-.9.1-1.3s.1-1,.1-1.5c.3-4.7.5-9.4.9-14a7.57,7.57,0,0,1,.1-1.5h0c.4-7.9,1.3-13.2,1.5-17.1.6-10.1-2.5-10.9-25.5-22-29.6-14.2-60.1-26.6-90.2-40-64-28.7-128.2-56.8-192-85.8-4.5-2-11-2.8-10.3-10.3l29.2,1.9c7.3,3.4,15.4,4.1,22.8,7.5,70.4,32.4,141.5,63.3,212,95.7,13.3,11.4,30.2,15.9,45.5,23.4,18.7,9.3,34.2,24.2,54,32.1,41.8,16.8,83.3,34.4,125.1,51.4C1566.69,394.5,1583.49,402.8,1600.89,408.2Z"/><path class="cls-3" d="M845.79,275.4c-44.7-20.9-89.9-41-134.3-62.4-47.9-23.3-97.6-42.9-143.7-69.8l-22.7-1.5c-3.5,4.3-6.8,3.7-9.7-.6-8.7-.6-17.3-1.1-26-1.7-5.6,5.9-5.8,12.9-4,20.3,2.1,5.5,6.8,8.1,11.9,9.4,7.6,1.9,11.2,7.1,14,13.6a5.48,5.48,0,0,0,4.2,1.5c5.6-8.8,13.2-10,22.3-6.2,6.6,2.8,13.2,4.6,20.5,3.6,5.1-.7,9.9.6,13.4,4.4,14.1,15,34.2,20.4,50.5,31.9,4.5,3.2,8.9,3.6,13.5.3,7.9-5.7,14.3-.7,20.9,3,3.7,2.1,5.5,4.1,2.1,8.8-13.3,18.5-11.6,25.7,9.1,36.4,5.1,2.6,6.7,3.4.8,6.5-1.2.6-1.3,2.9-1.1,4.5.9,7.4,30.1,20.1,35.4,14.7,7.6-7.8,9.6-2.7,12,3.5,10.9,28.4,18.7,33.3,47.8,26.6,7.6-1.8,12.1,3.9,18.5,3.3,7.2-2.5,6.4-9.6,8.7-14.9,8.5-6.3,13.8,2.4,20,4.8,18.6,7.5,22.8,5.5,25-14.5.6-5.9,2.1-11.6,1.9-17.6C855.59,277.2,849.69,277.6,845.79,275.4Z"/><path class="cls-4" d="M1381.59,352.4c3.8-31.2,3.9-31.3-24.4-43.9q-143.25-63.75-286.4-127.5c-3.3-1.5-7.6-1.7-9.6-5.5-14-3.2-27.5-11.2-42.7-12.2-11.8,22.7-9.5,47.3,12.6,56.9,7.4,3.2,14.9,6,22.3,9.3,49.2,19.8,97.2,42.3,145.8,63.3a11.56,11.56,0,0,0,4.9,0,28.31,28.31,0,0,0,7.2-3.5c24.9-19.4,48.6-15.2,74.5-.2,22.8,13.2,47.6,23.3,71.9,33.7,10.9,4.6,19.3,9.4,18.2,22.9C1375.89,348.8,1377.29,352.3,1381.59,352.4Z"/><path class="cls-5" d="M1054.69,226.9c-2.7-1.6-5.4-3.3-8.2-4.6-35.2-16.3-30.7-15-27.9-58.9-5.4-.4-13.6,8.5-19,8.1-8.2,2.9-15.1,7.5-22,12.9-28.1,21.7-56.8,42.6-85.6,63.5-9.3,6.8-22.5,11.5-22.9,26.4,10.3,7.1,23.1,7,33.8,11.7-6.1,1.5-10.6,4.5-9.7,12,3,2.2,6,1.5,9.1.3,20.8-8.4,62.9,2.1,77.5,19.3,3.3,1.4,6.1.5,8.6-1.7,7.1-9,17.3-14,26.6-20.2-2.4-21.4.6-42.8-.3-64.1-.5-11.2,3.7-12,12.3-8.5,7.4,3,14.1,8.1,22.6,8.2A6,6,0,0,0,1054.69,226.9Z"/><path class="cls-6" d="M508.09,162.2c.4-7.6,2-4.4,2.4-12-4.3-.3,5.3-32.3,1-32.6-29.9,37.7-74.9,96.3-104.7,134.1-2.6,3.3-4.2,7.3-6.2,11,3.9,7.8,10.6,7.2,17.6,6.1a23.25,23.25,0,0,0,10.4-7.3c26.3-30.9,51.7-62.7,78.3-93.4A6.4,6.4,0,0,0,508.09,162.2Z"/><path class="cls-7" d="M868.69,272.9c19.3-21.3,45-34.4,67-52.3,20.8-16.9,42.5-32.7,63.8-49l-13-.9c-30.9,27-65.8,48.5-98.1,73.6-13.9,10.8-28.4,20.8-42.7,31.1,3.2,2.3,6.4,4.6,9.5,6.8C863,283.6,866.59,279.2,868.69,272.9Z"/><path class="cls-3" d="M535.29,141.1c.6,4.6.5,11.2,6,11.2,5.3-.1,2.6-6.8,3.8-10.5C541.79,141.5,538.49,141.3,535.29,141.1Z"/><path class="cls-8" d="M396.69,265.4c-52-22.6-104-45.3-156.3-67.5-4.4-1.9-11-10.6-15.6.7-2,9.4-7.8,18-6.1,28.2,15.6,14.3,36.9,17.1,54.7,27.1,1,.5,1.9,1,2.9,1.4,40.8,18.7,41.5,20,37.3,64.7-.5,4.9-1.1,9.6-2.9,14.2-1.1,14-.5,27.6,7.9,39.7,10.4-7.1,11.7-20,19.5-29.3,18.1-21.7,35.1-44.5,52.6-66.7C393.59,274.2,397.69,271,396.69,265.4Z"/><path class="cls-9" d="M396.69,265.4c-21.3,23.9-40.7,49.4-59.8,75.1-7.5,10.1-18.7,18.3-16.1,33.1a91.68,91.68,0,0,0-.2,55.1c12.7-.3,18.4-9.6,24-18.7,12.7-20.6,15.7-44.6,23.1-67.1,1.6-4.4,2.1-9.2,4.8-13.2,12.2-15.6,24.5-31.1,37.1-46.4,4.1-5,11.5-8.7,9.5-17.2a41.55,41.55,0,0,1-18.7-3.5A35.83,35.83,0,0,1,396.69,265.4Z"/><path class="cls-10" d="M220.49,227.7c3.3-9.5,4-19.3,4.3-29.2-27.9,44-50.3,90.9-76,136.1S99,425.8,74.09,471.4c-12.5,22.9-25.2,45.6-37.9,68.4.9,3.4,1.8,6.8,2.7,10.1,8.4.3,9.9-7.1,13-12.1,10.8-17.1,18.5-35.9,29.7-52.7q67.8-121.2,135.6-242.3c1.8-3.3,3.8-6.5,4.4-10.3A8,8,0,0,0,220.49,227.7Z"/><path class="cls-11" d="M220.49,227.7a4.28,4.28,0,0,0-.8,2.9c-.6,14.1-10,24.5-16.4,35.7-39.2,68.4-77.2,137.5-115.8,206.3-2.3,4.1-4.1,8.9-8.8,11.2-13.3,22-26.6,44.1-39.8,66.1q-22.5,41.4-45.1,82.9c-11.4,20.9-22.7,41.7-34.2,62.4-5.2,9.3-5.3,15.8,7.2,18.4,10.5,2.2,20.8,5.6,31.2,8.4,19.3,1.5,29.7-13.1,40.9-24.4,10-10,18.2-21.2,33.4-23.6,6.9-1.1,8.5-7,7.3-12.4-3.3-14.3,4.2-22.4,13.7-31.7,12.1-11.7,26.3-22.8,29.4-41.3.7-4.3,3.9-7.9,7.5-10.3,18.7-12.7,23.9-35.3,38.1-51.3,1.3-1.5,1.8-3.9,2.4-5.9,1.2-5.1,2.9-10,7.2-13.5,11.8-18.5,26.8-34.7,39-53,7.6-11.4,17.9-20.8,23.4-34.1,3.7-8.9,15.2-8.8,24-11.2,18.9-5.2,37-12,49.3-28.6,4.7-15.2-3.3-29.9-1.5-45,.7-11.9.2-23.9,3.1-35.6,2.5-20.2-1.8-35.8-25.1-41.2-5.4-1.3-12.5-2.4-16.2-8.5C256.79,241,238.89,233.8,220.49,227.7Z"/><path class="cls-12" d="M167.89,519.3c-14.1,18.2-21,41.5-40.7,55.9-5.9,4.3-8.3,11.1-10.7,18.7-5,16-17.8,27.8-30.9,37.5-9.7,7.2-13,14.9-10.7,25.8,1.6,7.6,5.2,13.3-9,13.1-9.3-.1-19.5,9.4-25.4,18.1-10.8,16-25.1,26.5-42.5,33.7,8.5,2.1,10,7.9,9.5,15.8-.5,6.9.7,13.9,1.1,20.8,4.3,8-6.2,22.9,11.5,24.8a7.2,7.2,0,0,0,4.5-1.3c17.4-19.5,37-37.2,50.9-59.7,3.5-6.7-2.5-14,1.6-22,.1-.9,1.2,1.2,0,1.7-2.9,1.2-1.9,4.9-1.1,6.8,2.8,6.5,7.3,4,11.6,1.3,3.6-3.2,6.4-7.3,10.2-10.4,18.1-14.9,26.9-33.1,19.6-57.4,6,8.2-5,22.3,11.4,25,13.7-5.5,20.8-16.9,27.1-29.2,12.8-18.2,21.9-37.5,17.5-60.6a63.33,63.33,0,0,1,2.4-32.6C176.79,535.4,180.19,524.9,167.89,519.3Z"/><path class="cls-13" d="M23.39,782.3c-14.6-1.9-10.4-15.5-14.8-23.7-.4,17.1-.7,34.2-1.1,51.2,1.5,8.5-4.5,16.2-3,24.7,1.2,6.2.4,12.5,1.6,18.6,2.2,14.3-3.1,30.5,10.5,42.1,7.8,5,12.1-4.9,19.1-4.7,3.4,6.2,2,12.2.3,18.5-5.7,1.7-12.7-6.2-17.3,2.4-2.9,14,5,24.9,10.7,36.3,1.7,3.4,4.9,6.1,9.2,5.5,5.2-.8,6.3-5.3,7.2-9.6,1.3-6.3.9-12.9,3.4-19,2.5-8.9,3.4-18,1.6-27-2-9.9-.4-19,3.5-28a12.15,12.15,0,0,0-2.2-4.4c-6.4-13.5-.4-27.3-1.1-40.9-.1-13.4-.7-26.9-1.7-40.2-1-12.9,2.7-22.5,10.4-32.4,5-6.5,9.1-9.1,16.5-5.7,4.3-8.2,4-15.7-3.4-22.1-16.2,19.7-37,35.6-49.4,58.4,4,2.3,7-1.3,11.8-2.3.2,8,2.9,15.4.9,23.9C21.09,802.4,25.69,790.4,23.39,782.3Z"/><path class="cls-14" d="M1375.39,964.1a10.55,10.55,0,0,0-.6-2.4c-.1-18.2-.2-36.5-.4-54.7-1.4-.8-2.8-1.6-4.2-2.3h-.1c-17.4-9-37-10.8-55.6-15.7l-17.4-4.5c-34-8.7-68.2-16.6-102.3-24.6h0c-19.8-4.7-39.6-9.4-59.3-14.4h0c-9.2-2.3-18.4-4.7-27.6-7.1-1.3-.3-2.6-.7-4-1.1-.5-.1-1.1-.3-1.6-.4-23.1-5.6-46.3-10.5-69.2-16.8-5.8-1.6-11.5-3-17.5-1.1-.4.3-1,.5-1.5.8h0l-.9.6c-1.1.8-1.9,1.8-1.3,3,8.6,16.1,3.5,32.6,1.9,49.1-.7,7.5-1.6,15-.7,22.6.6,5.1,2.3,9.8,8.7,9.6,4.2-.2,5.5-2.5,5.9-5.4.6,5.4,3.3,10,11.1,13.4a3.55,3.55,0,0,1,.9.4,30.05,30.05,0,0,0,3.2,1.1c1.5.4,3.1.7,4.6,1,17,3,35.8,2.1,47.3,17.6h0c.1.1.2.2.2.3a22,22,0,0,1,1.9,3c.3.5.5.9.8,1.4,43.3,11.4,87.5,18.9,131.1,28.7,7.3,1.6,14.6,3.3,21.9,5h.1c12.2,2.8,24.4,5.5,36.7,8.1h87c0-.5.1-1,.1-1.5C1375.09,973,1376.09,968.5,1375.39,964.1Zm-346.5-79.8a28.1,28.1,0,0,0,.1-2.9h0c.1-2.7.1-5.7-.1-9a37.23,37.23,0,0,1,.2,10h0A13.66,13.66,0,0,1,1028.89,884.3Z"/><path class="cls-15" d="M1299.59,979h-276.3a179.65,179.65,0,0,1,6.1-52.5c.2-.2.4-.3.6-.5a3,3,0,0,1,.7-.5,16.25,16.25,0,0,1,5.2-2.4,21.77,21.77,0,0,1,6.2-.6h0a64.77,64.77,0,0,1,10.4,1.8c14.9,3.3,29.6,8,44.5,11.5l4,.9C1167.09,951.1,1233.29,965.4,1299.59,979Z"/><path class="cls-16" d="M1370.59,772.9c.5,0,1.3.1,1.6-.2,8.3-8.1,7.8-52.7-.7-61.5-3.9-4.9-9.4-6.5-15.2-8.4-84.3-27-169.1-52.3-253.1-80.1-11.9-2.9-23.4-7.3-35.1-10.8-6.3-1.8-12.3-3.6-18.6-.6-11,21.3-11.2,43.4-4.9,65.9,11.2,10.8,26.5,11.5,40.2,15.5,88.4,25.8,176.7,52.1,265.3,77.6C1356.79,772.4,1363.39,774.7,1370.59,772.9Z"/><path class="cls-17" d="M1381.29,469.1c0-6.2.1-12.3.1-18.5-5.4-9.3-15.8-11.1-24.5-14.7q-117-48.15-234.4-95.7c-7-2.8-13.7-6.8-21.7-5.6-20,7.1-40,14.1-56.9,27.5-3.8,3-10.9,3.4-8.5,11.1,15.6,12.5,35,16.7,53,23.6q134.1,51.3,267.4,104.7c3,1.2,6.1,2.1,9.2,3.2,11,3.8,16.5.7,15.8-11.6C1380.49,485.1,1383.19,477.1,1381.29,469.1Z"/><path class="cls-18" d="M1381.59,413.9l-.9-39.3c-3-5.4-7.6-8.8-13.3-11.2-51.5-22.2-102.6-45.5-154.2-67.5a42.09,42.09,0,0,0-12.5-2.9c-5.9-2.3-11.6-2.3-17.2.9-18.7,10.9-39,18.3-58.6,27.3-6,2.8-13.7,5.1-13,14.3,3.5,4.6,9.1,5.7,14,7.7q121.65,49.35,242.8,100c8.5,3.5,13.1,4.3,12.5-6.8C1381,428.9,1383.69,421.4,1381.59,413.9Z"/><path class="cls-19" d="M1374.89,903.2c2.8-23.7,1-47.5,1.5-71.2-6.8-9.4-17.9-9.4-27.5-12.1-30.2-8.4-60.6-16-90.7-24.7-30.3-7.8-60.3-16.9-90.7-24.6-5.3-1.3-10.4-2.8-15.9-2.1-7.8,1.9-9.2,6.5-5.6,13.2a24.89,24.89,0,0,0,7.6,8.2c6.7,4.9,11.3,11.4,6.7,19.2-4.9,8.3-13.2,7.8-21.3,3.9-7.9-3.7-15.6-3.1-22.8,2.1,5,9.8,18.1,15.1,16.4,28.7,18.4,10.8,39.9,11,59.7,16.9a4.93,4.93,0,0,0,2.9-1.1c4.8-4.3-1.8-16.6,9.5-15.4,9.2,1,20.1,1.9,25.1,11.8,4.7,9.2,8.5,12,17.6,3.7,7.2-6.6,18.4-3.4,23.9,1.8,8.7,8.1,22.3,11.2,26.3,24.1,22.4,7.3,45.6,11.3,68.1,18C1368.79,904.6,1371.89,905.3,1374.89,903.2Z"/><path class="cls-20" d="M1380.49,533.9c.1-7.3.2-14.6.4-22-12.7-11.7-29.7-14.4-44.9-20.5q-91.5-36.6-183.7-71.8c-35.2-13.5-70.1-27.7-105.8-40-11.2,3-6.6,11.9-6.5,18.6.1,6.2,2.8,11.6,11.1,10.4,6-.9,5.7,5.6,9,7.9,11.8,4.9,6.4,14.4,6.1,22.6a8.31,8.31,0,0,0,3.8,2.3c3.4.5,7.9,0,8.6-2.9,2.5-11.8,8.9-3.1,13.3-2.7,2.8.2,2.7,1.2-.3,10.2a4.45,4.45,0,0,0,.7,3.1c15.7,13.4,36.3,16,54.6,23.5,22.4,9.3,45.5,16.8,68.1,26,47.9,16.9,95.3,35,142.9,52.7C1379.29,559.1,1381.09,557.9,1380.49,533.9Z"/><path class="cls-21" d="M1376.39,825c0-13.2,0-26.5.2-39.7.1-4.8-1-8.3-6.2-9.3-25.7-11.3-53.3-16.9-80.1-24.8-56.9-16.9-114.1-32.9-170.9-49.9-5.1-1.5-10.2-3.6-15.8-3.2-13,10-16.1,28.6-6.3,41.7a148.93,148.93,0,0,1,10.6,15.7c5.5,6.1,13.5,6.9,20.6,8.2,44.8,8.6,88.2,22.4,132.2,34.2,33,8.9,66,17.9,99.1,26.5C1365.19,825.8,1370.79,829.9,1376.39,825Z"/><path class="cls-22" d="M1371.59,708.1c9.2.6,6.7-6.4,6.8-11,.5-21.7.7-43.5,1-65.2-3.2-5.6-8.8-7.7-14.4-9.7-36.7-12.8-73.7-25-110.3-38a32.77,32.77,0,0,0-11.2-1.7c-12.1.9-22.2,7.3-32.9,11.9-8.7,3.7-12.4,11.3-13,20.4-.9,12.8-.5,25.5,2.6,38,10.8,8.9,24.5,10.4,37.2,14.1C1282.19,680,1326,697,1371.59,708.1Z"/><path class="cls-23" d="M1379.89,623.9a2.14,2.14,0,0,1,.3-1.9c-2.6-12.1,2.3-24.1.1-36.2.2-8.4.3-16.8.5-25.1-9.1-9.3-22-11-33.3-15.3-44.6-16.7-89.3-33-133.9-49.3-2.3-.8-4.6-1.5-7.1-.6-5.8,14.6-4.1,19.1,9.9,23.5,4.8,1.5,9.1,3.4,11.8,7.7,3.6,5.8,2.9,11-4.7,11.6-8.8.6-17.3,3.8-26.7-1.2-8.2-4.3-18.6-4.9-28.2-2.1-2.6,9.7,5.6,10.5,11,11.7,9.9,2.2,13.1,7.8,12.4,17,10.8,8.8,24.4,11.5,37,15.1,46.2,12.9,90.7,30.6,136.3,45.1C1370,625.4,1375,629.5,1379.89,623.9Z"/><path class="cls-24" d="M1600.89,475.4v15.3c-16.1,8.9-13.7,24.2-12.8,39.2.5,8.1,2.6,16.6-3.4,23.6a1.21,1.21,0,0,1-.5.5l-.3.3a6.08,6.08,0,0,1-4.9-.8c-.1-.2-.2-.3-.3-.5h0a8,8,0,0,1-.8-1.6c-7.9-15.6-2.5-32.9-5.6-49.9-8.1,2-16.8,3.4-25.4,1.1-3.9,12.4,2.2,25.9-8.5,35.5a4.19,4.19,0,0,1-1.6-.1h0c-.2-.1-.5-.1-.7-.3a3.59,3.59,0,0,1-1-.7,4.44,4.44,0,0,1-.8-1.1v-.1c-3.1-10.4-3.5-21.1-3.6-31.8-.3-14.7-12.9-12.8-21.3-14.6-10.5-2.2-7.6,7.7-8.9,13.2-1.6,6.9.4,15.7-6.4,19.8a11.08,11.08,0,0,1-1.9.9,23.15,23.15,0,0,1-3.4,1,10.88,10.88,0,0,1-6.7-2.3,4.71,4.71,0,0,1-.6-1.5c0-.2-.1-.5,0-.7a7.52,7.52,0,0,1,1.3-3.6c8.5-15.3,6.4-19.2-10.4-22-7.5-1.2-12.5.1-15.6,7.4-1,2.4-2.5,4.7-5,5.3h0a4.93,4.93,0,0,1-2.1,0,5.59,5.59,0,0,1-3.9-2.2c-1.3-1.7-1.6-4-2-6.3-.5-2.6-.2-5.4-1-7.9-3.1-9-11.9-10.7-19.2-12.8-8.3-2.3-5.9,6.7-8.3,10.8-1.1,1.9-1.8,4.4-3.4,5.2h-.1c-1,.4-2.3.2-4.2-1.2l-.1-.1c-4-6.4-1.6-13.4-2.2-20.2-.7-8,1.1-15.7,2.8-23.4h0c.7-3.1,1.4-6.1,1.9-9.2,1-5.8,1.4-11.6.1-17.6h0c1.4-5-3.2-14.1,9.9-9.5,58.3,20.8,117,40.6,175.5,60.8a4.7,4.7,0,0,0,1.2.9A10.63,10.63,0,0,0,1600.89,475.4Z"/><path class="cls-25" d="M1417.79,385.8c-11.9,8.9-14,20.9-12.8,34.6.6,6.9.5,13.8.6,20.7v.3a13.77,13.77,0,0,1,2.5,7.6h0c.3,4.2-.7,8.4-.8,12.6-.2,10.4,0,20.7.3,31.1.4,13.3,1.1,26.6,1.6,40v3.6c.4,39.9.5,79.9-.1,119.8-.2,1.4-.4,2.7-.5,4.1s-.3,2.7-.4,4c-2.5,25.6-.5,51.4-.6,77,0,17.3-2.7,34.8-.9,52.2.1.9.2,1.7.3,2.6.3,2.1.6,4.1,1,6.1,0,42.8-.7,85.7-1,128.5a2.2,2.2,0,0,1-.1.8c-.1,1.1-.2,2.1-.3,3.2-1.2,14.8-1.6,29.7-1.6,44.5h-18.2c-.2-1.2-.3-2.4-.5-3.6.8-4.7,2.2-9.4,2.3-14.1q2.4-148.95,4.5-298c.6-38.8,1.7-77.6.9-116.3-.7-32.2-.5-64.6-.5-96.7,0-22.7-8.4-50.9,17.4-69.5,3.6-2.6,5.5-5.9,9.2-3.4C1425.69,381.2,1420,384.2,1417.79,385.8Z"/><path class="cls-26" d="M1381.59,352.4c3.7-24-13.4-30.2-30.9-37.6q-43.05-18.15-84.7-39.2c-13.9-7.1-25.4-9.8-38.3,1.1-6.9,5.9-18.2,5.5-23.5,14.5,15.2,11.6,33.6,17,50.7,24.3,39.3,16.7,77.8,35.1,117.1,51.7,2.9,1.2,5.5,3.8,8.7.8Q1381.29,360.35,1381.59,352.4Z"/><path class="cls-27" d="M1600.89,473.4v3.9a2.18,2.18,0,0,1-.5-.4h0c-1.2-.8-2.3-1.7-3.5-2.6l-1.2-.9A45.1,45.1,0,0,0,1600.89,473.4Z"/><path class="cls-28" d="M1044.59,381.8c47.8,18.3,95.7,36.4,143.4,54.9q96.45,37.35,192.8,75.2c.7-14.3,5.4-28.5.5-42.8-.3,2.1-.7,4.3-.8,6.4-1.9,30.2-1.8,30.1-31.2,18.5q-156.45-61.5-313-122.7c-7.9-9.9-19.3-11.8-30.8-13.6-16.2,4.8-28.5,16.5-43.5,23.5-3.7,3.1-8.1,5.9-6.5,11.9a9.37,9.37,0,0,0,6.6,2.3c11-3,20.1-9.8,29-16.1,11.4-8.1,22.1-9.3,34-2.4C1031.09,379.9,1037.89,380.8,1044.59,381.8Z"/><path class="cls-29" d="M1379.89,623.9c-15.2.8-27.9-7.3-41.5-11.9-48.9-16.7-98.3-32.1-146.3-51.4-8.8-9.7-21.8-10.7-33-14.9-17-6.4-34.4-11.5-51.5-17.7-35.1-11.3-69.2-25.4-104.7-35.7-11.7-.4-21.3,4-29.3,12.4-.8,2.7.3,4.7,2.2,6.5a8.92,8.92,0,0,0,4.5,1.2c6.8-1,12.7-5.5,19.8-5.3,12.9.6,24.3,5.9,35.9,10.7,49.4,17.7,99.5,33.5,148.7,51.7,19.2,7.1,38.1,14.6,58.7,16.7q68,22.8,135.9,45.7C1379.49,629.2,1379.69,626.6,1379.89,623.9Z"/><path class="cls-30" d="M1101.79,699.6l229.8,66c12.9,3.7,25.9,7,38.9,10.4.1-1,.1-2.1.1-3.1-45.7-13.7-91.4-27.5-137.2-41.1q-92.85-27.6-185.8-54.9c-17.6-12.7-38.6-15.3-58.9-20.2-11.1,1.4-21.9,3.6-29.5,13-.4,2.7,1,4.7,3.1,6.2,9.2,2.4,16.2-5,24.7-5.4,16,1,30.3,7.7,45.3,12.4,17.4,5.1,34.8,10.4,52.3,15.2C1090.19,699.8,1095.79,701.4,1101.79,699.6Z"/><path class="cls-31" d="M1388.09,979h-1.7c0-1.2.1-2.4.1-3.6C1387.09,976.6,1387.59,977.8,1388.09,979Z"/><path class="cls-32" d="M1381.59,413.9c-.2,1.1-.5,2.1-.6,3.2-2.1,27.6-2.2,27.7-27.5,17.2q-113.55-46.8-227-93.7c-4.4-1.8-8.6-4.3-12.9-6.5-2.3-3.1-4.9-5.6-9.3-5.1a8.4,8.4,0,0,0-5.4,3.8,4.76,4.76,0,0,0,.4,4.2c33.1,9.9,64.3,24.8,96.2,37.7,62,25,123.8,50.5,185.7,75.9C1382.59,438.4,1386.19,426.2,1381.59,413.9Z"/><path class="cls-33" d="M1371.59,708.1c-49.1-18.7-99.9-32.4-149.8-48.6-6.6-2.1-13-4.8-19.4-7.2-5.6-6.7-14-7.9-21.6-10.1-24.3-6.9-47.3-18.1-72.7-21.1a7.66,7.66,0,0,0-5.6,5.4c48.7,18.7,99.2,32,148.8,48,39.9,12.9,80.2,24.6,120.3,36.8Z"/><path class="cls-34" d="M1195.29,858.4a516.46,516.46,0,0,1-61.2-15.3c-6.3-8.1-15.6-7.2-24.3-8.1-3.7.7-7,2.1-8.8,5.7,43.9,11,87.7,22.4,131.7,33,47.2,11.4,94.5,22.2,141.7,33.3.1-1.3.3-2.5.4-3.8-25.6-6.9-51.2-13.9-76.8-20.8-3.2-2.9-7.1-4.5-11.2-5.8-25-7.6-51-11.2-76-18.5C1205.69,856.6,1200.39,855.1,1195.29,858.4Z"/><path class="cls-35" d="M1380.79,368.1q-76.95-34.05-154-68c-7.4-3.3-15-5.9-22.6-8.8-1.3.1-2.7.3-4,.5-.4.5-.9,1-1.3,1.5.4.5.8,1.1,1.2,1.6q90.3,39.9,180.7,79.9Z"/><path class="cls-36" d="M1212.39,497.1q76.65,28.95,153.3,57.8c5,1.9,10,3.9,15,5.8.7-8.9,4.2-17.9-.3-26.8-2.1,20.4-2.1,20.2-22.1,12.7-47.4-17.6-94.9-34.9-142.4-52.3C1214.79,495.3,1212.69,495.1,1212.39,497.1Z"/><path class="cls-37" d="M1376.39,825c-30.8-4.8-60.1-15.8-90.3-22.9-8.3-2-16.6-4.1-24.9-6.2-1.3.8-3.2.9-3.7,2.8l118.9,33.3Z"/><path class="cls-38" d="M1405.59,441.3a764,764,0,0,0-.1,94.5,8.41,8.41,0,0,0,6.4-4.8c3.5-10.7,3.9-21.6,2.8-32.7a10.08,10.08,0,0,0-2.9-4.7c-5.6-14.5.4-29.1-.4-43.7-.5-9.3,4.1-18.8-1.3-27.9C1408.29,428.4,1411.79,436,1405.59,441.3Z"/><path class="cls-39" d="M1376.79,979h-4.7c1-4.1,1.7-9.7,2.7-17.3l.6,2.4A67.8,67.8,0,0,1,1376.79,979Z"/><path class="cls-29" d="M1380.19,585.8c-1,12.1-3.2,24.1-.1,36.2C1380.79,609.9,1384.79,597.8,1380.19,585.8Z"/><path class="cls-3" d="M800.69,324.1c-9.9-17-23.8-2.9-35.6-3.8-16.3-1.2-23-4.7-25.1-20.3-1.4-10.4-1.4-10.4-13.2-21.2-2,3.7-3.9,7.5-6,11-1.4,2.2-4.6,5.7-6,3.1-5-9.2-12.8-12-22.4-12.8-2.1-.2-3-3.2-2.1-5.3,1.2-3,4-3.4,6.8-2.4,3.5,1.4,7.2,1.3,7.6-2.7.5-4.7-3.9-3.2-7-3.6-8.8-1.3-16-6.6-21.6-12.7-8.7-9.4-3.9-16.9,6.5-21.1,11-4.5,7.6-10,.2-12.7-10-3.7-20.3-18.8-31.9-2.1-.3.5-2.4.5-2.9,0-14.8-13.6-36-17-50.2-31.5-3.7-3.8-7.1-10.5-12.7-8.8-12.5,3.8-23-2.2-33.9-5.3-11.9-3.4-15.1,1.3-15.5,11.5-3.3,6.6-14,8.2-13.5,16.8,1,17.3-1.5,35.2,6.8,51.5,5.5,29.3,7.2,59.1,11.3,88.6,8.1,57.9,6.5,116.6,13.6,174.6,1.7,13.5-2.6,28,7.1,40.1,8.6-3.5,7.3-11.2,6.9-17.8-2.3-38.8,16.2-68,43.9-92.3A207.18,207.18,0,0,1,674,407.5c13.6-5.3,26.9-7.4,41.1-2.6,17,5.8,35,7.1,52.4,11,18.7,4.2,18.8,4.1,17.5,23l-.6,8.1c-.8,6.2-.7,12.5-1.4,18.7-.6,3.7-.4,7.5-.7,11.3-1.1,17.6-2.7,35.3-2.8,53,.5,3.1,1.5,5.9,4.3,7.7,8.4-3.2,7.7-11,8.4-17.7,1.6-17.2,2.8-34.4,3.2-51.6,1.9-23.5,2.9-47.2,4.9-70.7,1.3-14.7,3.1-15.7,17.1-11.5,8.2,2.4,16,7,25.1,3.5,11.9-12.1,9.6-26.6,7.2-41.1-8.4.2-8,.3-10.4,9.6-1.6,6.3,2.3,16.9-10.5,15.7-15.9-1.5-25.2-9.5-25.7-21.4C802.59,343,806.79,333.1,800.69,324.1Z"/><path class="cls-40" d="M531.09,251.1c-5.8-16.6-1.8-34.4-5.9-51.2-.3-1.3.6-3,1-4.5,14.8,5,6.8-7.7,9.5-12.1l-3-.3c-10.4-21.2-21.1-22.2-36.8-3.8-31.9,37.3-62.4,75.6-94.3,112.9-4.5,5.2-9.6,10.4-11.4,17.5-1.5,11.8,5.8,18.2,15.1,22,25.5,10.6,51.4,19.4,79.8,15.7,12.3-1.6,24.8.7,37.1-.1,5.8-.4,11.9-.6,16.9-4.6,4-12.8-.9-25.3-2-37.9C535.69,287,536,268.7,531.09,251.1Z"/><path class="cls-41" d="M393.89,307q52.2-63.3,104.6-126.7c13.6-16.4,19.9-15.9,30.6,1.9,1,1.7,2.1,2.2,3.7.8,2.6-19.6-15.2-15.3-24.6-20.8-26.6,26.7-47.9,57.7-73,85.7-5.4,6-10.5,12.2-15.8,18.3l-49.7,61.7c-3.3,4.5-.3,8.6,1,12.7,30,39.6,29.4,81.9,16.8,128.1a264.77,264.77,0,0,0-3.3,125.8c3,13.9-.8,27.9,2.7,41.7,2.2,8.9,3.3,18.1,7.9,26.1,5.6,9.7,13,10.3,20.8,2.1a11.56,11.56,0,0,0,2-2.5,116.56,116.56,0,0,1,35.5-51.6c-21.3-9.3-29-29.8-36.9-48.6-6.4-15.1-.5-31.6,5.9-46.6,9.5-22.4,18.9-44.8,19.3-69.6.5-31.4-3.5-61.9-22.1-88.6a33.62,33.62,0,0,1-4.3-8.7c-2.9-7.2-9.3-10-15.7-13-16.3-7.6-16.2-7.7-8.5-22.9A13.7,13.7,0,0,1,393.89,307Z"/><path class="cls-42" d="M800.69,324.1c-.3,3.8-.7,7.5-1,11.3-2.4,32.4-2.3,32.1,28.1,43.5,10.5,3.9,14.9,2.6,15.5-9.2.4-7.8-1.6-16.3,4.1-23.3,5.9-4.7,5.2-11.1,4.3-17.5a15.39,15.39,0,0,0-4.1-6.8c-13.2-4.5-23.7-16.4-39.4-14.2C801.69,311.4,806.59,320.2,800.69,324.1Z"/><path class="cls-43" d="M808.19,307.8c13.6,2.8,25,10.8,37.6,16,7.8,4.6,13-1.6,18.7-4.7,5.1-2.8,9.2-7.2,14.8-9.1,5.5-2.6,11-5.1,12.5-11.9,4.4-4.3,8.8-8.7,14.3-14.1a145.53,145.53,0,0,0-37.4-11.2c-4.5,3.1-8.9,6.2-13.4,9.3-4,5.5-3.8,12-4.3,18.4-1.4,19.1-1.5,19.1-19.4,10.9-7.3-3.3-14.2-8.4-21.9-9.8C800.89,299.9,809.19,305.7,808.19,307.8Z"/><path class="cls-44" d="M1054.69,226.9l-3.5,2.9c3.5,7.1,10.8,8.6,17.1,11.3,34.4,14.5,68.5,29.6,102.6,44.7,9.3,4.1,18.6,8.6,29.3,6h0c-12.2-12.5-29.3-15.6-44.4-22.2C1122.29,254.9,1089.79,237.7,1054.69,226.9Z"/><path class="cls-4" d="M1200.19,291.7c-34.3-9.9-65.2-28-98.3-40.8-17.1-6.6-33.8-14.1-50.7-21.2-9.3-4.2-18.7-8.3-27.9-12.8-4.3-2-7.9-2.5-12,.6-4.9,3.7-1.8,7-.8,11.2,2.7,11.7-.4,23.5-.8,35.3-.3,10.7-1.4,21.5,4.7,31.2,1.4,3.8,4.5,5.9,7.9,7.4,22.6,9.7,45.5,18.6,68.3,27.8,4,1.6,8.2,2.6,12.4.2,3.5,1.1,7.1,2.2,10.6,3.3,5.8-7.8,15.1-9.8,23.3-13.5,17.1-7.6,34.7-14.2,50.5-24.5,3.2-2.1,8.4-1,12.6-1.3C1200.09,293.8,1200.09,292.7,1200.19,291.7Z"/><path class="cls-45" d="M955.29,392.9c2.6-3.2,5.1-6.4,7.7-9.6a65.12,65.12,0,0,1,19.7-20.8c15.1-10.2,20.6-34.8,12.9-51.6-4-2.6-6.4-.3-8.7,2.7-2.2,2.7-5.1,3.5-8.5,3.3-11.7.8-19.6,8.8-28.4,15.1-9.8,10.5-22.3,16.7-35.2,22.2-5.8,2.2-10.3,6.2-14.9,10.1-14.9,11.4-30.4,21.8-48,28.8a20,20,0,0,0-7.8,6.3c-10.5,16.8-11.6,35.3-9.3,54.2,6.4,9.3,13.5,3.4,19.6.1,23.5-12.9,46.8-26.1,69.8-40,6.5-3.9,13-7.5,20.2-9.6C948.79,401.1,955.09,400,955.29,392.9Z"/><path class="cls-46" d="M846.89,398.5l5.7-3c17.7-8.2,33-20.5,50.3-29.4,3.7-2.9,7.3-5.8,11-8.7,13.7-7.2,27.2-14.9,39.3-24.6l25.2-15.9c2.4-4.3,7.8-8.2-2.4-11-14.5-3.9-29.1-8.6-42.5-15.2-16.5-8.2-28.2,2.4-41.6,7.4l-11.2,8.2c-10.6,6.6-20.4,14.3-31,20.9-.8,6.4-1.5,12.7-2.3,19.1-.6,13.9,1,28.1-4.9,41.4C841.59,392.2,840.19,397,846.89,398.5Z"/><path class="cls-47" d="M986.89,313.6c2.1-.8,4.1-1.7,6.2-2.5,9.1,5.3,12.2-7.5,19.9-6.6,21.3,7,41.7,16.1,62.3,24.8,7.6,3.2,15,8.7,24.1,4.7,1.2-1,2.4-2.1,3.6-3.1q-44.25-17.7-88.6-35.5C1001.59,296.1,993.39,303.5,986.89,313.6Z"/><path class="cls-48" d="M310.49,333.9c-1.2,16.3,3.5,32.6-.3,48.8-7.2,11.6-1.9,24.3-2.6,36.4-.6,11.2,1.8,22.5-5.4,32.7-2.3,3.3-2.1,7.3,2.4,9.5,2,1.3,5.4-2.6,5.3-.5-1.7,28.9,1.5,57.6,1.6,86.4a53.64,53.64,0,0,0,.1,10.6c1.7,8.6,1.2,17.3,2.1,25.9,2.2,7.6.7,15.3.3,23-.1,5.2-.5,10.5.3,15.7,1.9,7.6.7,15.3.9,23,.4,6.7,2.7,13.2,1.5,20-1.4,13.4.7,26.8,1.2,40.2.6,16.9-4.7,29-19.9,36.6-11.3,6.8-20.1,20.8-36.7,12-2.3-1.2-5,1.1-6.7,3.4-5.9,7.6-3.7,26.6,4.1,35,17.7-4.1,31.2-16.1,46.8-24.2,3.6-1.9,7.2-6.7,11.4-3.1,5,4.4.7,8.7-2.1,12.6-9.1,12.5-4.4,28.5-10.4,41.8-1.8,11.5-5.6,22.7-6.6,34.4-.1,8.8-.8,17.4-4.7,25.5,1,12.1,8.6,6.2,14.1,4.8,5.9-1.6,10.1-8.4,17.8-5.1-5.2-.7-9.8,0-12.8,4.5a14.87,14.87,0,0,0-.7,4.7c2,14.2,0,28.5,12.3,41.1,7.1,7.3,3.2,21.4,3.4,32.6.2,11.8,1.8,13.5,11.4,14.8,6.8-14.2,2.3-28.7,1.1-43.1-1.7-14.9-3.4-29.7-2.7-44.8.7-16.4-1.8-32.7-1.6-49.2.1-10.8,0-21.3,3.6-31.6,4-30.1.1-60.2-1.1-90.2-2.8-72.6-4.9-145.1-7-217.7-.5-16.7-1.5-33.3-.4-50,.5-7.5-.1-15.2-6.5-20.8-4.7-18.3.8-37.1-2.9-55.4-4.4-12.8-7.8-25.9-6.9-39.6,1.9-2.3,2-4.6.1-7C309,327.3,308.49,330,310.49,333.9Z"/><path class="cls-49" d="M314,328v6c7.2-11.1,4.5-23.7,4.4-35.6,0-6.2-1.7-12.7-.7-19,1.3-8.3-1.4-12.2-9.9-14.8-11.7-3.6-22.7-9.4-34-14.2-.5,0-1.2-.1-1.6.2a18.11,18.11,0,0,0-2.1,1.8c7.1,3.4,14,8.1,21.5,9.9,20.4,4.9,23.3,19,21.3,36.3C308.89,308.5,310.49,318.3,314,328Z"/><path class="cls-50" d="M382,858.3a72.17,72.17,0,0,1-2.2,36.6c-8.8,27.5-13.6,55.5-15.8,84H336c.1-.3.2-.7.3-1,.1-.6.2-1.1.3-1.7,2.2-14.6-.1-29.2-1-43.8.6-41.2-3-82.4-.9-123.6.2-9.7.9-19.4.5-29.1-2.5-72-5.2-143.9-7.7-215.9-1.5-45-2.6-89.9-3.9-134.9l.7-.7c14.7-15.1,25.7-32,29.6-53.4,2.1-11.7,7.5-22.8,11.5-34.2a7.45,7.45,0,0,1,3,.1,2,2,0,0,1,1.2,1.2c7.6,20.8,17.1,42.9,9,64.2-14,36.3-1.1,75.4-15,111.2-1.1,2.8,1.4,6.4,1.3,9.5-1,24.8,4.1,50.1-6.6,74a18.3,18.3,0,0,0,2.7,19.9c12.9,15.7,15.3,34.2,15.6,53.2.2,15.1,3.3,30.2,2.6,45.1-1,21.6,9.1,42.9,3,64.1C374.79,808.6,377.19,833.3,382,858.3Z"/><path class="cls-51" d="M474.09,979h-115c.5-10.6,1.4-21.2,4.8-31.6,2.4-7.3,1.2-15.2,2.8-23.1,4.1-19.2,16.5-37.6,12.3-57.5-6.5-30.6-9.9-60.7.1-91,3.7-11.2-5.2-20.9-4.1-31.2,2.6-23.3-3.4-45.9-3-69,.3-18.9-1.4-38.2-16.4-53.9-7.2-7.5-8.1-19.3.9-27.8,5.9-5.5,5.7-10.8,3.4-17.4-1.4-4-3.7-9.2-2.2-12.4,10.8-24.2-2.2-49.7,6.6-75,7.6-21.9-3.5-48.2,6.3-70.9,11-25.4,3.4-48.8-3.7-72.5-.5-1.7-1-3.3-1.5-5,.7-4.5-.6-9.6,4.1-12.8h0c.5,1.7.9,3.5,1.4,5.2s.9,3.3,1.3,4.9c3.3,5.5,5.9,11.5,8.9,17.2,7.5,14.3,13.4,28.8,13.5,44.9a72.25,72.25,0,0,1-1,12.1c-5.5,31-11.2,62-13.5,93.4h0a360.91,360.91,0,0,0-1,37.6c.3,10.7.8,21.3,1.5,32,1.3,19.3,3.2,38.6,5.2,57.8,5.9,56.5,15.6,112.7,12.6,169.8-.7,14.2.8,15.2,14.3,11.8,5.2-1.3,10.2-3.7,15.8-3.2a7.89,7.89,0,0,1,1.2,1.5c0,.1.1.1.1.2,2,3.2,1,6.6-.9,10-1.3,1.8-2.6,3.5-4,5.3l-4.2,5.7a279.16,279.16,0,0,0-21.8,34.9c-7.2,13.9-5.9,16.8,9.4,17,4.5.1,9-.6,12.3,2.9.1.1.1.2.2.2.2.2.4.5.7.8-1.2,14,8.1,22.6,16.3,31.8,8.5,9.6,15.8,20.6,11.6,33.4-4.2,12.6-9.7,22.1,10.7,12.8a7.82,7.82,0,0,1,4.8-.2C471.89,969.1,474.19,973.9,474.09,979Z"/><path class="cls-52" d="M78.69,483.9c6.5,4.1,6.9-2.6,8.5-5.4q63.6-112,126.9-224.3c3.1-5.6,5.9-11.3,8.9-17,1.8-3.6,1.5-6.1-3.2-6.6Q149.14,357.2,78.69,483.9Z"/><path class="cls-53" d="M305.49,460.4a10.77,10.77,0,0,1-1.1-1.1c15.2-24.5,5.9-50.9,5.8-76.5-19.6,14.5-42.1,22.1-65.4,27.8-3.2.8-6.8.6-7.8,4.4-3.8,14.4-14.5,24.1-22.3,35.8-12.7,19-30.1,34.8-39.6,55.9,5.9,10.6,14.9,12.9,25.7,9.1,12.9-4.6,27.5-4.4,38.3-14.4,5.2-10-.3-20.2.5-30.2.3-5.8.8-11.7.9-16.8.2,5-.7,10.7-.9,16.5,1.3,13.2,2.1,26.3-.1,39.7-1.4,8.3-.2,16.9,12.6,13.7a20.94,20.94,0,0,0,12.1-7.3c12.2-14,24.1-28.3,36.2-42.4C303.69,470.7,307.39,466.4,305.49,460.4Z"/><path class="cls-54" d="M237.49,501.1c-13.1,3.8-26.8,6.3-39.2,11.7-10.6,4.6-15.3-5.3-23.2-6.2-8.6.8-6.2,7.6-7.1,12.7,5.8,8.1,5.7,17.2,4.7,26.5-4.5,9.1.4,18.8-1.5,28,1.5,5.2.2,10.6,1.4,15.9.9,4-1.1,9.5,4,11.2,5.3,1.8,9-2.5,12.1-6.1,4.9-5.7,10.1-11.1,14.5-17.1a154.3,154.3,0,0,1,23.6-26.1C243.79,536.9,244.09,520,237.49,501.1Z"/><path class="cls-8" d="M314,328c-.4-9.8-.7-19.6-1.1-29.5a42.22,42.22,0,0,0-2.3,35.4C311.69,332,312.79,330,314,328Z"/><path class="cls-55" d="M153.39,638.2c-7.4,9.9-14.6,20-24.4,27.8-6.3,1.9-10.2,5.8-10.3,12.7-.2,25.1,1.1,50.1.7,75.2-.2,10.9,5.3,13.2,14.7,8.1a21.73,21.73,0,0,0,5.2-3.8c9.1-10,13.8-5.7,17,5,1.1,3.6,1.9,7.3,3.6,10.6,7.6,4.6,11.2-1.2,13.4-6.3,4.2-9.2,4.9-20-1.8-27.5-4.2-4.6-4.3-5.4-1-9.9,6.4-8.7,6.2-19.4,5.3-29.5-.9-9.6-.9-19.2-1.9-28.8-2.7-12.2.4-24.4.4-36.6,0-5.2,1.6-12.3-3.9-14.4-6.9-2.8-9.5,4.8-12.9,9.2C155.59,632.4,152.89,634.5,153.39,638.2Z"/><path class="cls-56" d="M49.89,868.2c1.2.1,2.4.3,3.7.4,6.8,2.8,10.3-4.4,16.9-5.9,1,12.1,4.9,23.3-8.9,31.3-9.4,5.4-6.1,13.3,1.1,18s9.4,11.2,10.7,18.8a10,10,0,0,0,4.6,5.1,6.1,6.1,0,0,0,4.4-.4c4.6-5,3.3-11.7,4.8-17.6.7-2.8-.8-8.4,5.7-6.2,5.2,5.2-1.1,14.9,7.4,18.8,7.6-4.2,5.8-12,7-18.6,1.1-6.1.1-13.1,8.5-17.2-.7,14.6-1.4,28.4,2.8,41.7,7.9,2.5,9.1,18.6,22.1,10.9,1.8-9.5,2.5-19-1.8-28.1-7.8-1-6.6,4.5-6.8,10.6-1.2-10.3,1.7-18.8,1.7-27.4,0-5.9,3.1-8.4,8.8-8.3,7.8-8,5.9-18.2,6.6-27.9a11.23,11.23,0,0,0-4.7-5.4c-14-4.6-18.9-14.1-16.4-28.5,1.1-6.3,0-12.9-4.9-18.1-9.2-2.4-12.7,4.2-16.6,10.3-3.2,8.9-11.4,17.8-.2,26.9,1.2,1,.9,1.7,0,1.8-12,1.2-11,8.9-8.9,17.2,5.2,4.1,12.5,1,17.8,4.9-3,7.1-9.2,4.5-14.2,5.3-10.2,6.4-15.1.9-16.8-8.4-2.3-12.8-.1-25,8-35.7a6,6,0,0,0-2.6-3.8c-4.8-2.8-6.1-7.3-5.7-12.4,1.8-24.2-.9-48.2-1.9-72.3A92.76,92.76,0,0,1,88,710.4c-.4-.7-.8-1.4-1.2-2.2-12.2,6.5-8.2-5-12.1-14.3-.9,13-1.4,21.4-2,29.9,1.5,7.6,3.5,15.2,1.7,23.1-7.8,8.4-6.4,19-6,28.8.5,13.8.5,27.6.9,41.4,3.5,13.9,3,26.2-11.1,35C52.89,855.4,48.39,860.6,49.89,868.2Z"/><path class="cls-57" d="M160.69,771.9c5.7-9.6-7.7-16.6-3.7-26.2.5-1.3-3.7-3.7-6.6-2-2.3,1.4-4.1,3.5-6.4,4.8-6.6,3.8-10.8,15.8-18.8,11.7-5.9-3.1-.9-13.9-1.2-21.2-.7-19.2-.3-38.5-1.9-57.6-.6-7.4,4.1-10.5,6.9-15.4-12.1-8.2-5.3-21.7-9.2-32.6-4.2,3.5-2.9,8.5-2.5,12.3,2.2,22.8-7.6,39.9-24.9,53.5-3,2.4-5.3,5.3-5.5,9.3l.1.1c14.5,4.8,15.7-12,25.2-14.7,2.1,22.8.2,46.3,1.3,69.7.3,6.6-1.8,11.5-6.9,15.4a75.34,75.34,0,0,0-8.6,7.3c-4.7,4.8-12.5,8.4-10.8,16.7,1.8,9.1,10.9,7,17.2,9.2a34.82,34.82,0,0,1,4.3,2.2c9.4-.6,10.6-10.1,16.2-14.8,4.1-13,7.8-26.4,26.1-24.2C155,776.3,158.09,774.9,160.69,771.9Z"/><path class="cls-58" d="M153.39,638.2c5.1-5.1,7.6-12.7,15.7-16,3.8,17-4.9,33.8,1.4,50.1,4.2-2.4,5.6-6.6,7.2-10.7,3.4-12.5,3.1-25.2,1.2-37.9-.5-7.5,5.2-12.2,8.5-18,14.9-19.5,32-37.2,46.7-56.2,1.3,3.1-2.2,10.3,6.3,10.7,4.3-3.8,3.9-9.5,5.9-14.2a28.28,28.28,0,0,0,1.4-4.1c1.1-3.4,2.4-6.7,3.7-10,1-3.4,3-6.6,1.2-10.3-5.6-.5-12,.7-9.7-9.2,3.4-14.3-1.1-28.8-.4-43.3-1.9-2.2-4-2.3-6.2-.5.8,10.8,3.2,21.6.9,32.5,7.5,27.8-9.6,44.6-26.9,61.9-11.2,11.3-20.9,24.2-32.7,38.1-3-10-4.8-17.9-4-26.3-2.8-.9-4.4-.5-3.4,2.9-1.3,19.3,1,39.8-17.5,53.7C150.59,633.3,150.59,636.1,153.39,638.2Z"/><path class="cls-11" d="M170.49,577.8c1.1-1,2.3-2,3.4-2.9,2.6-9.9-2.7-19.4-1.3-29.2A36.31,36.31,0,0,0,170.49,577.8Z"/><path class="cls-59" d="M58.79,979h7.8c-.5-1.5-1.1-3-1.7-4.6-.2-.5-.4-.9-.6-1.4-3.4-8.2-8-16.9-11-24.3a51,51,0,0,1-2.2-6.6,23.54,23.54,0,0,1-.8-5.5c0-3.6-.1-7.2-1.7-10.4a11.71,11.71,0,0,0-2.2-2.9c-6.3,6.1-2.9,14.2-4.5,21.3-.6,2.7-.9,5.8-4.3,5.6-1.7-.1-4-2.2-4.6-3.9-4.5-12.4-13.7-23.4-11.5-37.8.1-.2.1-.4.2-.6.9-3.1-.6-5.8-1.7-8.5a15.83,15.83,0,0,1-.9-3.1c0-.3-.1-.6-.1-.9-11.2-12.5-5.6-28.6-9.3-42.7-.8.5-1.6,1.1-2.4,1.6a22.91,22.91,0,0,1-.7,2.8h0c-5.9,27.3-3.9,54.8-1.6,82.3,4.5,12.6,3.4,26.3,7.6,39,0,.1.1.2.1.3h46.1Z"/><path class="cls-60" d="M73,821.1c.5-24.7.9-49.5,1.4-74.2-1.4-3.8-2.8-7.6-4.1-11.2-29.3,17.2-26.7,45-24.8,72.7.3,4.8.8,9.5,1.2,14.3,5.2,5.1,12,6.5,18.7,8.1C74.49,833.1,75.49,828.3,73,821.1Z"/><path class="cls-61" d="M46.39,923.4c-.2,4.3-.4,8.5-.6,12.8,2.9,10.8,9.6,17.5,21,14.4,8.9-2.4,12.9-9.4,8.5-18.9.5-9.2,3.9-19.2-10.5-22.2-4-.8-10.5-9.5-2.7-11.8,22-6.4,11.7-22.3,12.5-35,.1-2-.9-4.1-1.6-7.1-8.4,1.9-12.2,10.2-19.5,13-7.4,5.4-10.2,12.3-7.9,21.3C48.39,901,47.69,912.2,46.39,923.4Z"/><path class="cls-62" d="M73,821.1c-1.1,3.3.7,10.3-6.6,6.1-6.2-3.6-12.8-4.2-19.7-4.5-.7,10.9-1.5,21.9-2,32.8-.2,4.8-2.7,10.9,5.2,12.6,3.6-5.9,7.1-12.3,13.4-15.3C78.39,845.6,77.39,834,73,821.1Z"/><path class="cls-63" d="M23.39,782.3c1.9,6.1-11.9,9-3.7,16,5.5,4.7,10.6,14.6,17.6,11.9,8-3.1,3.5-12.6,2.6-19.8-.8-5.7-.2-11.5-.3-17.6-7.7,0-10,8.2-16.2,9.5Z"/><path class="cls-61" d="M19,895.5c-4.6,5.4.9,8.9,2.5,13.1,3,1.1,7.2,1.3,8.7,3.5,8.3,11.6,10.3,5.9,10.8-3.7.4-8.4,4.6-19.9-2.7-24.2C31.59,880.4,26.79,893.5,19,895.5Z"/><path class="cls-64" d="M8.29,852.6l1.4.2c-1.5-6.1,2.5-12.9-2.3-18.7Z"/><path class="cls-65" d="M1041.89,910.7c-10.8-7.1-10.8-7.1-13.8-39.1-.5,7.8-1,15.7-1.6,23.5-.3,3.3-1,6.9-5.1,6.8s-4.7-3.9-4.4-7.2c1.2-12.2,1.2-24.5,3.4-36.7,2.2-12.4,4.7-25.6-4.8-36.9-11.2-11.8-24.6-14.5-39.8-9.2-4.2,30.9-4.7,62-6.6,93,4,6.6,11,8,17.7,9.5,17.2,3.6,34.2,8.1,51.9,8.8C1050.79,921.7,1041.89,915.1,1041.89,910.7Z"/><path class="cls-66" d="M1312.49,979h-22.3l-39.3-8.1h-.1l-65.9-13.5q-77-15.75-153.9-31.6c-.4.1-.7.1-1.1.2a34,34,0,0,1-7.8.3c-.5,0-.9-.1-1.4-.1s-1-.1-1.5-.2c-1.5-.2-3-.4-4.4-.7a18.92,18.92,0,0,1-2.3-.5,22.88,22.88,0,0,1-2.8-.8c-12.5-1.9-24.6-6.4-37.4-6.7h-2.4c-36,4-71.2,12.3-106.9,17.8-20.1,3.1-39.9,9.3-60.7,7.8a11.61,11.61,0,0,1-2.2-1.3,2.7,2.7,0,0,1-.8-.7,4.8,4.8,0,0,1-1.3-4.2c.1-.1.2-.2.2-.3.2-.2.3-.4.5-.6h0a19.2,19.2,0,0,1,1.4-1.5,6.57,6.57,0,0,1,1.7-1.2h.1a25.94,25.94,0,0,1,7.7-2.6c50.1-9,100.1-18.5,150.4-26.7,3.1-.5,6.3-1,9.1.5a8.85,8.85,0,0,1,1.7,1.2c24.3,6,48.6,12.2,73.5,15.6h0c18.1-2.1,34.5,3.7,50.4,11.4h0c.3.2.7.3,1,.5Q1204.29,956,1312.49,979Z"/><path class="cls-67" d="M977.09,813c13.7-1.1,26.1,3.7,38.5,8.2l85.3,19.5c2.5-.9,5-1.7,7.5-2.6-4.1-6.8-11.8-6.1-18-8.7-5-1.2-10-2-14.8-4-13.4-3.7-27-6.8-40.5-10.1-19.2-3.1-37.2-11.6-56.8-13-50.7,10.6-100.3,25.9-150.8,37.7-8,2.6-16.8,3-23.4,9.1a4.42,4.42,0,0,0,.5,4.8c6.7,4.3,13.4,1,20,0,45.7-9.9,90.4-24.1,136.2-34.1A44.9,44.9,0,0,0,977.09,813Z"/><path class="cls-68" d="M1044.39,921.1c16.7,5.8,34.1,8.4,51.4,11.9-2.5-2.7-4.6-4.8-3.3-9.5,1.8-6.7-3.6-11.2-9.3-9.5-14.5,4.4-27.4-5-41.3-3.3C1028.89,917.5,1046.59,916.9,1044.39,921.1Z"/><path class="cls-69" d="M1031.09,925.8c-1.2,17.7-2.3,35.4-3.5,53.2h-11.2c.4-2.9.5-6,.9-8.9,2.1-14.5.8-29.4,3.5-43.9.2-1.1.4-2.1.7-3.2h0c3.3-.1,6.6,0,9.2,2.4Z"/><path class="cls-70" d="M987.69,659.6c20,5.7,39.9,11.5,59.9,17.2-3.1-21.9-3.7-43.6,5.1-64.5-1.8-8.1-9.5-8.2-15.1-10.1-10.7-3.6-21.4-7.3-32.4-10.2-5.8-1.5-11.5-3.6-16.4,2.1C984.49,615.9,978,637.6,987.69,659.6Z"/><path class="cls-71" d="M991.79,593.3c21,4.2,41,11.5,61,19l49.7,14.1c1.3-1.1,2.7-2.1,4-3.2-5.3-7.9-14.4-8.5-22.2-11.1-17.6-5.9-35.4-11.6-53.1-17.2-11.7-2.9-22.8-8.2-35-9.3-21,3.4-41.2,9-56.7,24.9a7.86,7.86,0,0,0,.6,4.8C960.09,614.5,975.79,603.6,991.79,593.3Z"/><path class="cls-72" d="M1099.39,334q-44.4-17.55-88.7-35.1c-10.7,19.3-6.6,40.3-7.3,60.8,10.9,3.8,21.8,7.7,32.8,11.5,19.9-13.6,41.8-23.4,63.2-34.2A7.57,7.57,0,0,0,1099.39,334Z"/><path class="cls-73" d="M1075.89,829c3.9,3.7,8.8,3.2,13.6,3.3,3.2-14.8,15.8-15.1,27.1-17.3,12.7-6.6,22.8,8.8,35.2,4.2,5.8-2.2,14.7-.1,14.3-11-.3-8.4,2.4-16.6-9.1-21-4.9-1.9-15.3-6.1-7.2-16-.4-3.1-2.7-4.6-5.4-5.3-49.4-13.9-98.3-29.4-147.9-42.3-5.9-1.5-11.8-2.6-16.5,2.8-4.9,26.2-11.4,52.3-2.5,78.9l57.4,13.5c10.2-19.5,10.9-19.3,31.3-11.9C1078.39,811.3,1081,818.1,1075.89,829Z"/><path class="cls-74" d="M983,725.6c44.8,12,89.7,23.9,134.5,36,10.9,2.9,21.6,6.4,32.5,9.6,30.6,8,61.3,16.1,91.9,24,5.2,1.3,10.5,2.3,15.7,3.4l3.7-2.8q-71.4-19.8-142.8-39.5a102.87,102.87,0,0,1-10.5-4c-16.7-11.6-37.2-11.7-55.6-18.5-7.5-2.8-15.3-4.4-23.1-6.4-15.3-3-29.9-8.9-45.4-11.2-38.2,10.4-75.3,24.3-112.8,36.7-3.1,1-5.7,3-6.4,6.5.8,6.1,5.4,6.5,9.6,5.2,35.5-10.7,71.2-20.6,105.1-35.9C980.69,728.2,981.59,726.5,983,725.6Z"/><path class="cls-75" d="M1195.29,858.4c34.2,8.3,68,18.1,102.8,24-1.3-6.1-2.6-12.2-4.1-19.2-6,5.2-10.1,12.5-13.5-2.7-2.5-11.1-34.5-8.5-43.2,4.6-1.1-17.5-12.9-21.7-25.6-23.9-5.3-.9-11.2-7.3-16.3-1C1190.89,845.8,1192,852.3,1195.29,858.4Z"/><path class="cls-76" d="M1116.69,815a38.84,38.84,0,0,1-4.8-.4c-21.1-4.2-21-4.2-22.4,17.6,6.3,1.9,12.6,3.9,18.9,5.8,8.5,1.7,17.1,3.4,25.6,5C1140.59,826.2,1127.89,821.1,1116.69,815Z"/><path class="cls-77" d="M1044.59,381.8c-6.5-2.8-13-5.6-19.4-8.4-21.4-.7-24.3,1.8-25.7,22.2-.4,5.8-.9,11.7,1,17.4,8.4,12.3,22.2,13.5,35.1,16.7,4.8.3,11.9-8.3,13.7,3.6,2.4,3,5.3,3.7,8.7,1.9,4.9-6,4.6-13,4-20.1-1.4-4.5-2.9-9-4.4-13.6-4.6-1.1-8.3,8.9-12.1,3.1C1041.19,398.1,1042.29,389.5,1044.59,381.8Z"/><path class="cls-78" d="M1056.89,434c-2.6.3-4.9-.3-6.4-2.6-3-5.3-8.7-2.1-12.7-4-11.5-4.2-23.1-8.4-34.6-12.6-3.7-1-6.3.5-7,4-.7,4,3,4.8,5.6,6.3,62.2,21.9,123.9,45.1,185.7,67.9,6,2.2,11.7,5.9,18.6,3.7l6.2.3c1.2-.9,2.4-1.9,3.6-2.8q-62-23.7-123.8-47.5c-4.8-10-15.2-4.4-22.3-7.9a7.71,7.71,0,0,1-2.5-1C1064.79,434.1,1061.69,432,1056.89,434Z"/><path class="cls-20" d="M1069.89,438.8c6.4,5.5,15.3,4.2,22.3,7.9,3.2-4,10.2-4.5,10.4-11.2,0-2-1-3.9-1.5-5.9-11.2,9.3-14-8.6-22.5-6.7-.9.2-1.7,5-1.1,7.2C1079.29,437.2,1075.59,438.7,1069.89,438.8Z"/><path class="cls-20" d="M1056.89,434c3.5,1.3,7,2.6,10.4,3.9,8.8-12.2,7-19.5-5.5-22.8C1055.29,420.1,1058.49,427.7,1056.89,434Z"/><path class="cls-79" d="M1027.69,730.9c26.4,8.2,53,16.1,80.2,21.4,1.9-3,2.7-6.2-.6-8.6-17.8-12.8-12.9-28.3-5.5-44.2-23.4-6.8-46.8-13.5-70.2-20.3-4.5-1.3-5.8,2.1-6.2,5C1022.69,700,1015.49,716,1027.69,730.9Z"/><path class="cls-80" d="M1030.09,598.1c25.5,8.4,50.9,16.8,76.4,25.2q48,14.55,95.9,29c-.2-12.2-.3-24.3-.8-36.5-.4-10.8,5.1-17.5,15-19.6,9.6-2,16.7-9.9,26.8-9.9-55.4-19.5-110.7-39.1-166.2-58.4-13.7-4.8-27.7-9-41.5-13.4-1.1-.6-2.7-.7-2.7-.2C1031.29,542.1,1025.29,569.9,1030.09,598.1Z"/><path class="cls-81" d="M1206.19,496.8c-40.4-18.3-82.6-31.9-124.1-46.9-26.3-9.5-51.8-21.5-79.2-28.1-11.4,21.9-8.9,45.3-7,68.6.2,2.7,3.2,4.1,5.7,5.3l104.7,35.7c3.8-7.8,9-8.8,16.9-5,11.3,5.5,25,4.2,35.9,11.8,2.5,1.7,6.3.5,8.8-2,11.2,4.4,26-3.2,34.3,10.5,9.5-6,21-1.4,30.6-5.7,3.8-1.7,4.6-6.5,3.2-9.9-3.1-7.4-8.1-17.1-15.9-16.3C1203.19,516.3,1206.09,506.2,1206.19,496.8Z"/><path class="cls-82" d="M1167.69,536.1c-3.2-.4-7.8.5-9.3-1.3-11.5-13.2-29.3-7.6-43.1-15.2-12.9-7.2-9.6,4.9-9.1,11.7,28.6,9.7,57.2,19.5,85.8,29.2,14.9-9.7,1.6-12.6-4.4-15.5C1181.09,541.9,1172.49,543.4,1167.69,536.1Z"/><path class="cls-83" d="M1600.89,555.7v40.2c-.3.1-.6.3-.9.4-.6.2-1.1.5-1.8.7h-.1a28.68,28.68,0,0,1-12.7-1.4c-34.7-11.9-70.5-20.9-104.6-34.5-1.4-.6-2.9-1.2-4.3-1.8a.1.1,0,0,1-.1-.1c-2.8-1.6-5.5-3.4-6.9-6.4,0-.1-.1-.1-.1-.2s-.2-.5-.3-.7c.8-5.1,4.3-7.6,8.9-7.4,19.6,1,38.8-2.3,58-5.4.2,0,.4-.1.7-.1a.75.75,0,0,0,.5-.1c15.5-1.9,28.4,4.4,40.7,12.4,1,.6,1.9,1.2,2.9,1.9a16.28,16.28,0,0,0,3.1.3h.8C1590.39,553.3,1596.19,553.7,1600.89,555.7Z"/><path class="cls-84" d="M1469.89,552.8c8.2-10.7,19.6-3,29.1-3.9,13-1.2,25.2-3,37-8.2,1.1-.7,1.5-1.3,1.1-2s-.7-1-1.1-1l.2-.2c-14-11.5-31.3-13-48.1-15.8-2-.3-4-.5-6-.8-.9-1.3-1.7-3-3.1-3.5-19.5-8-39.6-14.5-59.5-21.7a7,7,0,0,0-7.4,1.8c-.9,11.7-1.7,23.4-2.6,35.1-.4,1.1-.8,2.7-.3,2.9C1428.09,545.6,1447.19,555.5,1469.89,552.8Z"/><path class="cls-85" d="M1600.89,487.2v73.9a29,29,0,0,1-5.9-2.4c-3.3-2.1-8.3-.7-10.8-4.6-.1-.2-.2-.3-.3-.5.2-8.5-.5-17.2-.3-25.6C1583.89,512.7,1576.39,492.6,1600.89,487.2Z"/><path class="cls-85" d="M1597.19,593.8a17.93,17.93,0,0,0,3.7-1.6v6.9a4,4,0,0,1-2.7-2.1A8,8,0,0,1,1597.19,593.8Z"/><path class="cls-86" d="M1412.09,497.4q35,11.7,70,23.4c11.8-3.4,12.8-13.7,10.2-21.8-4.2-13.1-18.3-6.6-27.7-9.7-13.8-4.6-7.6,11-13.7,15.3-1-1-2.9-1.9-3-3-1.5-16.6-10.7-27-26.5-30.8-5.3-1.3-7.3,1.1-7.9,5.2-.9,5.8-1,11.8-1.5,17.7A23.18,23.18,0,0,0,1412.09,497.4Z"/><path class="cls-86" d="M1488.09,521.6c15.3,7.5,31.7,11.8,48.1,15.8-.3-13.2-.7-26.5-.7-39.7,0-5.9-2.1-9.9-8.1-9.2-10.4,1.4-21-11-28-4.7-5.3,4.8-3,18-3.9,27.5C1495.09,516.4,1494.79,521.2,1488.09,521.6Z"/><path class="cls-87" d="M1536,537.7c0,1,0,2.1-.1,3.1,15.9.6,29.2,10.6,44.8,12.6-4.5-15.6-2.2-31.8-3.3-47.7-.5-7.1-1.9-10.8-8.9-7.6-8.7,4-20.9-3.2-25.4,3s-2.4,17.6-3.2,26.7C1539.79,531.4,1539.79,535.3,1536,537.7Z"/><path class="cls-88" d="M1516.29,980.5c.1,0,.2.1.4.2h-.3A.31.31,0,0,1,1516.29,980.5Z"/><path class="cls-88" d="M1600.89,972v7H1540a20.9,20.9,0,0,1-5,0h-18.7a13.62,13.62,0,0,1,1.7-1.7,14.16,14.16,0,0,1,6-3c7.7-1.8,16.6,1.9,23.9-1.6C1565.59,970.7,1583.29,969.5,1600.89,972Z"/><path class="cls-89" d="M1404,802l-1.5,129c3.8,4.2,9.1,5.6,14.1,7.5,20.2,4.3,40.1,10.3,60.9,11.7,10.4.3,15.7-1.2,15.7-15,.1-23.9,13-42.8,34.9-53.8,9.7-4.9,16.9-9.6,12.8-21.9-1.4-4.2,0-8.6,1.9-12.5,5.5-11.7,1.8-19.6-9.8-24.5-33.1-10.9-67.4-17.8-101-26.7-8.1-.6-15.9-4.7-24.3-2.8C1403.49,794.8,1402.39,797.9,1404,802Z"/><path class="cls-90" d="M1469.89,552.8c-20.6-5.5-41.2-11-60.4-20.4-1.3,1.1-2.6,2.3-3.9,3.4q-.45,59.85-.9,119.6c1.6,5.6,3.6,10.9,9.7,13.3a59.43,59.43,0,0,0,23.7,6.1c15.3-2,30.8-2.8,46.8-8.4.6,4-.2,9.7,4.4,13.3s9.5,5.4,15,2.4c5.1-2.9,6.3-7.7,3.6-12.5-8.2-14.6-3.1-26.4,5.9-38.6,6.5-8.8,10.8-19.1,1.2-29.4-3.2-3.4-3.5-7.9-1.7-12.2,5.3-12.6-2.5-16.8-12.5-18.8a45.26,45.26,0,0,1-24.9-14.1C1473.89,555.2,1471.89,554,1469.89,552.8Z"/><path class="cls-91" d="M1413.59,665.6c-3-3.4-6-6.8-9-10.1q-3,73.2-.6,146.6c.9-2.7,1.5-5.7,4.6-7,6.8-8,5.1-17.5,5.1-26.8-2-15.1-.2-30.2.3-45.3C1410.69,703.8,1415.39,684.7,1413.59,665.6Z"/><path class="cls-92" d="M1415.59,934.7c-.3,1-.7,2.1-1,3.1h0a52.37,52.37,0,0,0-2.6,14.1v1c-.1,1.1-.1,2.2-.2,3.3,0,.8-.1,1.6-.1,2.4s-.1,1.3-.1,2c0,.9-.1,1.8-.1,2.6a138.17,138.17,0,0,1-.8,15.8h-9.8c-.2-16-.4-32,1.6-47.9,1.5.2,3,.2,4.6.3C1410.19,931.4,1413.19,931.7,1415.59,934.7Z"/><path class="cls-93" d="M1600.89,596.6V722.1l-.9-.3c-4.8-1.5-9.8-2.5-14.6-3.7-44.4-11.9-88.1-26.5-133.3-35.4-5.3-1-10.3-2.9-12.3-8.1a14.18,14.18,0,0,1-.8-3.8c13.3-2,26.6-3.6,39.8-6.1,4.1-.8,3.9-10.6,10.3-7.3,5.3,2.8.1,7.6-.6,11.5-1.1,6.2,2.7,8.8,7.3,11,3.2,1.5,6.5,1.1,8.9-1.5,4.2-4.7-.8-7.5-2.5-11.1-5.3-10.9-5-21.3,3-31.3,8.5-10.7,19.5-21.5,3.3-34.9-3.1-2.6-3.3-7.6-1.2-10.6,10.9-15-1-14.8-10.6-16.7-9.2-1.8-17.6-4.8-20.2-14.5-.2-.9-.4-1.8-.6-2.8,3.1.7,6.3,1.3,9.3,2.3q56.1,17.55,112.1,35.1a6,6,0,0,0,2.8,2.5A3.09,3.09,0,0,1,1600.89,596.6Z"/><path class="cls-94" d="M1001.49,495.6c-6.6-11.1-1.4-22.8-1.3-34.2.1-13.2,1.7-26.4,2.6-39.7l-4.8-2.4c1.7-1.5,3.4-3.1,5.1-4.6.3-5.3,1.3-10.7.7-15.8-2.1-16.4,5.2-24.5,21.2-25.6-12.3-8.8-23.4-7.3-35.2,2.2-8.7,7-19.2,11.9-28.8,17.8-7.1,7.4-8.2,17.3-10.4,26.5-3.2,12.9-7.5,24.5-20.5,30.8-4.4,2.1-8.3,5.4-5.8,11.4,7.3,3.6,12,.7,15.3-4.9-4.4,23.5-16.6,46.2-17.3,71.7,12.7,7.2,20.6-5.6,31.1-7.4,6.4-5.4,16.6-5.8,20.4-14.8C982.79,502.3,990.59,495.2,1001.49,495.6Z"/><path class="cls-95" d="M925.39,461.5c.3-1,.3-2.7,1-3,29.5-12.3,28.7-40.5,34.7-65.2-2-.2-3.9-.3-5.9-.5-2.8,3.5-8.4,3.7-10.1,8.5-28,12.3-52.9,29.9-79.7,44.2-9.9,5.3-19.6,11-29.6,16.1a13.85,13.85,0,0,0-2.6,4.4c-2.1,12-4.3,24.1-1.5,36.3,6,8.4,12.5,3.1,18.5.4,19.7-8.8,37.8-21,58-28.9C914.59,470.8,922,468.9,925.39,461.5Z"/><path class="cls-94" d="M1003.49,359.7c9.1-19.5,2.5-40.8,7.3-60.8-7.8,1.3-9.3,11.7-17.7,12.1,6.2,20.4-1,41-18.8,51.7-8.2,4.9-13.4,10.5-11.3,20.5C978.09,378.2,990.79,369.1,1003.49,359.7Z"/><path class="cls-96" d="M940.69,611.1c17.1-10,34.8-18.6,54.5-22.4,4.2-25.5,4.5-51.3,5.6-77.1a13.28,13.28,0,0,0-3.2-9c-6.1,2.2-12.4,3.8-17.4,8.2-2.3,6.1.3,14.3-8.2,17.6-8.2,3.2-11.3-3.4-15.8-7.5-14.4,3.6-28,8.9-39.6,18.5-7.1,24.8-16,49.1-24.7,73.4-2,5.5-4.9,11-2.7,17.1a5.36,5.36,0,0,0,6.9,2.6C911.49,626.6,928.49,623.6,940.69,611.1Z"/><path class="cls-97" d="M997.69,502.7c-1.7,23.6-3.3,47.1-5.1,70.7-.4,5.4-1.3,10.8,2.6,15.4l34.8,9.3c2.8-8.1,5-15.8,2.6-25-3.4-13.1,2-26.4,3.2-39.6.6-6.6-.9-12.8-.1-19.1C1023.79,507.9,1011.59,502.7,997.69,502.7Z"/><path class="cls-94" d="M956.69,522.1c-1.7,13.8,6.4,13.3,16,10.9,14.3-3.5,11.3-12.7,7.6-22.2-1.1-.1-2.2-.2-3.3-.2-8.3-1.6-13.2,5.7-20.2,7.6A2.72,2.72,0,0,0,956.69,522.1Z"/><path class="cls-98" d="M957.09,519.3c8.8,2.1,12.4-7.8,20-8.7-1-1.3-2.1-2.6-3.1-3.8-6.8,4.3-15.6,5.1-21,12C954.19,520.4,955.49,520.6,957.09,519.3Z"/><path class="cls-99" d="M991.79,593.3c-17,7.2-34,14.5-51,21.7-13.2,1.3-24,9.1-36.1,13.1-5.5,1.8-10.4,6.1-16.9,4.1a9.9,9.9,0,0,0-8.1,4.7,8.75,8.75,0,0,0-.3,4.8c3.2,14.6-4.1,27.1-7.9,40.3-2,7.1-6.6,13.7-3.3,21.6,10.8,4.7,19-4.3,28.6-5.6,9.3-2.6,17.9-7.2,27.4-9.3,1.4-.4,2.8-.9,4.2-1.4,10.3-5.6,22.8-6.8,31.2-16,8.6-5.7,18.1-9.2,28-11.7C989.09,637.5,990.39,615.4,991.79,593.3Z"/><path class="cls-100" d="M866.09,759.7q49.65-16.8,99.2-33.7c6.1-2.1,12-5,17.9-7.5q12.75-25.05,3.2-51.4c-7.9,2.6-15.8,5.2-23.7,7.9-13.8-1.7-23.8,8.9-36.4,10.9l.1-.1c-9.3,2.9-18,7.3-27.3,10.2-10.9,3.5-21.4,8.3-32.6,10.8a9.26,9.26,0,0,0-2.6,3.9c-3.9,18-14.4,34.5-12.4,53.8C858.29,768.8,862.49,765.1,866.09,759.7Z"/><path class="cls-101" d="M986.39,667c-1.1,17.1-2.2,34.3-3.2,51.4,14.9,4.2,29.7,8.3,44.6,12.5-4.2-17.6-2.2-34.8,3.9-51.7C1016.89,673.7,1002.59,667,986.39,667Z"/><path class="cls-102" d="M926.29,685.8c13.5.8,23.6-9.4,36.4-10.9-1-1.2-2-2.3-3-3.5C948.09,675.1,936.09,678,926.29,685.8Z"/><path class="cls-103" d="M787.49,465.8c.4-6.4.9-12.9,1.3-19.3-3.6-5.3-8.9-7.6-15-8.4-17.7-2.4-35.3-5.7-52.2-11.7-5.7-2.1-11.9-2.6-17.6-.5-22.3,8.3-45.1,16-60.5,35.7-6.7,8.5-14.3,16.2-21.2,24.5-5.6,6.8-9.9,14.1-9.4,23.4.4,7.4-3.4,13.4-6.5,19.7-11.1,22.2-21.4,44.5-23.1,69.9s-7.2,50-12.8,74.7c1.1,26.3,3.3,52.5,6,78.6,1.2,11.4-.7,22.5.2,33.8,1.2,23.6,1.4,47.2,4.1,70.7.7,5.7-.5,12.1,6.2,15.5,8.6-.6,8-7.2,7.9-12.8-.1-7.4-.4-14.7-.1-22.1-.7-11.3-1.8-22.5-2.7-33.8-1.7-21,1.3-41.1,4.9-61.9,4.2-24.6,12.4-47.6,17.8-71.5,2.4-10.7,5.4-20.5,10.9-30,13-22.3,14.7-48.2,22.3-72.3,7-22.1,16.8-43.2,25.7-64.1,7.8-18.4,26.5-32.9,51-34.9C745.69,467.3,766.49,465.4,787.49,465.8Z"/><path class="cls-104" d="M575.09,672.5c8.9-33.7,11-68.5,17.4-102.5,3-15.6,13.4-29.9,20.9-44.6,1.7-3.3,4.3-6,4.7-10,3.6-36.2,29.2-55,57.4-71.9,4.1-2.5,8.1-5.3,12.3-7.5,12.3-6.4,24.4-10,38.5-3.7,19.8,8.8,42.2,7.3,62.6,14.2,2.4-28.6,2.7-30.2-24.8-35.6-21.5-4.3-42.5-11.9-64.3-13.2-23.6-1.4-44.1,11.2-62.7,23.4-25.3,16.6-48.7,35.3-63.3,64.5-11.6,23.2-10,45.9-10.5,69.4-.2.9-.5,1.7-.7,2.6-2,20.2,3,40.1,3.5,60.3.2,10-.5,20.2.9,30.2,2.3,7.6-.1,16,3.6,23.4A3.28,3.28,0,0,0,575.09,672.5Z"/><path class="cls-105" d="M590.39,835.6c-4.8,11.6,5.7,24.2-2.7,35.5-5.9,5.6-4.2,12.7-4.2,19.5,0,19.2,4.1,38.1,4.8,57.3.2,4.5.4,9.1,5,11.8,8.1-1.3,8.3-8.2,8.4-13.7,1-35,16.2-66.7,23.9-100.1,1.9-8.4,5.2-16.4,4.4-25.3-.2-2.1-.5-4.9.9-6.3,14.6-14.2,9.8-35.6,19.7-51.7,5.7-9.3,6.4-20.6,6.2-31.4-.4-22.5,5.1-43.6,13.8-64.1,1.9-4.5,4.2-9.2,2.8-14-7.8-27.3,2.1-50,18.1-71.3,5.9-7.8,9.6-16.9,13.6-25.6,4.4-9.4,9.9-17.9,18.4-24.1,3.5-2.5,7.8-5.3,8.2-9.6,1.7-18.3,18.2-19.1,29.8-25,9.2-4.7,15.7-.8,15.5,10.7-.1,6.9-1.8,14,1.4,20.7a3.25,3.25,0,0,0,4.3,1.3c1.2-18.3,2.5-36.6,3.7-54.9a12.45,12.45,0,0,0-8.4-4.4c-28-1.6-52.7,8.1-75.8,22.7a16.17,16.17,0,0,0-7.7,13.7c-.1,13.3-7.4,23.2-15,33.2a188.22,188.22,0,0,0-31.4,63.2c-7.6,26.3-8.7,52.8-9.7,79.6-.5,12.6-4.2,24-9.1,35.6-8.6,20.1-14.2,41-28.7,58.9-8.6,10.6-2.3,27.2-5.8,40.9C593.49,824.5,594.79,830.8,590.39,835.6Z"/><path class="cls-106" d="M590.39,835.6c16.1-10.6,8.6-27.9,11.3-42.2.9-4.8-2.2-11.4,2.3-14.9,23.2-18,20.6-48.7,35.7-70.7,2.7-4,1.7-10.4,2.6-15.7,4.2-25.1-.1-50.6,7.4-76.1,8.2-27.7,17.3-53.6,36.1-76.1,7.4-8.9,15.5-18.5,12.9-33.2-1.5-8.6,9.5-16.1,16.6-17.5,23.7-4.8,45.4-20.8,71.3-13.8.3-3.2.6-6.4.8-9.7a68.38,68.38,0,0,0-45.7-2.8c-2.6.7-5.4,2.6-7.7,2.1-30.4-6.4-45.4,17.2-64.7,32.5-1.6,1.3-4,3.4-3.9,4.9,2.3,27.1-18.5,46.6-24,71.6-4.4,19.9-5.9,42.1-17.3,59.7-16.2,24.9-20.4,54.1-27.5,81.2C586.59,753.8,581.49,794.9,590.39,835.6Z"/><path class="cls-107" d="M833.49,504.7l3.6-41.7c-3-2.9-5.5-2.3-7.7,1-9.6,14.4-14.5,15.2-28.6,4.5-3-2.2-5.5-5.4-9.8-2.7-1.3,18.7-2.5,37.4-3.9,56-.4,5.2.9,10.9-3.8,15.1-10.8,16.7-6.1,35.5-7.5,53.4,6.5,14.3,20,15.2,32.8,15.5,14,.4,16.3-11.9,20.7-21.6a14.8,14.8,0,0,0,1.6-4.6,26.75,26.75,0,0,0,.1-4.9c3.9-19.5,6.3-39.1,6.2-59C837.09,511.7,835.49,508.1,833.49,504.7Z"/><path class="cls-108" d="M791.09,465.8c9.3,5.2,13.8,19.5,29.4,13.5,7.6-2.9,14.6-3.2,11.9-13.9-.6-2.3,2.7-2.6,4.8-2.5l.2.1c1.7-2.3.3-4.6,0-7,3-19.2,1-39.3,9.5-57.6-1.5-3.6-3-7.2-4.4-10.8-11.6-.3-21.8-5.4-32.1-9.5-9.9-3.9-13.8-1.5-14.4,9.1C794.59,413.5,792.79,439.6,791.09,465.8Z"/><path class="cls-109" d="M571.89,672.2c-.4-7.7,3.4-15.6-1.6-23-3.3-31.4-3.7-62.9-7-94.3h0c-7.5-24.3-6-49.7-7.5-74.5q-6.9-115.2-21.2-229.7a13.82,13.82,0,0,0-.8-2.7c-.9,1-1.7,2-2.6,3,2.2,30.5,4.4,60.9,6.6,91.4-7.4,9.2-2.3,19.5-2.5,29.3-.3,12.2,3.6,24.1,3.6,36.3,4.3,67.2,10.2,134.3,16.2,201.4,1.1,25,3.2,49.9,5.7,74.8,2.4,20.2,3,40.5,5.2,60.6.8,7.4.9,15,5.6,21.4a4.09,4.09,0,0,0,5.2-.4c5.3-18.1-1.2-35.9-1.5-53.9C575,698.8,573.39,685.5,571.89,672.2Z"/><path class="cls-106" d="M779.19,595c1.4-19.3,2.8-38.7,4.2-58-.2-2.2-.3-4.4-.5-6.6-.9-.1-1.8-.1-2.7-.2-3.5,2.6-4.6,6.4-5.2,10.4-1,20.3-5.5,40.4-2.3,60.9,1.6,3.2,3.9,5,7.2,2.3C783.79,600.7,782.59,597.6,779.19,595Z"/><path class="cls-110" d="M542.79,407.9l-5.1-65.4c-20.7,1.7-41.4,0-62.2,1.2-26.6,1.5-51.9-7.5-75.6-19.8-7.5-3.9-6.4-10.4-6-16.9-21.5,19.6-21.3,21.1,4.9,32.4,4.4,1.9,9.1,3.3,12.1,7.4a26.52,26.52,0,0,0,9.8,8.1c35.4,15.7,69.2,34.7,105.1,49.3C531.09,406.4,536.49,409.4,542.79,407.9Z"/><path class="cls-111" d="M542.79,407.9q-66-30.6-131.9-61.1c1.2,4.1,1.4,8.8,3.7,12.1,20.5,29.4,24.1,62.3,21.6,96.7-1.2,16.9-6.8,32.9-14,47.5-7.9,15.9-10.8,32.5-13.7,49.1-2.4,13.7,10.8,22,15.3,33.7,4.7,12.3,10.5,25.7,28.4,23.2a13.22,13.22,0,0,0,6.5-.9c8-3.4,14.9-8.7,22-13.5,5.8-2.8,13,.2,18.3-4.7,7.2-4.3,9.8-12.3,15.2-19.6,3.7,11.5-4.1,25,8.3,33,12.1,3,23.2,12.6,36.8,5.3Q550.74,508.5,542.79,407.9Z"/><path class="cls-112" d="M456.49,606.7c-1.4.8-2.9,1.7-4.3,2.5-20.1,9.1-30,25.8-35.9,46.1-1.5,5.1-4.3,12.4-11.6,11.7s-7.8-8.5-9.3-13.7c-3.6-12.3-7.2-24.8-5.6-37.9,1.2-9.8.6-19-3.4-28.4a39.35,39.35,0,0,1-3.2-20.5c3.7-29.1-.4-58.7,5.5-87.8,2.4-12,9.2-22.2,10.2-34.9,3.2-38.5,2.5-75.5-26.6-105.7,2.4,7.1,3.8,14.7,7.4,21.2,16.1,28.7,8.2,57.3,2.8,87-6.7,36.2-10,73.1-7.7,110.2,3.3,53.7,11.6,106.9,16.4,160.3,2.8,30.3,7.7,61.5,2.3,92.7-2.6,15.3,1.3,17.1,15.7,11,6.8-2.9,13.8-5.2,20.7-7.7,6.6,3.7,11.7-1.3,17.3-3.1,4-2,8.9-1.8,12.5-4.9,1.5-15.8,11.4-24.9,25.2-30.6,4.9-2,3,2.3,3.5,4.3-.2,10.5-3.6,21.1,1.2,31.4,8.5,7.4,18.1,10.3,29.2,6.7,8.6-8.3,7.2-18.8,4.7-28.5-2.7-10.9-1.8-20.8,1.8-31.4,9.8-28.8-1-45.9-31-52.3-16.2-3.4-33.7-6.2-38-26.8a28.32,28.32,0,0,0-2.3-7.5c-1.7-13,.2-25.7,2.9-38.3C458.79,623.4,461.49,614.9,456.49,606.7Z"/><path class="cls-113" d="M849.69,327.2c12.1-4.3,22.7-11,31-20.9-13.8,1.5-20.8,16.4-34.8,17.5C847.09,325,848.39,326.1,849.69,327.2Z"/><path class="cls-114" d="M837.39,456.1c-3.8,2.3-.4,4.6,0,7,37.1-18.5,72.7-39.7,107.8-61.6-7.7-1.7-13.3,2.7-19.3,6.2-25.4,14.9-51,29.8-76.5,44.6C845.69,454.3,842.09,457,837.39,456.1Z"/><path class="cls-115" d="M902.89,366.2c-19.3,5.5-34.4,18.1-50.3,29.4C872.29,390.6,887.49,378.3,902.89,366.2Z"/><path class="cls-8" d="M953.19,332.8c-14.5,6.1-27.3,14.6-39.3,24.6C929.59,353.3,943.09,345.8,953.19,332.8Z"/><path class="cls-116" d="M336.49,979H285c-1.2-5.6-.5-11.9-1.1-17.7-.6-7,.5-15.6-7-18.5-12.5-4.8-13.4-12.1-8.4-22.6,1.4-2.9,1.3-6.3.7-9.5-.5-2.9.3-7.2-4.2-7.5-3.6-.2-5.6,2.8-7.1,5.8a13,13,0,0,0-1.4,7.9c4,20.8-1.7,41.4-1,62.1h-14.7a27.15,27.15,0,0,1,.1-2.8c.7-17.4,1.3-34.7,1.3-52.1,0-13.5-.3-26.9-1.3-40.4-.5-6.5,1.2-12.7,6-17.7a11.69,11.69,0,0,1,2.3-1.1.37.37,0,0,0,.3-.1,3.5,3.5,0,0,1,2.7.3h0a10.69,10.69,0,0,1,2.6,2.6,12.9,12.9,0,0,0,3,3.5c10,10,22.3,11.6,35.5,10a1.27,1.27,0,0,0,.6-.1c7.6,6.2,12.5-2.1,18.6-3.6,5.2-1.2,9.9-9.4,15.3-3.4,4.2,4.7,2.5,11.6-1.2,18.3-4.6-3.9-3.8-17.4-13.5-6.9a8.64,8.64,0,0,1-1.6,1c-1.7.9-3.6,1.4-5.3,2.7,1.9-.9,3.6-1.6,5.3-2.6.6-.3,1.1-.7,1.6-1,4.7,7,3.3,15,4.1,22.8.3,3.4-3.5,11.2,5.1,10.9,9-.4,6.1,5.8,7.8,10.6,5.1,15-4.4,31.8,4.8,46.1a14.29,14.29,0,0,0,1.4,2A3,3,0,0,1,336.49,979Z"/><path class="cls-117" d="M244.89,540.4c-.2,1.2-.4,2.3-.6,3.5-1.7,14.8-4.5,29.7-2.4,44.6,2.4,17.1,2.3,34.2,2.5,51.4.8,3.8,2.9,8.7,6.3,8,11.4-2.3,21.3,6.2,32.5,3.3,3.8-2.6,7.7-5,7.8-10.3-1.7-3.7-8-1.7-8.6-6.8,6.4-13.3,20.1-20.1,28.5-31.6,4.1-5.7,9-10.6,6.3-18.4-.3-8.7,1.4-17.5-1.8-25.9C293.89,544.5,271.29,534.9,244.89,540.4Z"/><path class="cls-118" d="M247.89,644.4c2.7-33.6-3.1-67-3.6-100.5-5.5,4.2-2.8,10.6-4.3,15.9-7.9,9.1-6,20.1-5.6,30.5.4,10.1.8,20.3.7,30.4a30.52,30.52,0,0,0,.5,5.2c3.8,17.8,2,33.9-12.6,46.9-3.9,3.5-7.5,7.7-9.5,12.8-1.4,10.6,3.3,11.8,12.2,8.3,3.8-1.5,5.5-10,11.8-4,4.3,17.6-4.8,27.9-19,35.6-9.3-1.6-17.8-1.5-22,9.1-1.4,9.8-8.3,15.6-15.2,21.6a9.54,9.54,0,0,0-1.7,2.3,33.88,33.88,0,0,0,.4-6.4c1.6-20.2-2.7-40.5.6-60.6-.2-10.1,5-21.2-5.9-29.2-4.1,2.1-3.5,6.3-4.2,9.8.1,14.9,1.9,30.1-.1,44.7-1.7,11.8-5.6,21.7.5,34.6,5.4,11.4-.1,17.2-10.2,20.4-3.2.9-6.3,1.7-9.5,2.6-9,8.3-12.3,23.2-27.9,24-8,2.2-9.3,10.1-13.5,15.6-8,5.5-17,10.1-18.9,21l.6.9c9.8,4.2,12.2-4.5,16.7-9.5a36.93,36.93,0,0,1,13.9-11.8c7.8,2.6,11.5-3.9,16.3-7.5s8.8-7.8,13.4-11.4c4.1-3.2,7.7-9.8,13-7.6,5.7,2.4,2.9,9.4,3,14.5.1,10.1-.7,20.2,5.6,29.1a4.38,4.38,0,0,0,4.6-1.2c2.8-3.6,3.3-7.8,3.7-12.1.6-5.8.9-11.7,1.1-17.5-7.9-25.2,6.8-38.6,25.9-50.1,10.6-6.4,19-15.7,28.9-23.9,3.6,20-.4,40.3,4.7,59.9,1.2,3.3,2.7,6.3,6.2,7.8a4.17,4.17,0,0,0,4.2-2.6c-.7-21.8,2.7-43.7.1-65.5-2.2-8.2,1.2-13.9,7.1-19.7,16.6-16.3,37.6-27.1,53.5-44.2,3.5-3.7,3.5,5.2,7.3,3,2.4-6.8-1.1-13.2-1.5-19.8-9.9-2.4-13.7,6.5-19.9,10.9-5.7,4-10.3,9.5-16.4,12.9-15-.4-24,7-27.5,23.2C247.09,676.4,254.19,659.4,247.89,644.4Z"/><path class="cls-119" d="M255.09,875.3c3,5,13.2-.2,13.3,10.1.1,5.8,5.9,2.5,9,1.6,5.6-1.5,11.1-3.8,16.6-5.8,10.5-6.2,6.4-16.7,7.8-25.6-8.7,2.1-14.2,13.3-25.4,8.4,3.3-10.2,6.6-20.5,12.3-30.4,5.1-9,10.4-20.9-1.8-30.3-3-2.3-9.2-3.8-5.5-9.4a14.6,14.6,0,0,1,13.9-6.5c5.5.5,8.7,3.4,9.5,9.1,1,7.1-2.9,15.1,3.5,21.3,5.1-6.5,3.4-14.5,4.5-21.8,1.1-6.8,1.8-13.5,7.5-18.6,5.8-5.3,4.4-12.2.6-17.3-4.6-6.3-9.7-.6-13.9,2-15.6,9.6-31,19.4-46.5,29.2-9.4,14.5-9.7,31.1-10.9,47.5C246.69,851.6,252.29,863.3,255.09,875.3Z"/><path class="cls-120" d="M320.79,665.9c-2.5-4.4-2.5-12-11.1-4.3-18.1,16-37.1,31-55.9,46.2-5,4-8.9,8-4.8,14.7,5.2,3.3,11.4,1.5,17,3.3,12.9,4.1,26.8,6.3,33.9,20.1,5.4-3.4,10.4-7.7,16.3-10s5.9-5.4,5.6-10.9C321,705.2,321.09,685.5,320.79,665.9Z"/><path class="cls-121" d="M252.79,521.6c-1.4,3.1-2.8,6.3-4.3,9.4,13.1,2.6,24.1,11,37.2,13.8,9.8,2.1,19.4,6.1,29.8,3.7,1.3-27.7-3.1-55.3-1-83.1.3-4.5,0-14.4-9.1-5A408.61,408.61,0,0,1,252.79,521.6Z"/><path class="cls-122" d="M308.29,817.7c.3-5.9-.4-12,1-17.6,3.1-12.3-3.8-17.4-13.8-18.1-10.6-.7-18,6.2-22.6,15.3-2.5,5,2.9,4,5.4,5.3,13.1,6.9,16.5,21.8,5.2,31.8-9.6,8.5-5.8,20-10.7,29.2-.9,1.6.1,5.2,2.8,4.2,6.1-2.2,12.5,6.1,18.1-.6,3-3.6,5.4-7.7,8.1-11.6C304,843,306.09,830.3,308.29,817.7Z"/><path class="cls-123" d="M300,745.7c-4.6-18.1-28.4-29-50.9-23.3.6,23.8,1.1,47.7,1.7,71.5-6.6,14.5-2.9,29.3-1.4,44.1a3.56,3.56,0,0,0,4.8,1.6c-.9-16.6,6.1-32.1,6.5-48.4-10.6-9.5-4.5-21-3.5-31.7.3-2.7,5-4.6,6.2-2.2,8.8,16.7,15.1,1.8,21.9-1.6C290.59,753.1,295.09,749.1,300,745.7Z"/><path class="cls-124" d="M285,673.2c11.5-9,22.9-18.1,34.4-27.1-.2-7.9,2.9-15.9-1-23.6-13.2.4-22.1,7.2-27.9,18.6-2.4,3.1-7.3,4.1-7.2,9.1C277.39,658.3,273.69,666.3,285,673.2Z"/><path class="cls-125" d="M315.59,548.4c-15.7-4.4-31.5-8.6-47.1-13.3-6.5-1.9-10.9-13.7-19.9-4.2-1.7,3-4.5,5.5-3.7,9.5,24.8,1.1,47.2,11.4,70.6,17.7C315.49,554.9,315.49,551.7,315.59,548.4Z"/><path class="cls-116" d="M335.69,932.5c3.4-41.2,2.6-82.4-.9-123.6-5.8,9.3-5.4,19.3-3.8,29.6,1.2,7.4,2.5,14.9-2.6,21.6-.6.9-2.2,2.1-2,2.3C341,884.3,325.79,910,335.69,932.5Z"/><path class="cls-126" d="M317.29,584.1c-3.3,15.4-17,22.7-26.5,33.2-5.3,5.7-14.1,9.1-12.8,19.1,5,4.7,9.3.8,12.7-1.9,9.9-8.2,20.9-15.4,27.5-27C318.09,599.6,321.79,591.7,317.29,584.1Z"/><path class="cls-127" d="M318.09,607.4c-15.2,7.2-23,24.6-40.2,29,.6,11.1,9.1,1,12.5,4.6l27.9-18.6C318.19,617.4,318.19,612.4,318.09,607.4Z"/><path class="cls-128" d="M512.19,943.5a283,283,0,0,0-2.8,35.5h-39.5c.3-10.5-2.9-10-16-3.4-4.4,2.2-9.6,5-13.6,1.2-4.5-4.2-3.3-10.6.6-14.6,11-11.3,5.4-21.7-1.3-31.6-4.8-7.1-10.9-13.4-17-19.5-6.8-6.9-7.6-13.8-2.1-21.6a4.33,4.33,0,0,1,.1-.5,9,9,0,0,1,1.6-2.9c.2-.2.3-.4.5-.5a17.41,17.41,0,0,1,1.4-1.2,8.79,8.79,0,0,1,1-.6c4.4-1.7,8.8-3.7,12.8-1.4a9,9,0,0,1,2.3,1.8l.1.1a7,7,0,0,1,.8,1c-2.5,10.9,4.6,14.4,13.1,16.5,12.1,2.9,24.6,4.2,36.4,8.5C507.09,916,514.79,926.4,512.19,943.5Z"/><path class="cls-129" d="M445.89,806.9c-5.3,1.9-10.6,3.9-15.9,5.8-1.5,3-3,6-4.4,9-8.4,16.6-8.2,34.6-8.3,52.6,1,4.7,2,11.3,7.9,9.7,8.3-2.2,20,.3,23.6-10.5,6.4-19.4,8.2-39.6,6.4-59.9C454.69,808.9,452.79,803.9,445.89,806.9Z"/><path class="cls-50" d="M421.09,875.9c1.5-18.1,3-36.1,4.5-54.2-13.2,14.2-21.9,31.4-31.9,47.6-3.5,5.7-6.8,11.2-2.1,17.7,4.4,6.1,10.3,4,16.2,3.1,4.2-.7,8.6-.5,12.8-.8,1.2-.9,2.3-1.9,3.5-2.8C420.69,883.7,417.69,880.6,421.09,875.9Z"/><path class="cls-11" d="M236.49,468.6c2.1.2,4.1.3,6.2.5.2-8.1,3.5-16.6-4.5-25.6C237.59,453,237,460.8,236.49,468.6Z"/><path class="cls-130" d="M169.29,937.8c.5,13.7,1.6,27.4,2.2,41.2H70.39c-1.5-1.8-3.1-3.6-4.8-5.3l-.1-.1c0-.2.1-.4.1-.6a201.82,201.82,0,0,1,7.5-25.5,96.4,96.4,0,0,1,4-9.3c.3-.7.7-1.4,1-2.1a5.94,5.94,0,0,1,.4-.8h3.1c.2.1.3.3.4.4a7.61,7.61,0,0,1,2.2,5.6v2a22.53,22.53,0,0,0,0,5.2,46,46,0,0,1,.1-5.2c0-.6.1-1.2.1-1.8.1-.9.1-1.8.2-2.8.3-3.1.4-6.2.7-9.3a45.51,45.51,0,0,1,.9-6.3h0A22.55,22.55,0,0,1,92,911.6a18.48,18.48,0,0,1,1.4-1.4c3.7-1.4,6.2-1.3,5.8,3.8s-.5,10.5-.7,15.8v.3c7,8.2-1.2,19.1,3.9,28,9.7-4.4,4.3-20.7,18.3-20.1.1,0,.2,0,.2.1,4.4,1,8.6,1.9,10.6,7.1,2.1,5.4,5.1,3.4,7.9.3a16.68,16.68,0,0,1,1.7-2.6c3.2-3.6,8.1-4.6,12.5-6.4,4.2-1.7,8.8-6,12.7-2.8l.3.3A8.86,8.86,0,0,1,169.29,937.8Z"/><path class="cls-130" d="M243.79,979h-72.3c.2-16.3.7-32.6-2.3-48.7-.4-2.4-1-4.9-1.6-7.3-.3-1.3-.7-2.5-1-3.8a30.62,30.62,0,0,1-.5-3.2c0-.4-.1-.7-.1-1.1v-.7c.5-4.2,1.2-8.5,1.9-12.7l.6-4.2a16.35,16.35,0,0,0,.2-2.2,33.66,33.66,0,0,1,1.9-6.9c1-1.5,1.7-3.5,2.7-5.2h0a6.68,6.68,0,0,1,1.7-2,4.23,4.23,0,0,1,3.9-.5c4.7,1.4,3.8,7,4.1,11.1,1.5,17.6,5.9,22.1,22.4,22.6h.1a22.88,22.88,0,0,1,2.8-.8,26.14,26.14,0,0,1,6.9-1h.4c3.1,0,5.9-1.1,8.8-2.2h.1c13.7-5.1,17.2-2.7,17.8,12.2a9.7,9.7,0,0,0,.1,1.7c.3,8.5.8,17.2.3,25.5C242.19,959.4,243.39,969.2,243.79,979Z"/><path class="cls-131" d="M91,835.1c5.3-7.9,16.6-10.5,18.9-21,.2-7.1-1.1-12.3-9.9-7.5-4,2.1-7.2,1.5-9.7-2.3-3.3-5,1.2-7.3,3.9-8.9,19.8-12,25.9-28.3,23.8-51.7-1.7-19.4-3.9-39.4.4-60.7-14,6.7-17.4,22.7-31.4,25.8-18.1,24-6.1,51.2-7.1,76.8-.5,12.6-.6,25.6-.4,38.4C79.49,831.3,80.29,838.4,91,835.1Z"/><path class="cls-132" d="M173.69,831.2c-1.1-13.3-2.8-26.5-1.5-39.9.4-4-.1-9.2-4.6-11.1-4.1-1.7-6.6,2.6-9.4,4.8-12.1,9.8-24,19.7-36,29.6.7,5.7,2.9,11.7,2,17-3,16.2.2,28.3,18,32.9,1.9-2.1,2.9-4.6,2.1-7.4-2.1-7.5-4-12.4,8.5-11.8C160.29,845.8,170.39,841.5,173.69,831.2Z"/><path class="cls-133" d="M139.59,945.5c8.9-3.9,18.9-5.1,26.9-11.1,6.1-5.8,2.6-12.6,2-19l-1.2-.2c-5.4-.5-5.6-3.5-3.7-7.5,2-4.3,5.8-7.4,8.3-11.4.4-2.2.9-4.5,1.3-6.7,2-3.5,1.5-7.5,2.1-11.2-2-5.3-6.6-5-10.8-4.4-6.1.8-8.7-3-10.9-7.5a5.83,5.83,0,0,0-3.6-2.3l-2.1.6c-6.5,8.7-.7,20.6-7.9,29.1-7,8.1-7.6,16.6-1.9,25.7C137.79,928.2,136.39,937,139.59,945.5Z"/><path class="cls-119" d="M98.59,930.2c-.6,7.4-1.8,14.8-1.7,22.3.1,4.1-7.1,10.2.4,11.9,6.6,1.5,14.4-1.8,15.3-10.3.7-6.7,1.8-12.5,8.2-16,.6-16.5-4-32.7.6-49.4-14.9.7-18.8,8-18.8,20C102.69,915.8,104.29,923.8,98.59,930.2Z"/><path class="cls-131" d="M108.29,826.5c-5.9,2.6-9.5,9.2-16.7,9.5-16.4,12-12.4,28.4-9.9,44.6,1.4,9.1,9.2,5.3,14.1,7.2,7,2.8,4.7-3.1,5.4-6.1.9-3.7.8-7.2-2.2-10.1,1.6-7.5-3.1-22.5,13.9-11.2,2.4,1.6,4.2-.3,5.3-2.1,1.4-2.5,1.5-6.7-1.1-7C95.29,849.3,107.89,835.9,108.29,826.5Z"/><path class="cls-13" d="M58.79,979a19.64,19.64,0,0,0,6.1-4.6,5.72,5.72,0,0,0,.7-.8c.2-.2.3-.4.5-.6h0c9.4-10.6,9.6-24.1,12.3-36.9.1-.3.1-.6.2-.9-1.1-1.2-2.1-2.4-3.2-3.6a17.85,17.85,0,0,1-.2,2.3h0c-.7,6.5-2.9,12.7-10,14-6,1.1-10.3-1.9-14-5.8-1.5-1.6-2.9-3.2-4.3-4.9a10,10,0,0,0-1-1.1c0,2.2.1,4.4.2,6.6h0c.6,11.9,2.2,23.8.2,35.7.2.2.3.4.5.6h12Z"/><path class="cls-134" d="M173.69,831.2c-5.9,3.5-11.9,7.1-17.9,10.6a21.14,21.14,0,0,1-4.4,1.7c-2-5.3-3.9-11.2-10.4-3.6-5.4,6.3-5.1,12.3.6,18.5,1.1,1.2.3,4.1.5,6.3,1.9,0,3.8,0,5.7.1h.2c9.5-2.5,17.7-7.6,25-13.8,6.3-5.4,9-11.8,3.4-19.5A8.31,8.31,0,0,0,173.69,831.2Z"/><path class="cls-135" d="M138,919.5c.6-8.6,1.3-17.1,1.9-25.7-3.2-10-8-6.1-8.9.1-2,12.8-5.5,25.9.3,39.2C136.79,929.7,132.59,922.3,138,919.5Z"/><path class="cls-136" d="M99,871.6c-.6,3.7-1.1,7.3,2.2,10.1,3.6,2.2,5.8,8.9,11.7,3.2,3.8-3.7,11.6-9.5,8.2-12C115.59,869,106.69,864.4,99,871.6Z"/><path class="cls-137" d="M87.19,941.5l6.3-31.2c-5.8-8.4-9-3.4-10.2,2.6-1.4,7.3-1.2,14.9-1.7,22.4l-.3,6.3C83.39,943.8,85.29,944,87.19,941.5Z"/><path class="cls-55" d="M123.29,798.5c.3,4.5,2,8,6.8,4.1,9.4-7.5,20.6-13.9,21.1-28.1-1.2-2.5,1.9-10.1-3.9-6.7C135.69,774.6,119.59,779.4,123.29,798.5Z"/><path class="cls-138" d="M215.29,687.8c16.5-16.8,33.6-33.4,24-60.5-14.8-.3-28.5-5.7-42.7-8.5-7.4-1.5-14.8-3.8-21.8,1.2,1,14.1,1.9,28.3-.1,42.4,5.1,9.5.9,19.5,1.4,29.2,3.3,6.2-.3,12.5.3,18.8.2,2.6-1,5.6,1.7,7.3s5.5,0,7.2-2c7.1-7.7,14.2-14.2,26.3-10.9,3.5,1,5.3-3.4,4.3-6.9S211.79,691.4,215.29,687.8Z"/><path class="cls-139" d="M239.19,624.5c.3-21.5.6-43.1.9-64.6-4.3-3.8-1.3-9.2-3.4-16.2-19.5,19.6-37,38.9-51.6,60.6-1.9,5.6,1,10.2,5.4,11.7C206.09,621.6,221.79,628.1,239.19,624.5Z"/><path class="cls-140" d="M239.19,624.5c-13.4-3-26.7-6.5-40.1-8.9-7.2-1.3-11.5-4.9-14.1-11.2-4,4.8-10.2,8.3-10.2,15.7,19,.7,36.8,7.3,55.1,11.4,5.1,1.1,8.3,1.9,9.5-4.1A26.42,26.42,0,0,0,239.19,624.5Z"/><path class="cls-141" d="M977.09,813c-25.2,2.8-49.1,11-73.5,17.1-26.5,6.6-53,13.8-79.4,20.7-7.1,6-8.4,14.6-10.5,22.8-3.7,14.5-8.5,28.6-12.7,42.9-2,6.7-4,13.4.6,19.9Q886.34,921,971,905.6C977.39,875,978.79,844.1,977.09,813Z"/><path class="cls-142" d="M970.89,979c6.1-20.4,10.2-40.8,1.5-61.6a45.38,45.38,0,0,0-2.1-4.5q-84.15,14-168.4,27.8h0a8.75,8.75,0,0,0-2.4.3c-7.2,1.4-8.2,7.5-8.8,14.2-1.2,13.3-2,19.8-5.9,23.8h186.1Z"/><path class="cls-143" d="M804.59,853.8v.2c7,11.7,3,23.8,1,35.7-1.5,8.8-3.2,17.6-4.5,26.4-.8,5.1-1.4,10.3-1.8,15.5-.1,1.5-.2,2.9-.3,4.4v1.1c1,1.2,2,2.5,3.1,3.7h0c-.6.3-1.1.7-1.7,1-6.4,4.4-5.9,11.3-5.8,18.4.1,8.1-1,14.2-3.8,18.9h-51.1c1.3-18.7,2-37.4,3.1-56.1,2.9-30,1.5-60.3,8.1-89.9a7.25,7.25,0,0,1,3.4-3.3.1.1,0,0,0,.1-.1,1.42,1.42,0,0,1,.6-.2,5.23,5.23,0,0,1,1.5.7c.2.1.3.2.5.3,4.6,2.9,3.3,8.2,3.4,12.7.2,7.5-1.1,15-1.1,22.5.1,5.7-1.2,13.8,5.6,15.3,6.4,1.4,10.4-6.4,11.8-11.3,4.2-14.1,7-29.1,5.8-43.7-1.3-15.3,4.4-28.6,8.3-42.2,3-10.4,11.9-11.9,19.8-5.3.7.6,1.4,1.3,2.1,2s1.1,1.2,1.7,1.9c-.8,14.3-2.2,28.7-3.2,43-.5,7.4.2,15.3-4.4,21.8a21.18,21.18,0,0,1-2,2.4C804.69,850.9,804.59,852.3,804.59,853.8Z"/><path class="cls-69" d="M970.89,979h44.5c1.8-14.4,2.5-29,2.9-43.5.1-4-1.4-7.1-3.4-10-.9-1.3-1.9-2.6-2.8-3.8a152.68,152.68,0,0,0-41.7-8.7c.3,1.5.5,3,.7,4.5,2.7,20.6-1.8,41.1-2.5,61.6h2.3Z"/><path class="cls-144" d="M804.49,854c-2.5,22.7-5.2,45.3-7.5,68-.5,5-2.9,10.6,1.9,15.1l2.7-.6c4.5-29.3,17.3-56.5,22.6-85.7C817.59,851.8,811.09,852.9,804.49,854Z"/><path class="cls-15" d="M1020.29,979h-8.9c.1-1.8.2-3.7.3-5.5.9-16.2,3.4-32.4,1-48.6l-.6-3.3,9.4,1.5h0c.3,1.1.5,2.2.7,3.3C1025.49,944,1022.49,961.5,1020.29,979Z"/><path class="cls-145" d="M866.09,759.7c-4.6,1.8-9.3,3.6-13.9,5.4a4.4,4.4,0,0,0-4.8,0,17.22,17.22,0,0,0-6.2,8.1c-7.4,18.4-10,38.1-15.5,57.1-1.3,4.6-1.8,9.5,1.5,13.8l150.6-38.7c1.8-26.5,3.6-53.1,5.3-79.6q-52.65,17.1-105.5,34C873.89,760.7,869.89,765,866.09,759.7Z"/><path class="cls-146" d="M827.09,843.9c6.2-24.1,12.3-48.3,18.5-72.4-12.6-5-23-.5-32.6,7.6-8.8,22.7-5.5,46.9-8.3,70.3C812.19,847.6,819.59,845.8,827.09,843.9Z"/><path class="cls-147" d="M1075.89,829c11.6-9.9,10.8-18.7-2.2-23.4l-10.5-3.9c-23.9-9.1-26.8-7.4-28.2,17.1A222.5,222.5,0,0,0,1075.89,829Z"/><path class="cls-148" d="M887.39,634.5c19.5-1.9,35.6-13,53.3-19.5,0-1.3,0-2.6-.1-3.9-16.7,6.7-33.4,13.5-50.1,20.2C888,630.8,886.69,631.7,887.39,634.5Z"/><path class="cls-77" d="M1037.79,427.4c3.4,4.1,8.5,2.7,12.7,4-.3-4.4,3.4-10.5-3-12.6C1040.89,416.7,1042.39,426,1037.79,427.4Z"/><path class="cls-149" d="M1600.89,966.8v9.4c-18.2-1.3-36.4-.6-54.6.2a191.24,191.24,0,0,1-28.3.9c-4.5-.2-9-.6-13.4-1.1a.75.75,0,0,1-.5-.1c-23.3-3-46.1-9.6-69.3-13.4-6.6-1.1-14.4-1-20.5-4.7a14.37,14.37,0,0,1-2.5-1.8,17.06,17.06,0,0,1-4.1-5.3c1.1-4.8-1.4-11.4,3-14.5a10.75,10.75,0,0,1,4.9-1.7c21.6,2.2,42.1,10.4,63.9,11.3h0a14.52,14.52,0,0,0,7.8,2.4h1.4c5.3,0,10.8-1.6,16.1-.6C1536.89,953.9,1568.89,960.5,1600.89,966.8Z"/><path class="cls-150" d="M1504,976.1c2.8.9,5.7,1.9,8.5,2.9h-106.6c.7-6.2,1.5-12.5,1.8-18.7a32.94,32.94,0,0,1,3.9-1.7,12.21,12.21,0,0,1,2.6-.6c9.6-1.7,18.7,3.3,27.8,5.2C1462.59,967.5,1483.79,969.7,1504,976.1Z"/><path class="cls-150" d="M1516.69,980.6h-.3a.1.1,0,0,0-.1-.1C1516.39,980.5,1516.49,980.6,1516.69,980.6Z"/><path class="cls-151" d="M1516.29,980.5c.1,0,.2.1.4.2h-.3A.31.31,0,0,1,1516.29,980.5Z"/><path class="cls-151" d="M1546.29,976.4a12.34,12.34,0,0,1-6.3,2.6,20.9,20.9,0,0,1-5,0c-5.2-.5-10.6-2-15.4,0h-15.8c-2.6-.4-5.1-.9-7.7-1.2-28.5-4.2-55.7-14.7-84.5-17.2l-3.8-.3v-9.4c1.4.3,2.8.7,4.3,1,37,9,74.1,17.8,112,22.3C1531.39,975.1,1538.79,975.9,1546.29,976.4Z"/><path class="cls-152" d="M1548.29,824.5c17.5,4.6,35.1,8.4,52.6,13V971.2c-11.8-2.5-23.8-3.9-35.5-6.7-25.5-6.2-51.8-8.8-77.1-15.9l-1-.3h0l-7.8-2.4c3.5-1,12,1.2,10-2.6-7.3-13.9,2.1-24,6.1-34.7,5.1-13.6,15.1-24.9,28.7-30.7,9.5-4.1,19.6-5.1,10.8-19.1-2.7-4.3.7-9.6,3.6-13.4,6.8-9,2.4-14.5-5.6-19.1a12.65,12.65,0,0,1,3.3-2.2C1540.29,822.5,1544.39,823.5,1548.29,824.5Z"/><path class="cls-153" d="M1600.59,786.4c.1-1.4.1-3.1.3-4.7v32.6c-4.8.9-9.7-.8-14.5-2.4-23.2-7.5-47.2-11.6-70.6-18.2a41.48,41.48,0,0,0-20.9-.5c-.4.3,1.8.1,3.8.7,32.4,8.2,64.6,17.4,97.5,24.1a15,15,0,0,1,4.6,1.7v15.7c-5.4,1.8-10-4.5-15.4-5.6-45.7-8.9-89.9-24.5-135.7-32.7a31.15,31.15,0,0,0-12.9,0h0a20.14,20.14,0,0,0-5.9,2.5c-7.4-1.5-14.9-2.9-22.3-4.4,0-.8.1-1.5.1-2.3.3-8.7.7-17.4,1-26.1.7-3.1,1.9-5,3.3-6,3.7-2.8,9.2-.2,13.4.7,16.1,3.5,32.4,6.1,48,11.7-1.6-1.1-2.6-2.7-2.2-5.6.7-4.8,5.7-6.2,10.1-6.6a86.26,86.26,0,0,1,29.1,2.1,44.39,44.39,0,0,0,32.8-3.4c.1,0,.1-.1.2-.1s.4-.1.6-.1c.6-.1,1.2-.2,1.7-.3h0a43,43,0,0,1,12.4-.1c8.3,1,16.3,3.8,24.5,6.2a6.18,6.18,0,0,1,2,1.5,3.59,3.59,0,0,1,.7,1,.52.52,0,0,1,.2.4.31.31,0,0,1,.1.2,4.88,4.88,0,0,1,.3.7,5.09,5.09,0,0,1-.5,2.2c0,.1-.1.1-.1.2a5.16,5.16,0,0,1-1.8,1.8c-15.3,5.4-31.5,7.2-47.8,10.6,16.2,4.2,31.8,8.1,47.3,12.6C1593.59,799.1,1599.59,798,1600.59,786.4Z"/><path class="cls-154" d="M1600.89,832.9v8.9l-59-13.5c-2.9-.7-5.8-1.3-8.7-2h0q-51.15-13.5-102.3-26.9a19,19,0,0,1,1.9-3.5c4.8-6.9,12.2-5.1,19.9-3.2,28.1,7,56.3,13.8,84.4,20.8,16.7,4.1,33.5,7.9,49.8,13C1591.79,828,1595.19,834.8,1600.89,832.9Z"/><path class="cls-155" d="M1600.89,718.5v14.4c-1.8,7.6-2.2,15.5-3.3,23.2-.8,5.8.3,15.6-11,12.1-.2-.1-.4-.1-.6-.2h0c-.2-.5-.3-.9-.5-1.4-1.9-6.3-.7-12.9-.8-19.3-.1-14.7-10.6-15.8-20.7-17-11.9-1.4-9.8,8.6-11.4,15.4-.6,2.7-1.1,5.5-2.5,7.9l-.3.6c-.1.2-.2.3-.3.5a16.19,16.19,0,0,1-3.4,2.6,11.11,11.11,0,0,1-1.6.7c-.1,0-.2.1-.4.1a6.47,6.47,0,0,1-1.3.4c-3.3.8-6.9.2-10.6-.8a12.18,12.18,0,0,1-4.2-2.9c0-.2-.1-.5-.1-.7v-.5a5.31,5.31,0,0,1,2.5-4.3c8.4-5.8,9.7-14.1,7-22.8-2.4-8.1-10.9-7.7-17.4-9.5-5.3-1.5-11.1-2.3-13.5,4.5-2,5.9-1.6,11.7,3.7,16.1,2.1,1.7,4.7,2.6,6.9,4.1,3.3,2.2,9.3,3.3,7.5,8.6a4.44,4.44,0,0,1-1.3,2.1,6.21,6.21,0,0,1-2.5,1.4h0c-2.3.7-5,.5-7.4.6-28.9-4.2-56.7-13.1-85-20-5.2-1.3-10.3-3.1-14.5-6.4a24.4,24.4,0,0,1-3.7-3.5c-1.9-19-4.3-38,2.6-56.4a24.43,24.43,0,0,1,1-2.4h0c8.5,1.7,17,3.5,25.4,5.2,2.1,1.1,4.2,2.2,6.3,3.2,19.6,8.9,41.4,10.7,61.7,17.3C1538.09,701.3,1570.19,707.3,1600.89,718.5Z"/><path class="cls-156" d="M1531.59,754.6c-1-.1-2.1-.2-3.1-.4-3.7-3.7-9.5.1-13.2-3.7-35.7-6.4-70.3-17-105.3-26-1.6,14-2.6,28.1-.4,42.1,5.2-5.2,10.8-2.5,16.5-1.2,22.7,5.4,45.4,10.5,69.5,16-4.4-11.2-18.1-3.6-21.7-15.5,14-2.5,27.5-1.2,40.9,2.5,11,3,21.1,2.5,29.3-6.6a2.81,2.81,0,0,0,.1-3.9C1540.29,755.6,1535.09,758.3,1531.59,754.6Z"/><path class="cls-157" d="M1600.89,721.3V777c-5.6.9-10.3-1.5-14.6-5.8l-.2-.2c-.1-1-.1-2-.1-3h.5c7.2-.8,6.5-6.6,6.8-11.6.6-7.9,1.2-15.7,1.5-23.6.2-5.1,1.6-9,5.2-11C1600.29,721.6,1600.59,721.5,1600.89,721.3Z"/><path class="cls-158" d="M833.69,511.2c-1.4,22.3-6.1,44.4-4.7,66.9,2.1.6,4.3,1.1,6.3.2,29.7-13.5,60-25.6,87-44.2A3.92,3.92,0,0,0,924,530c6.8-24.5,13.7-49.1,20.7-74.2-7.9-1.7-12.4,6.6-19.4,5.7-5.6,2.4-11.4,4.4-15.7,9C884.09,483.6,858.29,496.2,833.69,511.2Z"/><path class="cls-159" d="M924.09,530c-30.3,18.7-63.9,31.1-95.1,48.1-.1,1.1-.2,2.3-.2,3.4,4.8,3.6,9.4.9,13.5-1.1,23.2-10.9,46.4-21.8,69.2-33.5,3.5-1.8,5.9-4.6,8.2-7.5,12.3-5.8,24.7-11.6,37-17.4a23.58,23.58,0,0,1,.4-2.8c-1.4-.2-2.7-.3-4.1-.5C942.09,519.4,934.29,527.9,924.09,530Z"/><path class="cls-160" d="M833.69,511.2c26.2-11.9,52.3-24.2,76-40.8-15.8.7-26.4,12.7-40.1,18-12.3,4.7-22.4,14.5-36.1,16.2C830.09,507,833.79,509,833.69,511.2Z"/><path class="cls-161" d="M919.69,539.5l-90.9,42-.2.3c-9.7,20.4-11.5,42.3-11.6,64.4,0,14.2,3.3,16.7,16.7,12.1,16.3-5.5,33.6-9,46.9-21.1,2.3-.9,4.5-1.8,6.8-2.7l3.2-3.2C898.89,600.3,914.69,571.6,919.69,539.5Z"/><path class="cls-162" d="M880.69,637.2c-20.6,3.5-38,16.7-59.6,20.5,1.5-26.1,2-51.2,7.6-75.9-19.2,23.3-19.2,23.3-49.4,13.1,1.7,4.4,1,7.9-3.7,9.9-7.5,6.4-6.1,15.5-6.9,23.8-3.1,32.3-2.8,64.9-7.9,97a53.25,53.25,0,0,0-2.5,15.3c-1.2,23-3.1,46-4.4,69-.4,6.8-2,14,3,20.1-.7,12.3-1.3,24.6-2.2,36.9a28.53,28.53,0,0,0,3.1,15.3c5,10.6,8.5,10,14.6.8,6.6-9.9,10.2-18.7,11.7-31.8,2.5-21.2.5-43.6,8.4-64.4,4.4-11.5,11.8-10.4,20.6-7.6,10.9-2.5,21.7-5.1,32.6-7.6,1.3-2.2,2.5-4.4,3.8-6.6-8.7-5.5-16.6.2-24.6,2-7,1.6-9.7.2-10.1-7.4-1.1-22,2.4-27.2,24.2-34.9,9.5-3.4,19.7-5.9,27.1-13.6.1-1.1.1-2.2.2-3.3a2.57,2.57,0,0,0,.9-2.7c-.3-.9-.6-1.3-.9-1.3-12.5-1.4-22.3,6.8-33.7,9.5-7.9,1.9-11.3,0-10.8-8.2.4-6.9,1.2-13.9,1.3-20.8,0-11,5.1-17.9,15.5-21.8,9.5-3.6,18.9-7.7,28.2-11.8,5.3-2.3,11.4-3.8,13.8-10.1A19,19,0,0,1,880.69,637.2Z"/><path class="cls-163" d="M880.39,640.5c-15.9,6.6-31.6,13.5-47.6,19.5-9.1,3.4-14.3,8-14,18.5a185.08,185.08,0,0,1-2,28.8c-1.7,11.9,1.2,16.1,13.5,10.9,11.9-4.9,24.2-8.7,36.4-13,1.6.9,2.4.5,2.3-1.3q7.8-25,15.6-50C886.19,648.5,890.19,642.4,880.39,640.5Z"/><path class="cls-164" d="M868.89,703.9a5.76,5.76,0,0,0-2.3,1.3,10.05,10.05,0,0,1-.4,2.5c12-.7,23-4.6,33.3-10.8a5.13,5.13,0,0,0-2.8-2.8C887.39,697.4,878.19,700.6,868.89,703.9Z"/><path class="cls-165" d="M896.69,694.1c.9.9,1.8,1.9,2.8,2.8,9.7-2.1,19.1-4.7,26.9-11.2C915.29,684.2,907,692.5,896.69,694.1Z"/><path class="cls-166" d="M866,711.1c-8.1,2.8-16.3,5.4-24.3,8.4-31.3,11.5-32.2,13.2-31.3,47.1.2,6.4,1.1,8.7,8.1,6.5,10.1-3.3,20.6-5.5,30.9-8.1l1.4-.1,1.4.2C856.39,747,864.39,729.8,866,711.1Z"/><path class="cls-167" d="M575.59,766.6l-3-.3c-6.2,17.7-7.9,36.1-7.5,54.8-3.6,28.6-4.1,57.6-8.7,86.1a77.73,77.73,0,0,0-2.7,16.6c.4,7-1.9,14.4,3.4,20.5,17.4-2.6,14,12.3,17.8,21.2,3.7,2.2,7.2,2.4,10.4-.8,1.7-3.9-1.5-7.1-1.7-10.8-.1-4.5,2.3-3.8,5.1-3a4.82,4.82,0,0,0,3.6-1.4c-1.6-26.1-3.2-52.1-4.7-78.2-2.9-22-5.7-43.9-4.8-66.1.3-6.4,1.1-12.8-2.3-18.7C575.49,780.7,585.19,771.2,575.59,766.6Z"/><path class="cls-3" d="M575.59,766.6c6.2,5.4-1.4,14.4,5.1,19.7,2.7-32.8-3.3-65.2-5-97.8-.3-5.3-.4-10.7-.6-16-1.1-.1-2.1-.2-3.2-.2C568.39,703.9,578.49,735,575.59,766.6Z"/><path class="cls-3" d="M563.29,555c.2,31.6.1,63.2,7,94.3C571.39,617.6,569.79,586.1,563.29,555Z"/><path class="cls-168" d="M781.69,506c-.3,8.1-1,16.1-1.5,24.2h0v.3l-.1,1.7c-.2,2.6-.4,5.2-.7,7.8-1.7,2.9-3.3,5.9-4.9,8.9-11.6,22-21.5,45-39.6,63A148.38,148.38,0,0,0,722,626.4c-5.6,7.1-7.2,14.3-1.6,22.2,3.9,5.4,6.5,11.3,3.8,18.1-9.8,24.4-14.6,50.5-30.6,72.7-10.4,14.4-16.8,32-11.6,50.5,3.9,14.1,1.4,27.2-4.6,39.2-10.2,20-15.9,41.1-19.1,63.1-1.3,9.2-3.9,17.6-11.3,24.3-9.1,8.2-16.5,17.3-10,31,1.9,4-.4,8.4-2.4,12.3a85.62,85.62,0,0,0-6.9,19.3h-34.2c-.2-4.5-.5-9-.9-13.4a7.92,7.92,0,0,1,2.3-5.8h0c0-.1,0-.2.1-.2,5.6-24.4,3.5-50.5,15-73.6,13.6-27.5,6.6-61.5,27.7-86.6a5,5,0,0,0,.6-4.6c-4.5-9.4,1.2-16.5,5-24,7.3-14.2,10.8-29.5,9.5-45.2-1.5-18.8,5.5-35.6,10.7-52.7,3.2-10.4,12.9-19.7-.4-29.8-2.3-1.8-1.5-6.6.9-8.9,5.9-6,5.7-13.5,6.4-21,.9-8.7,3.7-17.6,9.7-23.5,11.7-11.4,17-26,23.5-40a48.74,48.74,0,0,1,14.8-18.7c6.7-5,16.3-8.4,8.5-19.8-1.6-2.3.4-6.4,3.2-6,13.4,1.6,20.9-10.2,32.4-13.1,10.6-2.7,16.4-1.3,18.4,5.6A24.11,24.11,0,0,1,781.69,506Z"/><path class="cls-169" d="M597.69,979h-32.2a59.78,59.78,0,0,0-1.6-10.9,10.54,10.54,0,0,1,.7-1.1c.2-.2.4-.5.6-.7,2.4-2.7,5.5-3.3,9.3-2.2.1,0,.3.1.4.1h0c3.6.4,7.4,1.3,10.5-1.7-.1-1.3-.2-2.6-.2-3.8,0-3,.4-5.8,2.4-8.3.3-.3.6-.7.9-1,.1-.1.2-.2.3-.2,1.3.1,2.5.1,3.8.2.8,3.4,1.6,6.7,2.4,10.1v.2h0c.8,5.2,2.1,10.3,2.5,15.5C597.49,976.5,597.59,977.7,597.69,979Z"/><path class="cls-170" d="M569.09,821.3c.3-18.4,6.2-36.4,3.6-55-2.8-27.1-5.6-54.1-8.4-81.2a10.33,10.33,0,0,0-5.7-4.1c-9.8-2.7-17.7,2.8-26.1,6.2-6.3,2.5-13.1,4.8-13.8-5.9-.7-10-9.5-10.4-16.1-13.5-18.3-8-34.7-6.5-48.2,9.5-5.8,9.5,1.3,14.9,7.3,19.3,10.5,7.7,22.8,11.5,35.9,12.9,19.4,2,32.7,14.3,26.2,31.9-9.3,25.1-1.2,49.3-3.9,73.6C533.89,828.6,557.89,831.7,569.09,821.3Z"/><path class="cls-171" d="M454.29,677.4c1.6-.2,3.8.2,4.7-.6,13.4-12.8,28.6-11.5,44.4-5.7,17.4,7.6,35.5,12.5,54.5,13.3,2.1.3,4.1.6,6.2.8-1.7-25.4-3.4-50.9-5.1-76.3-12.6-2.7-25.2-5.5-37.7-8.2-7.7-4.2-3.6-11.2-4-17.1-.2-2.6.2-5.5-2.7-6.7-3.9-1.6-6.2.7-7.1,4-1.6,6-5.7,8.4-11.5,8.7-5.4,3.7-11.8-3.7-17,1.6-7.5,13.1-4.8,28.3-8.3,42.3-3,12.1-4.5,24.2-16.3,31.6-2.7,1.7-3.8,5.1-3.3,8.6C452.19,675,453.29,676.2,454.29,677.4Z"/><path class="cls-172" d="M779.39,540c-.1,2-.2,3.9-.4,5.9h0c-.9,15.1-1.8,30.3-2.7,45.4-.3,4.5-.5,8.9-.8,13.4v.1h0c-2.3,31.5-4.4,63-7.2,94.4-.8,9.4,1.4,19.4-4.3,28.1a25.5,25.5,0,0,0-3.8-.2h0c-8,.5-11.4,7.1-13.3,14-5.7,20.9-23.1,40-10.6,63.9.5.9.2,2.2,0,3.2-5.7,27.3-11,54.7-25.4,79.4-7.6,13-18.1,29.1-14,41.5,4.4,13.4,1.8,21.7-3,32.3-2.5,5.6-3.1,11.6-3.6,17.7h-65.6c1.4-9.1,2.3-18.6,9.1-26,.9-.9,1.1-3.7.4-4.6-14.2-18.5,2.6-27,12.5-37.2a22,22,0,0,0,6.1-12.6c4.2-24.7,7.7-49.2,21-71.7,4.7-7.9,10-19.2,5.7-29.3-9-20.9-3.2-41.1,8.2-56.7,17.1-23.4,21.1-51.3,33.4-76.1,1.9-3.9.7-7-1.4-10.5-11.7-19.6-10.6-20.6,4.9-38.1,10-11.4,24.3-20.2,28.6-35.6,3.9-14,12.9-24.3,21.6-34.8C776.29,543.9,777.79,542,779.39,540Z"/><path class="cls-173" d="M451.09,673.7c30.9-20.3,25.3-52.8,27.9-82.5-7.5,5.2-15,10.3-22.6,15.5-2.6,18-5.5,36-7.8,54.1C448.09,665,445.29,670.4,451.09,673.7Z"/><path class="cls-174" d="M496,589.6c18.8,17.3,10.5-7.3,16.4-10.6,8.8,4.8-4.7,19,8.9,21.6-6.2-8.5-1.1-17.8-1.8-26.7-.3-3.3,3-8.3-2.3-9.7-4.6-1.2-9.3,1.8-9.7,6.4C506.79,579.3,500,583.5,496,589.6Z"/><path class="cls-175" d="M569.09,821.3c-17.6,7.3-33-2.5-49.2-6.3-10.1.8-19.2-3.6-28.9-5.2-1.2,6.7,4,10.7,6.8,15.5,10.2,17,4.3,35.4,4.6,53,.1,7.6-11.5,4-14.9,9.8-3,14,7.8,14.4,15.9,13.6,19.3-2.1,37.7,1,56,6.4,5.8-4.2,3.9-10.7,4.3-16.3C565.69,868.5,567.29,844.9,569.09,821.3Z"/><path class="cls-176" d="M488.29,887.8c15,2.2,23.3,0,19-19.1-3.2-14.1,4.8-29.5-4.7-43.9a100.61,100.61,0,0,0-11.7-15l2.4-35.7c-5.6-1.9-8.2,2.6-11.5,5.4-5.2,6.2-.6,17.6-11.2,21a61.38,61.38,0,0,0-8.6,1.2c-1.3.7-2.7,1.3-4,1.9-4.3.1-8.9-1-12.1,3.2,4.7.7,5.8,3.6,5.7,7.9a325,325,0,0,1-5.7,56.5c-1.6,8.4-9.1,7.5-14.8,9.4-4.9,1.7-9.6,2.9-10-4.8-3.8,4.9-4,8.8,3,10.7,5.5-.9,10.9-1.7,16.4-2.6C456.39,885.1,471.69,894.2,488.29,887.8Z"/><path class="cls-177" d="M483.69,780.2c4.8.4,6.2-4.5,9.7-6.1.7-5-1.7-13-5.8-8.7-11.1,11.5-34.4,14.6-29.6,38.2,1.5.2,3,.4,4.5.7,4.9-5.9,5-15.4,14.2-17.9C480.09,785.7,479.69,780.5,483.69,780.2Z"/><path class="cls-178" d="M289,979h-38.7c-1.9-10.5,3.1-20.8,3.7-31.1.8-12.4-2.2-24.4-1.5-36.8.6-10.4,8.3-12.9,15.1-13.7,6.3-.7,4.8,7.7,6,11.9a20.55,20.55,0,0,1-3.3,18.2c-1.9,2.5-5.5,7.3,1.2,8.2,18.7,2.6,15.8,16.5,16.8,29.1C288.59,969.4,288.19,974.4,289,979Z"/><path class="cls-179" d="M251.29,861.4h0a7.4,7.4,0,0,1-1.6,3.5l-.3.3c-1.8,6.7-5.7,13-4.3,20.2,3.2,16.8.4,33.8,1.5,50.6,1,14.3-2.3,28.7-1.2,43h-4.7c-.4-23-2.5-45.7-3.7-68.1-10-2.2-13.7,12.5-23.2,4.8h0a12.57,12.57,0,0,1,1.8-3.2c2.6-3.5,6.6-6.3,7.4-10.8a8.81,8.81,0,0,0,.2-1.7,4.1,4.1,0,0,0-.1-1.1c2.8-18.9,5.4-37.8,10.1-56.3a6.89,6.89,0,0,1,1.1-1.3,2.09,2.09,0,0,1,.6-.4,5.28,5.28,0,0,1,2.5-.8.6.6,0,0,1,.4.1c.4.1.8.1,1.1.2a14.79,14.79,0,0,1,9.1,6c.3.4.5.8.8,1.2h0a21,21,0,0,1,1.3,2.6h0a17.55,17.55,0,0,1,1.2,3.2C251.09,856,251.79,858.8,251.29,861.4Z"/><path class="cls-118" d="M250.09,852.4c-.2,4.3-.5,8.5-.7,12.8,1.9,3.4,3.8,6.7,5.7,10.1-.3-11.9-.6-23.8-.8-35.7-1-.1-2-.3-3.1-.4C246.69,843.3,247.89,847.8,250.09,852.4Z"/><path class="cls-48" d="M313.19,885.6a38.46,38.46,0,0,0-4.8-.1c-3.6.5-7.5.9-9.2,4.7-.3.7,1.4,2.8,2.6,3.4,4.4,2.3,6.9-.5,9-3.9.8-1.3,1.6-2.7,2.4-4.1Z"/><path class="cls-127" d="M285,673.2c-5.8-7.3-1-15.4-1.8-23.1-11.2-5.2-22.9-7.4-35.2-5.6-2.5,19.2-1.9,38.1,3.7,56.8,12.3-3,8.6-14.4,12.6-21.4C269.69,669.9,279.49,679.5,285,673.2Z"/><path class="cls-180" d="M244.69,787.1c-.8-21.8-1.6-43.5-2.6-68.2-22.2,17.9-42.7,34.6-63.4,51.1-4.5,3.6-2.9,7.7-1.8,11.6,1.6,5.7,2.8,11.4,1.9,17.3,1.8,4.1,4.5,6.7,9.4,5.9,6.2-2.1,4.4-7.5,4.9-12,.3-14.7,9.8-8.2,16.9-7.3,6.9.9,11.8,4.3,14.4,10.8C234,799.3,239.39,793.1,244.69,787.1Z"/><path class="cls-56" d="M235.09,841.9a24.62,24.62,0,0,1,2.6-.2c6.1-6.3,10.1-13.8,11.1-22.6.8-7.1-.9-12.8-8.7-14.9-17.8,2.1-29.5,17-46,21.7-8.3,3.5-9.8-8.1-16.7-7.6-.4,4.4-.7,8.7-1.1,13.1,1.7,10.3-3.8,16.4-12.1,21.4-5.7,3.5-12.7,5.5-16.3,11.9,1.2.2,2.3.5,3.5.7,1.1,1.2,2.8,2.5,4,1.8,10.4-5.4,14.9.2,17.8,9-.1,4.4-.1,8.8-.2,13.3,1.6-2.1,3.1-4.1,5-6.6,4.4,9.5-6.2,22.6,5.9,28.9,6.7,3.5,12.8,13.6,22.9,6.2,2.3-5.5,3-10.4-4.1-13.1-8.7-3.3-10.6-10.5-9.2-18.5,2.8-16.6,1.6-34.1,11.2-49.1,8.8-3.5,16.2-10,25.8-12.6C233.29,830.1,228.89,837.5,235.09,841.9Z"/><path class="cls-181" d="M215.29,687.8c-6.6,3.6.1,9.9-3.3,15.3-17.6-14.4-21.7,6.7-32.1,12.1-6.9-7.1,5.5-17-3.7-23.6-2.1,21.8-2.2,43.5,2,65.1,5.9-8.2,6.3-21.8,21-21.3,3.9-12,13.1-4.2,19.9-5.2-1.7-18.5,9.5-30.1,22.3-40.7-.3-3.6.7-9.3-1.2-10.4-5.2-3.2-5.7,4.7-9.4,5.7C225.79,686.3,223,700,215.29,687.8Z"/><path class="cls-182" d="M193.29,828.9c17.5-2.1,29.1-15.3,43.7-22.7,3.8-3.9,14.6-2,10.5-12.4.1-2.6-.3-5.1-2.8-6.7-8.2-.6-12.2,8.4-20.1,8.6-9.5,2.8-19.3,9.6-27.2-3.4-1.3-2.2-6-2-8.1,1.8-1.3,3,3.4,6.3-.6,9.1C179.09,813.7,181.09,822.1,193.29,828.9Z"/><path class="cls-183" d="M241.39,689.5c-26.8,15.4-28.6,18.8-22.3,40.7C234,720.7,247.59,710.5,241.39,689.5Z"/><path class="cls-116" d="M247.59,793.7c-.2,7-9,6.6-10.5,12.4,12.8,3.1,10.4,12,6.1,19.5-3,5.2-5.1,10.2-5.3,16,4.1,3.6,8.2,7.2,12.3,10.7.4-4.4.7-8.8,1.1-13.1,1.8-15.1,1-30.2-.4-45.3A32.51,32.51,0,0,1,247.59,793.7Z"/><path class="cls-184" d="M199.19,735.4c-16.1-5.7-19-2.7-21,21.3,5.6,1.9,13.3-1.6,17.8-7.9C198.89,744.8,198.79,740.1,199.19,735.4Z"/><path class="cls-185" d="M193.29,828.9c-6.5-7.7-7.8-16.3-4.5-25.7l-9.9-4.2c-.4,6.5-.9,12.9-1.3,19.4C182.49,822.3,180.79,835.9,193.29,828.9Z"/><path class="cls-186" d="M558.09,923.6c-2.8,6.6-2.4,13.1-1.6,19.7.1,1.2.3,2.4.5,3.6.1,1,.2,2,.4,3,.2,1.6.3,3.3.4,4.9-.3,8.1-1.1,16.1-2.2,24.2h-51c-.1-9.4.3-18.8,2.7-28.2,5.9-22.8-1-32.1-24.5-38-10.9-2.7-21.8-5.2-32.9-7.2-7.9-1.4-13.6-7-17.8-11.9-3.6-4.2,6.4-5.1,8.3-9.5,0-.1,0-.1.1-.2,16.5-8,31.4,4.9,47.4,3.8h.6c2.7,15,14,9.7,22.7,9,16.4-1.3,32.3-1.9,45.6,9l2.7,2.4C559,913.4,558.49,918.5,558.09,923.6Z"/><path class="cls-167" d="M570.89,979h-20.5c1.1-8.6,2.3-17.1,3.3-25.7l.2-.2c1.4-1.5,1.3-5,3-6.1a2.94,2.94,0,0,1,2.5-.2c.2.1.4.1.6.2a10.41,10.41,0,0,1,1.2.5c3,5.9,2.7,12.5,4,18.8.1.3.1.7.2,1A16,16,0,0,1,570.89,979Z"/><path class="cls-187" d="M202.79,833.2c-4.6-.1-6.7,2.3-7.2,6.8-2.1,16.4-3.8,32.9-6.6,49.3-1.7,10.3,2.6,19.3,11.2,19.8,9.2.5,2.7,7.8,6.7,9,2.3-.8,4.5-1.6,6.8-2.4,6.7-2.1,13.6-4.1,12.9-13.3-17.4-11.6-17.6-12.5-4.8-29.1,10-13.1,7.8-23.7-6.8-29.7C209.59,841.3,206.69,836.9,202.79,833.2Z"/><path class="cls-59" d="M58.79,979h19.9c-2.5-3.5-8.2-4.6-12.6-6h-1.8c-4,0-7.8.3-8.4,6h2.9Z"/><path class="cls-188" d="M168.59,979c-.2-14.9-1-29.8-2.1-44.7a2,2,0,0,1,.1-.7c.4-3.5.8-7.1,1.1-10.7.3-2.6.5-5.2.8-7.7,9.5,18,2.5,37.6,5.1,56.3.3,2.5.6,4.9.8,7.4h-5.8Z"/><path class="cls-189" d="M171.89,896.2c-8.5,2.2-14.5,6.6-13.8,16.5.2,3.4-2.3,8.5,2.4,9.7s3.4-5.8,6.9-7.3C171.39,909.4,171.49,902.8,171.89,896.2Z"/><path class="cls-56" d="M87.19,941.5h-5.8c-.4,5.9-2.4,12.1,2.9,19.2C88,953.5,87.09,947.4,87.19,941.5Z"/><path class="cls-190" d="M173.39,876.2c.7-19.8.7-19.8-21.8-10.9C149.59,887.3,164.49,875.9,173.39,876.2Z"/><path class="cls-191" d="M764,727.3c-.3,4.2-.7,8.4-1,12.6-3.5,5.3-2.1,11.4-2.7,17.2-2.4,23.1-1.8,46.4-5.5,69.4-.2,1-.3,2-.5,3-.1.4-.1.8-.2,1.1h0c-2.2,30.9-4.5,61.9-6.7,92.8a18.67,18.67,0,0,0-1.8,5.5h0c-.8,4.4-.3,8.9-.8,13.3-1.2,12.2-1.7,24.4-2.4,36.6H685c1-7.5,2.2-14.8,5.6-21.5,5.1-10.4,10-17.8-1-27-2.8-2.4,1-6.9,2.7-10.2,7.9-15.5,13.2-32,21.9-47.4s11.2-34.3,16-51.8c2.8-10.3,5.6-20.8-3.1-30.4-4.1-4.5-3.9-10.2.2-14.7,7.8-8.3,9-19.2,12.6-29.2,2.7-7.6,4.6-15.7,10.6-21.5,3.5-3.4,7.8-7.5,10.9-4.2A17.85,17.85,0,0,1,764,727.3Z"/><path class="cls-142" d="M747.29,923.5c-1.1,18.5-2,37-3.4,55.5H741c1.8-16.6-.1-33.6,4.5-49.9h0A52.23,52.23,0,0,1,747.29,923.5Z"/><path class="cls-172" d="M763,739.9c-7.1,8.3-4,18.5-4.9,27.9-1.9,20.9-2.8,41.9-4.1,62.9.9-.3,1.9-.6,2.8-.8C758.89,799.9,760.89,769.9,763,739.9Z"/><path class="cls-192" d="M1517.19,961.3c-2,.4-4.8,0-4.7,3,.2,3.9,3.9,4.7,6.7,5.6,2.1.7,4.1-.6,4.3-3.3C1523.69,962.3,1520.59,961.7,1517.19,961.3Z"/><path class="cls-193" d="M1600.89,774.8v28.5c-3.4,2.5-10.5-1.9-27-5.6a209.35,209.35,0,0,1-23.2-6.3c-8.3-2.8-18.2-2.1-26.8-10.4,22.2-3.6,42.2-6.8,62.2-10.1.1,0,.2.1.3.1C1591.19,772.3,1596,773.6,1600.89,774.8Z"/><path class="cls-194" d="M1524.79,790.9c25.3,6.8,50.7,13.1,76.1,19.5v12.9c-38.8-8-77.4-17.2-116.5-29.9C1498.79,784.9,1511.59,787.4,1524.79,790.9Z"/><path class="cls-157" d="M1544.09,758.8v2.9l41.8,6.3c8.4-11.6,4.5-25.5.3-35.3-3.5-8.3-19-7-29.1-7.8-8.7-.7-7.6,8.6-8.2,14.7-.4,4.3-.6,8.5-.9,12.8C1556.59,760.5,1542.69,755.1,1544.09,758.8Z"/><path class="cls-195" d="M1515.29,750.4c3.5,4.5,8.5,3.5,13.2,3.7,16.9-2.3,13.6-15.5,14.5-26.4,1-12.2-8.7-11-16.1-13.1-23.6-6.6-29.4-2.5-26.5,18.3,1.5,10.7,11.7,9.4,17.7,13.8.8.6,7.4-.6,2,3.5C1519,751,1516.89,750.4,1515.29,750.4Z"/><path class="cls-195" d="M1544.09,758.8c4.2.3,8.5.6,16.7,1.1-6.5-3.7-9.7-5.6-12.9-7.5-4.9,5.1-10.9,1.6-16.4,2.1C1534.59,759.3,1539.79,757.7,1544.09,758.8Z"/><path class="cls-196" d="M559.89,947.4c2.2,6.5-5.6,15.8,5.5,19.9,3.2-1,6.3-2,9.5-3.1.3-3.1.3-6.3,1-9.3,3.7-16.3-3.4-16.9-15.4-10.8-1,.6-1.5,1.3-1.3,2S559.59,947.3,559.89,947.4Z"/><path class="cls-197" d="M585.29,962.5c4.9-3.5,3-8.7,3.4-13.3-2.9-2.4-.1-7.8-4.6-9.1-2.3-.6-3.9,1.7-3.6,3.8C581.29,950.3,574.49,958.7,585.29,962.5Z"/><path class="cls-175" d="M559.89,947.4c.2-1.1.3-2.2.5-3.3-5.6-6.3-.8-13.8-2.4-20.5-4.6,9.4-3.8,19.7-4.4,29.7C555.79,951.3,557.79,949.3,559.89,947.4Z"/><path class="cls-198" d="M558,684.3c-17.6-6.8-35.8-10.9-54.5-13.3,4.5,4.4,14,3.3,10.8,15.6-2.5,9.9,7.9,8.8,14.9,6.6C538.69,690.1,546.79,682.1,558,684.3Z"/><path class="cls-199" d="M475.89,783.5c-12.4,1.9-14.2,10.6-13.5,20.9,3.2.4,6.3.8,9.5,1.1C475.79,798.6,480.79,791.9,475.89,783.5Z"/><path class="cls-200" d="M475.89,783.5c-1.3,7.3-2.6,14.7-3.9,22,14-3.8,8.7-16.4,11.7-25.2C478.69,775.6,479.09,783.8,475.89,783.5Z"/><path class="cls-201" d="M202.79,833.2c1.8,8.1,1.3,18.3,15,14.3,2.7-.8,5.8.8,5.8,3.9,0,6.7,1.7,14.3-4.6,19.3-3.7,2.9-8.1,4.6-9.6,9.9-4.4,15-2,18.3,17.2,21.6,1.9-20.3,9.3-39.8,8.5-60.4-1.7-6.9,5.2-16.7-2.2-20.2-6.9-3.3-15,2.9-21.6,7.7C208.89,831.3,205.69,832,202.79,833.2Z"/><path class="cls-185" d="M189.39,794c3.3-.5,8-.9,8.8,2.1,6.5,23.8,16,5.3,24.4,2,.9-.4,1.4-1.6,2.1-2.4,1.4-5.2,2.6-10.3-5.2-11.6-4.2-.7-8.5-1.3-12.2-3.1C192.39,773.7,187.59,779.3,189.39,794Z"/><polygon class="cls-2" points="1090.39 177.5 1015.89 146.6 978.69 177.41 992.49 176.91 1019.69 163.5 1061.19 175.5 1090.39 177.5"/><polygon class="cls-5" points="567.79 143.21 511.39 117.61 509.29 139.41 567.79 143.21"/><polygon class="cls-59" points="22.89 979 -2.31 979 -8.91 720.11 -9.11 714.61 13.29 713.8 13.29 714.3 13.49 719.4 15.69 779 15.79 782.5 19.79 895.21 19.89 896.61 19.99 899.5 20.19 906.11 20.29 909.11 21.09 931.21 22.89 979"/></g></svg>