<svg xmlns="http://www.w3.org/2000/svg" xmlns:xlink="http://www.w3.org/1999/xlink" viewBox="0 0 1600 900"><defs><style>.cls-1{opacity:0.56;}.cls-2{fill:#a2aead;}.cls-3{fill:#808f96;}.cls-4{fill:#63727a;}.cls-5{fill:#808890;}.cls-6{fill:#bcc6cb;}.cls-7{fill:#aeb2b0;}.cls-8{fill:#7f8b92;}.cls-9{fill:#5c676c;}.cls-10{fill:#d8ddde;}.cls-11{fill:#7e7a6a;}.cls-12{fill:#6b685c;}.cls-13{fill:#757972;}.cls-14{fill:#192d32;}.cls-15{fill:#162b2e;}.cls-16{fill:#172f35;}.cls-17{fill:#233a41;}.cls-18{fill:#243c41;}.cls-19{fill:#263b3f;}.cls-20{fill:#21383e;}.cls-21{fill:#152c31;}.cls-22{fill:#1b3036;}.cls-23{fill:#253e42;}.cls-24{fill:#647475;}.cls-25{fill:#2e3837;}.cls-26{fill:#2c424b;}.cls-27{fill:#8e9a98;}.cls-28{fill:#809499;}.cls-29{fill:#809598;}.cls-30{fill:#83989d;}.cls-31{fill:#818381;}.cls-32{fill:#7f9398;}.cls-33{fill:#7d9096;}.cls-34{fill:#809194;}.cls-35{fill:#74878e;}.cls-36{fill:#7b9094;}.cls-37{fill:#7d8f94;}.cls-38{fill:#899596;}.cls-39{fill:#788989;}.cls-40{fill:#79786a;}.cls-41{fill:#323c3d;}.cls-42{fill:#b3bab6;}.cls-43{fill:#313c43;}.cls-44{fill:#85959c;}.cls-45{fill:#2b383d;}.cls-46{fill:#2b3941;}.cls-47{fill:#98a6ad;}.cls-48{fill:#a9b0aa;}.cls-49{fill:#5f6865;}.cls-50{fill:#3f494b;}.cls-51{fill:#3a4643;}.cls-52{fill:#595c59;}.cls-53{fill:#6c6b5e;}.cls-54{fill:#6b685a;}.cls-55{fill:#605e54;}.cls-56{fill:#7e8079;}.cls-57{fill:#808076;}.cls-58{fill:#818079;}.cls-59{fill:#818980;}.cls-60{fill:#55574f;}.cls-61{fill:#5f6358;}.cls-62{fill:#686a62;}.cls-63{fill:#53544e;}.cls-64{fill:#bfc4c4;}.cls-65{fill:#2f4243;}.cls-66{fill:#93a3a3;}.cls-67{fill:#97a4a6;}.cls-68{fill:#33474a;}.cls-69{fill:#2f4141;}.cls-70{fill:#32464a;}.cls-71{fill:#96abb1;}.cls-72{fill:#66777f;}.cls-73{fill:#2f4246;}.cls-74{fill:#91a2a5;}.cls-75{fill:#182e31;}.cls-76{fill:#1e3134;}.cls-77{fill:#374b51;}.cls-78{fill:#90a4aa;}.cls-79{fill:#22363a;}.cls-80{fill:#21383d;}.cls-81{fill:#30474c;}.cls-82{fill:#1f353a;}.cls-83{fill:#272928;}.cls-84{fill:#303535;}.cls-85{fill:#495554;}.cls-86{fill:#566566;}.cls-87{fill:#415253;}.cls-88{fill:#2e2f2c;}.cls-89{fill:#a5afa8;}.cls-90{fill:#a7b3ac;}.cls-91{fill:#869090;}.cls-92{fill:#858c89;}.cls-93{fill:#9daba7;}.cls-94{fill:#74828a;}.cls-95{fill:#2b373c;}.cls-96{fill:#6e7d83;}.cls-97{fill:#33484d;}.cls-98{fill:#a6b4bd;}.cls-99{fill:#6a7b7f;}.cls-100{fill:#6f7b7e;}.cls-101{fill:#30464a;}.cls-102{fill:#a1afb4;}.cls-103{fill:#56656d;}.cls-104{fill:#69767e;}.cls-105{fill:#455158;}.cls-106{fill:#45545d;}.cls-107{fill:#939b97;}.cls-108{fill:#aeb3ad;}.cls-109{fill:#a6abaa;}.cls-110{fill:#686b5e;}.cls-111{fill:#2a3030;}.cls-112{fill:#333e3e;}.cls-113{fill:#737e83;}.cls-114{fill:#7c888b;}.cls-115{fill:#778186;}.cls-116{fill:#969893;}.cls-117{fill:#5c5c52;}.cls-118{fill:#8d8e85;}.cls-119{fill:#63675d;}.cls-120{fill:#56584e;}.cls-121{fill:#646156;}.cls-122{fill:#3b3c33;}.cls-123{fill:#75776f;}.cls-124{fill:#4d4e41;}.cls-125{fill:#46463b;}.cls-126{fill:#8d8d84;}.cls-127{fill:#727265;}.cls-128{fill:#313535;}.cls-129{fill:#a3a8a3;}.cls-130{fill:#91918a;}.cls-131{fill:#5b5a52;}.cls-132{fill:#66675e;}.cls-133{fill:#656860;}.cls-134{fill:#9fa399;}.cls-135{fill:#999995;}.cls-136{fill:#a0a29d;}.cls-137{fill:#555551;}.cls-138{fill:#5f5c51;}.cls-139{fill:#615f54;}.cls-140{fill:#4a493d;}.cls-141{fill:#637176;}.cls-142{fill:#5c6a6e;}.cls-143{fill:#7f817c;}.cls-144{fill:#252c2b;}.cls-145{fill:#6e7a7d;}.cls-146{fill:#232d2d;}.cls-147{fill:#1c2f33;}.cls-148{fill:#a0aeb4;}.cls-149{fill:#616660;}.cls-150{fill:#656663;}.cls-151{fill:#4a4a45;}.cls-152{fill:#9ca39e;}.cls-153{fill:#242928;}.cls-154{fill:#141918;}.cls-155{fill:#637270;}.cls-156{fill:#323734;}.cls-157{fill:#4c5554;}.cls-158{fill:#293137;}.cls-159{fill:#8c969a;}.cls-160{fill:#7e858b;}.cls-161{fill:#283033;}.cls-162{fill:#818883;}.cls-163{fill:#242f2f;}.cls-164{fill:#979fa2;}.cls-165{fill:#a2adb0;}.cls-166{fill:#273232;}.cls-167{fill:#9b9d96;}.cls-168{fill:#36434a;}.cls-169{fill:#a6afa4;}.cls-170{fill:#1d2323;}.cls-171{fill:#888b81;}.cls-172{fill:#2d373c;}.cls-173{fill:#9fa29a;}.cls-174{fill:#6e7170;}.cls-175{fill:#8b9083;}.cls-176{fill:#979990;}.cls-177{fill:#797e7a;}.cls-178{fill:#8c9088;}.cls-179{fill:#abaea6;}.cls-180{fill:#616058;}.cls-181{fill:#747368;}.cls-182{fill:#aaaea6;}.cls-183{fill:#545447;}.cls-184{fill:#4d4c43;}.cls-185{fill:#6d6f69;}.cls-186{fill:#181c1d;}.cls-187{fill:#686961;}.cls-188{fill:#a0a49c;}.cls-189{fill:#3c3e37;}.cls-190{fill:#494a41;}.cls-191{fill:#23292d;}.cls-192{fill:#353833;}.cls-193{fill:#131617;}.cls-194{fill:#131616;}.cls-195{fill:#596464;}.cls-196{fill:#545854;}.cls-197{fill:#525751;}.cls-198{fill:#5f6659;}.cls-199{fill:#21261f;}.cls-200{fill:#565a52;}.cls-201{fill:#43433a;}.cls-202{opacity:0.45;isolation:isolate;fill:url(#linear-gradient);}.cls-203{fill:#fff;}</style><linearGradient id="linear-gradient" x1="0.62" y1="467.47" x2="1624.12" y2="467.47" gradientTransform="matrix(1, 0, 0, -1, 0, 902)" gradientUnits="userSpaceOnUse"><stop offset="0.22" stop-color="#55a4db"/><stop offset="0.65" stop-color="#252064"/><stop offset="0.93" stop-color="#252064"/></linearGradient></defs><title>backround1</title><g id="Layer_1" data-name="Layer 1"><g class="cls-1"><path class="cls-2" d="M1603.52,297.63v68.7h-.5c-1.8.1-3.7.1-5.5.1a661.37,661.37,0,0,1-66.1-21.4c-33.2-12.7-67.4-22.5-100.8-34.7-5.3-1.9-11.7-5.8-13.4,4.2-1.2,3.4-.5,8-1.8,11.4a6.79,6.79,0,0,1-2.5,3.1,9.89,9.89,0,0,1-4.1,1.3h-.4a2.77,2.77,0,0,0-.9.1c-5.8-17.7-9.1-35.2,3.2-50-11.2,8.1-8.7,21.5-8.9,34.3-.6,45.2,1,90.4-.3,135.5-1.3,44.7-1.1,89.3-2.1,134-.9,38.7-.6,77.5-.5,116.2.1,26.9-1.4,53.8-.5,80.8.9,27.9-2.3,55.9-4.1,83.9-.2,1-.4,2-.6,3.1h-19a74.53,74.53,0,0,0-1.2-17.6c.2-18.1-1.3-36.1-.9-54.2,0-.4.1-.8.1-1.1,0-.5.1-.9.1-1.3h0c.1-.9.1-1.7.2-2.6v-.6c2.9-22.6-.2-45.2,1.2-67.8a28.25,28.25,0,0,0,.2-2.9c.1-1,.2-2.1.2-3.1v-.4c0-.5.1-1.1.1-1.6v-1.2h0c.2-15.7-.2-31.3-3.3-46.8a13.55,13.55,0,0,1-.2-2h0v-.2h0a7.61,7.61,0,0,1,.3-2.1,6.37,6.37,0,0,0,.2-.7h0c8.4-20.2,2.7-40.5.5-60.8v-.9a4.87,4.87,0,0,1,.1-1.2c.1-.6.2-1.2.3-1.7v-.1a4.87,4.87,0,0,1,.4-1.1,36.28,36.28,0,0,0,3.6-20.1c-1.7-18-.6-36,1-53.9,0-.6.1-1.3.1-1.9.1-1,.1-2.1.2-3.1a3.75,3.75,0,0,1,.1-1c.1-.7.1-1.4.2-2.1v-.6c.1-1.6.2-3.2.4-4.8.4-11.5,3-23.1.1-34.6-1-8.2-.4-16.5.5-24.7v-.7c0-.6.1-1.2.1-1.8.1-.9.1-1.9.2-2.8.2-1.9.3-3.7.4-5.6h0c.3-5.4.3-10.9-1.2-16.3a97.78,97.78,0,0,1,.3-22.3v-.1a9.7,9.7,0,0,1,.1-1.7c0-1.2.1-2.4.2-3.5.2-2.7.4-5.5.7-8.2h0c.9-9.4,1.8-18.7-.2-28.1a85.65,85.65,0,0,1,.1-19.6v-.1c0-1,.1-2,.1-3.1V335c.2-3.1.5-6.3.8-9.4h0c.7-7.4,1.1-14.9-.6-22.3-.4-12.7-2.3-25.2-2.1-37.9.1-1.1.2-2.1.3-3.2l.3-3.3v-.2c0-.4.1-.9.1-1.3s.1-1,.1-1.5c.3-4.7.5-9.4.9-14a7.57,7.57,0,0,1,.1-1.5h0c.4-7.9,1.3-13.2,1.5-17.1.6-10.1-2.5-10.9-25.5-22-29.6-14.2-60.1-26.6-90.2-40-64-28.7-128.2-56.8-192-85.8-4.5-2-11-2.8-10.3-10.3l29.2,1.9c7.3,3.4,15.4,4.1,22.8,7.5,70.4,32.4,141.5,63.3,212,95.7,13.3,11.4,30.2,15.9,45.5,23.4,18.7,9.3,34.2,24.2,54,32.1,41.8,16.8,83.3,34.4,125.1,51.4C1569.32,283.93,1586.12,292.23,1603.52,297.63Z"/><path class="cls-3" d="M848.42,164.83c-44.7-20.9-89.9-41-134.3-62.4-47.9-23.3-97.6-42.9-143.7-69.8l-22.7-1.5c-3.5,4.3-6.8,3.7-9.7-.6-8.7-.6-17.3-1.1-26-1.7-5.6,5.9-5.8,12.9-4,20.3,2.1,5.5,6.8,8.1,11.9,9.4,7.6,1.9,11.2,7.1,14,13.6a5.48,5.48,0,0,0,4.2,1.5c5.6-8.8,13.2-10,22.3-6.2,6.6,2.8,13.2,4.6,20.5,3.6,5.1-.7,9.9.6,13.4,4.4,14.1,15,34.2,20.4,50.5,31.9,4.5,3.2,8.9,3.6,13.5.3,7.9-5.7,14.3-.7,20.9,3,3.7,2.1,5.5,4.1,2.1,8.8-13.3,18.5-11.6,25.7,9.1,36.4,5.1,2.6,6.7,3.4.8,6.5-1.2.6-1.3,2.9-1.1,4.5.9,7.4,30.1,20.1,35.4,14.7,7.6-7.8,9.6-2.7,12,3.5,10.9,28.4,18.7,33.3,47.8,26.6,7.6-1.8,12.1,3.9,18.5,3.3,7.2-2.5,6.4-9.6,8.7-14.9,8.5-6.3,13.8,2.4,20,4.8,18.6,7.5,22.8,5.5,25-14.5.6-5.9,2.1-11.6,1.9-17.6C858.22,166.63,852.32,167,848.42,164.83Z"/><path class="cls-4" d="M1384.22,241.83c3.8-31.2,3.9-31.3-24.4-43.9q-143.25-63.75-286.4-127.5c-3.3-1.5-7.6-1.7-9.6-5.5-14-3.2-27.5-11.2-42.7-12.2-11.8,22.7-9.5,47.3,12.6,56.9,7.4,3.2,14.9,6,22.3,9.3,49.2,19.8,97.2,42.3,145.8,63.3a11.56,11.56,0,0,0,4.9,0,28.31,28.31,0,0,0,7.2-3.5c24.9-19.4,48.6-15.2,74.5-.2,22.8,13.2,47.6,23.3,71.9,33.7,10.9,4.6,19.3,9.4,18.2,22.9C1378.52,238.23,1379.92,241.73,1384.22,241.83Z"/><path class="cls-5" d="M1057.32,116.33c-2.7-1.6-5.4-3.3-8.2-4.6-35.2-16.3-30.7-15-27.9-58.9-5.4-.4-13.6,8.5-19,8.1-8.2,2.9-15.1,7.5-22,12.9-28.1,21.7-56.8,42.6-85.6,63.5-9.3,6.8-22.5,11.5-22.9,26.4,10.3,7.1,23.1,7,33.8,11.7-6.1,1.5-10.6,4.5-9.7,12,3,2.2,6,1.5,9.1.3,20.8-8.4,62.9,2.1,77.5,19.3,3.3,1.4,6.1.5,8.6-1.7,7.1-9,17.3-14,26.6-20.2-2.4-21.4.6-42.8-.3-64.1-.5-11.2,3.7-12,12.3-8.5,7.4,3,14.1,8.1,22.6,8.2A6,6,0,0,0,1057.32,116.33Z"/><path class="cls-6" d="M510.72,51.63c.4-7.6,2-4.4,2.4-12-4.3-.3,5.3-32.3,1-32.6-29.9,37.7-74.9,96.3-104.7,134.1-2.6,3.3-4.2,7.3-6.2,11,3.9,7.8,10.6,7.2,17.6,6.1a23.25,23.25,0,0,0,10.4-7.3c26.3-30.9,51.7-62.7,78.3-93.4A6.4,6.4,0,0,0,510.72,51.63Z"/><path class="cls-7" d="M871.32,162.33c19.3-21.3,45-34.4,67-52.3,20.8-16.9,42.5-32.7,63.8-49l-13-.9c-30.9,27-65.8,48.5-98.1,73.6-13.9,10.8-28.4,20.8-42.7,31.1,3.2,2.3,6.4,4.6,9.5,6.8C865.62,173,869.22,168.63,871.32,162.33Z"/><path class="cls-3" d="M537.92,30.53c.6,4.6.5,11.2,6,11.2,5.3-.1,2.6-6.8,3.8-10.5C544.42,30.93,541.12,30.73,537.92,30.53Z"/><path class="cls-8" d="M399.32,154.83c-52-22.6-104-45.3-156.3-67.5-4.4-1.9-11-10.6-15.6.7-2,9.4-7.8,18-6.1,28.2,15.6,14.3,36.9,17.1,54.7,27.1,1,.5,1.9,1,2.9,1.4,40.8,18.7,41.5,20,37.3,64.7-.5,4.9-1.1,9.6-2.9,14.2-1.1,14-.5,27.6,7.9,39.7,10.4-7.1,11.7-20,19.5-29.3,18.1-21.7,35.1-44.5,52.6-66.7C396.22,163.63,400.32,160.43,399.32,154.83Z"/><path class="cls-9" d="M399.32,154.83c-21.3,23.9-40.7,49.4-59.8,75.1-7.5,10.1-18.7,18.3-16.1,33.1a91.68,91.68,0,0,0-.2,55.1c12.7-.3,18.4-9.6,24-18.7,12.7-20.6,15.7-44.6,23.1-67.1,1.6-4.4,2.1-9.2,4.8-13.2,12.2-15.6,24.5-31.1,37.1-46.4,4.1-5,11.5-8.7,9.5-17.2A41.55,41.55,0,0,1,403,152,35.83,35.83,0,0,1,399.32,154.83Z"/><path class="cls-10" d="M223.12,117.13c3.3-9.5,4-19.3,4.3-29.2-27.9,44-50.3,90.9-76,136.1s-49.8,91.2-74.7,136.8c-12.5,22.9-25.2,45.6-37.9,68.4.9,3.4,1.8,6.8,2.7,10.1,8.4.3,9.9-7.1,13-12.1,10.8-17.1,18.5-35.9,29.7-52.7q67.8-121.2,135.6-242.3c1.8-3.3,3.8-6.5,4.4-10.3A8,8,0,0,0,223.12,117.13Z"/><path class="cls-11" d="M223.12,117.13a4.28,4.28,0,0,0-.8,2.9c-.6,14.1-10,24.5-16.4,35.7-39.2,68.4-77.2,137.5-115.8,206.3-2.3,4.1-4.1,8.9-8.8,11.2-13.3,22-26.6,44.1-39.8,66.1q-22.5,41.4-45.1,82.9c-11.4,20.9-22.7,41.7-34.2,62.4-5.2,9.3-5.3,15.8,7.2,18.4,10.5,2.2,20.8,5.6,31.2,8.4,19.3,1.5,29.7-13.1,40.9-24.4,10-10,18.2-21.2,33.4-23.6,6.9-1.1,8.5-7,7.3-12.4-3.3-14.3,4.2-22.4,13.7-31.7,12.1-11.7,26.3-22.8,29.4-41.3.7-4.3,3.9-7.9,7.5-10.3,18.7-12.7,23.9-35.3,38.1-51.3,1.3-1.5,1.8-3.9,2.4-5.9,1.2-5.1,2.9-10,7.2-13.5,11.8-18.5,26.8-34.7,39-53,7.6-11.4,17.9-20.8,23.4-34.1,3.7-8.9,15.2-8.8,24-11.2,18.9-5.2,37-12,49.3-28.6,4.7-15.2-3.3-29.9-1.5-45,.7-11.9.2-23.9,3.1-35.6,2.5-20.2-1.8-35.8-25.1-41.2-5.4-1.3-12.5-2.4-16.2-8.5C259.42,130.43,241.52,123.23,223.12,117.13Z"/><path class="cls-12" d="M170.52,408.73c-14.1,18.2-21,41.5-40.7,55.9-5.9,4.3-8.3,11.1-10.7,18.7-5,16-17.8,27.8-30.9,37.5-9.7,7.2-13,14.9-10.7,25.8,1.6,7.6,5.2,13.3-9,13.1-9.3-.1-19.5,9.4-25.4,18.1-10.8,16-25.1,26.5-42.5,33.7,8.5,2.1,10,7.9,9.5,15.8-.5,6.9.7,13.9,1.1,20.8,4.3,8-6.2,22.9,11.5,24.8a7.2,7.2,0,0,0,4.5-1.3c17.4-19.5,37-37.2,50.9-59.7,3.5-6.7-2.5-14,1.6-22,.1-.9,1.2,1.2,0,1.7-2.9,1.2-1.9,4.9-1.1,6.8,2.8,6.5,7.3,4,11.6,1.3,3.6-3.2,6.4-7.3,10.2-10.4,18.1-14.9,26.9-33.1,19.6-57.4,6,8.2-5,22.3,11.4,25,13.7-5.5,20.8-16.9,27.1-29.2,12.8-18.2,21.9-37.5,17.5-60.6a63.33,63.33,0,0,1,2.4-32.6C179.42,424.83,182.82,414.33,170.52,408.73Z"/><path class="cls-13" d="M26,671.73c-14.6-1.9-10.4-15.5-14.8-23.7-.4,17.1-.7,34.2-1.1,51.2,1.5,8.5-4.5,16.2-3,24.7,1.2,6.2.4,12.5,1.6,18.6,2.2,14.3-3.1,30.5,10.5,42.1,7.8,5,12.1-4.9,19.1-4.7,3.4,6.2,2,12.2.3,18.5-5.7,1.7-12.7-6.2-17.3,2.4-2.9,14,5,24.9,10.7,36.3,1.7,3.4,4.9,6.1,9.2,5.5,5.2-.8,6.3-5.3,7.2-9.6,1.3-6.3.9-12.9,3.4-19,2.5-8.9,3.4-18,1.6-27-2-9.9-.4-19,3.5-28a12.15,12.15,0,0,0-2.2-4.4c-6.4-13.5-.4-27.3-1.1-40.9-.1-13.4-.7-26.9-1.7-40.2-1-12.9,2.7-22.5,10.4-32.4,5-6.5,9.1-9.1,16.5-5.7,4.3-8.2,4-15.7-3.4-22.1-16.2,19.7-37,35.6-49.4,58.4,4,2.3,7-1.3,11.8-2.3.2,8,2.9,15.4.9,23.9C23.72,691.83,28.32,679.83,26,671.73Z"/><path class="cls-14" d="M1378,853.53a10.55,10.55,0,0,0-.6-2.4c-.1-18.2-.2-36.5-.4-54.7-1.4-.8-2.8-1.6-4.2-2.3h-.1c-17.4-9-37-10.8-55.6-15.7l-17.4-4.5c-34-8.7-68.2-16.6-102.3-24.6h0c-19.8-4.7-39.6-9.4-59.3-14.4h0c-9.2-2.3-18.4-4.7-27.6-7.1-1.3-.3-2.6-.7-4-1.1-.5-.1-1.1-.3-1.6-.4-23.1-5.6-46.3-10.5-69.2-16.8-5.8-1.6-11.5-3-17.5-1.1-.4.3-1,.5-1.5.8h0l-.9.6c-1.1.8-1.9,1.8-1.3,3,8.6,16.1,3.5,32.6,1.9,49.1-.7,7.5-1.6,15-.7,22.6.6,5.1,2.3,9.8,8.7,9.6,4.2-.2,5.5-2.5,5.9-5.4.6,5.4,3.3,10,11.1,13.4a3.55,3.55,0,0,1,.9.4,30.05,30.05,0,0,0,3.2,1.1c1.5.4,3.1.7,4.6,1,17,3,35.8,2.1,47.3,17.6h0c.1.1.2.2.2.3a22,22,0,0,1,1.9,3c.3.5.5.9.8,1.4,43.3,11.4,87.5,18.9,131.1,28.7,7.3,1.6,14.6,3.3,21.9,5h.1c12.2,2.8,24.4,5.5,36.7,8.1h87c0-.5.1-1,.1-1.5C1377.72,862.43,1378.72,857.93,1378,853.53Zm-346.5-79.8a28.1,28.1,0,0,0,.1-2.9h0c.1-2.7.1-5.7-.1-9a37.23,37.23,0,0,1,.2,10h0A13.66,13.66,0,0,1,1031.52,773.73Z"/><path class="cls-15" d="M1302.22,868.43h-276.3a179.65,179.65,0,0,1,6.1-52.5c.2-.2.4-.3.6-.5a3,3,0,0,1,.7-.5,16.25,16.25,0,0,1,5.2-2.4,21.77,21.77,0,0,1,6.2-.6h0a64.77,64.77,0,0,1,10.4,1.8c14.9,3.3,29.6,8,44.5,11.5l4,.9C1169.72,840.53,1235.92,854.83,1302.22,868.43Z"/><path class="cls-16" d="M1373.22,662.33c.5,0,1.3.1,1.6-.2,8.3-8.1,7.8-52.7-.7-61.5-3.9-4.9-9.4-6.5-15.2-8.4-84.3-27-169.1-52.3-253.1-80.1-11.9-2.9-23.4-7.3-35.1-10.8-6.3-1.8-12.3-3.6-18.6-.6-11,21.3-11.2,43.4-4.9,65.9,11.2,10.8,26.5,11.5,40.2,15.5,88.4,25.8,176.7,52.1,265.3,77.6C1359.42,661.83,1366,664.13,1373.22,662.33Z"/><path class="cls-17" d="M1383.92,358.53c0-6.2.1-12.3.1-18.5-5.4-9.3-15.8-11.1-24.5-14.7q-117-48.15-234.4-95.7c-7-2.8-13.7-6.8-21.7-5.6-20,7.1-40,14.1-56.9,27.5-3.8,3-10.9,3.4-8.5,11.1,15.6,12.5,35,16.7,53,23.6q134.1,51.3,267.4,104.7c3,1.2,6.1,2.1,9.2,3.2,11,3.8,16.5.7,15.8-11.6C1383.12,374.53,1385.82,366.53,1383.92,358.53Z"/><path class="cls-18" d="M1384.22,303.33l-.9-39.3c-3-5.4-7.6-8.8-13.3-11.2-51.5-22.2-102.6-45.5-154.2-67.5a42.09,42.09,0,0,0-12.5-2.9c-5.9-2.3-11.6-2.3-17.2.9-18.7,10.9-39,18.3-58.6,27.3-6,2.8-13.7,5.1-13,14.3,3.5,4.6,9.1,5.7,14,7.7q121.65,49.35,242.8,100c8.5,3.5,13.1,4.3,12.5-6.8C1383.62,318.33,1386.32,310.83,1384.22,303.33Z"/><path class="cls-19" d="M1377.52,792.63c2.8-23.7,1-47.5,1.5-71.2-6.8-9.4-17.9-9.4-27.5-12.1-30.2-8.4-60.6-16-90.7-24.7-30.3-7.8-60.3-16.9-90.7-24.6-5.3-1.3-10.4-2.8-15.9-2.1-7.8,1.9-9.2,6.5-5.6,13.2a24.89,24.89,0,0,0,7.6,8.2c6.7,4.9,11.3,11.4,6.7,19.2-4.9,8.3-13.2,7.8-21.3,3.9-7.9-3.7-15.6-3.1-22.8,2.1,5,9.8,18.1,15.1,16.4,28.7,18.4,10.8,39.9,11,59.7,16.9a4.93,4.93,0,0,0,2.9-1.1c4.8-4.3-1.8-16.6,9.5-15.4,9.2,1,20.1,1.9,25.1,11.8,4.7,9.2,8.5,12,17.6,3.7,7.2-6.6,18.4-3.4,23.9,1.8,8.7,8.1,22.3,11.2,26.3,24.1,22.4,7.3,45.6,11.3,68.1,18C1371.42,794,1374.52,794.73,1377.52,792.63Z"/><path class="cls-20" d="M1383.12,423.33c.1-7.3.2-14.6.4-22-12.7-11.7-29.7-14.4-44.9-20.5q-91.5-36.6-183.7-71.8c-35.2-13.5-70.1-27.7-105.8-40-11.2,3-6.6,11.9-6.5,18.6.1,6.2,2.8,11.6,11.1,10.4,6-.9,5.7,5.6,9,7.9,11.8,4.9,6.4,14.4,6.1,22.6a8.31,8.31,0,0,0,3.8,2.3c3.4.5,7.9,0,8.6-2.9,2.5-11.8,8.9-3.1,13.3-2.7,2.8.2,2.7,1.2-.3,10.2a4.45,4.45,0,0,0,.7,3.1c15.7,13.4,36.3,16,54.6,23.5,22.4,9.3,45.5,16.8,68.1,26,47.9,16.9,95.3,35,142.9,52.7C1381.92,448.53,1383.72,447.33,1383.12,423.33Z"/><path class="cls-21" d="M1379,714.43c0-13.2,0-26.5.2-39.7.1-4.8-1-8.3-6.2-9.3-25.7-11.3-53.3-16.9-80.1-24.8-56.9-16.9-114.1-32.9-170.9-49.9-5.1-1.5-10.2-3.6-15.8-3.2-13,10-16.1,28.6-6.3,41.7a148.93,148.93,0,0,1,10.6,15.7c5.5,6.1,13.5,6.9,20.6,8.2,44.8,8.6,88.2,22.4,132.2,34.2,33,8.9,66,17.9,99.1,26.5C1367.82,715.23,1373.42,719.33,1379,714.43Z"/><path class="cls-22" d="M1374.22,597.53c9.2.6,6.7-6.4,6.8-11,.5-21.7.7-43.5,1-65.2-3.2-5.6-8.8-7.7-14.4-9.7-36.7-12.8-73.7-25-110.3-38a32.77,32.77,0,0,0-11.2-1.7c-12.1.9-22.2,7.3-32.9,11.9-8.7,3.7-12.4,11.3-13,20.4-.9,12.8-.5,25.5,2.6,38,10.8,8.9,24.5,10.4,37.2,14.1C1284.82,569.43,1328.62,586.43,1374.22,597.53Z"/><path class="cls-23" d="M1382.52,513.33a2.14,2.14,0,0,1,.3-1.9c-2.6-12.1,2.3-24.1.1-36.2.2-8.4.3-16.8.5-25.1-9.1-9.3-22-11-33.3-15.3-44.6-16.7-89.3-33-133.9-49.3-2.3-.8-4.6-1.5-7.1-.6-5.8,14.6-4.1,19.1,9.9,23.5,4.8,1.5,9.1,3.4,11.8,7.7,3.6,5.8,2.9,11-4.7,11.6-8.8.6-17.3,3.8-26.7-1.2-8.2-4.3-18.6-4.9-28.2-2.1-2.6,9.7,5.6,10.5,11,11.7,9.9,2.2,13.1,7.8,12.4,17,10.8,8.8,24.4,11.5,37,15.1,46.2,12.9,90.7,30.6,136.3,45.1C1372.62,514.83,1377.62,518.93,1382.52,513.33Z"/><path class="cls-24" d="M1603.52,364.83v15.3c-16.1,8.9-13.7,24.2-12.8,39.2.5,8.1,2.6,16.6-3.4,23.6a1.21,1.21,0,0,1-.5.5l-.3.3a6.08,6.08,0,0,1-4.9-.8c-.1-.2-.2-.3-.3-.5h0a8,8,0,0,1-.8-1.6c-7.9-15.6-2.5-32.9-5.6-49.9-8.1,2-16.8,3.4-25.4,1.1-3.9,12.4,2.2,25.9-8.5,35.5a4.19,4.19,0,0,1-1.6-.1h0c-.2-.1-.5-.1-.7-.3a3.59,3.59,0,0,1-1-.7,4.44,4.44,0,0,1-.8-1.1v-.1c-3.1-10.4-3.5-21.1-3.6-31.8-.3-14.7-12.9-12.8-21.3-14.6-10.5-2.2-7.6,7.7-8.9,13.2-1.6,6.9.4,15.7-6.4,19.8a11.08,11.08,0,0,1-1.9.9,23.15,23.15,0,0,1-3.4,1,10.88,10.88,0,0,1-6.7-2.3,4.71,4.71,0,0,1-.6-1.5c0-.2-.1-.5,0-.7a7.52,7.52,0,0,1,1.3-3.6c8.5-15.3,6.4-19.2-10.4-22-7.5-1.2-12.5.1-15.6,7.4-1,2.4-2.5,4.7-5,5.3h0a4.93,4.93,0,0,1-2.1,0,5.59,5.59,0,0,1-3.9-2.2c-1.3-1.7-1.6-4-2-6.3-.5-2.6-.2-5.4-1-7.9-3.1-9-11.9-10.7-19.2-12.8-8.3-2.3-5.9,6.7-8.3,10.8-1.1,1.9-1.8,4.4-3.4,5.2h-.1c-1,.4-2.3.2-4.2-1.2l-.1-.1c-4-6.4-1.6-13.4-2.2-20.2-.7-8,1.1-15.7,2.8-23.4h0c.7-3.1,1.4-6.1,1.9-9.2,1-5.8,1.4-11.6.1-17.6h0c1.4-5-3.2-14.1,9.9-9.5,58.3,20.8,117,40.6,175.5,60.8a4.7,4.7,0,0,0,1.2.9A10.63,10.63,0,0,0,1603.52,364.83Z"/><path class="cls-25" d="M1420.42,275.23c-11.9,8.9-14,20.9-12.8,34.6.6,6.9.5,13.8.6,20.7v.3a13.77,13.77,0,0,1,2.5,7.6h0c.3,4.2-.7,8.4-.8,12.6-.2,10.4,0,20.7.3,31.1.4,13.3,1.1,26.6,1.6,40v3.6c.4,39.9.5,79.9-.1,119.8-.2,1.4-.4,2.7-.5,4.1s-.3,2.7-.4,4c-2.5,25.6-.5,51.4-.6,77,0,17.3-2.7,34.8-.9,52.2.1.9.2,1.7.3,2.6.3,2.1.6,4.1,1,6.1,0,42.8-.7,85.7-1,128.5a2.2,2.2,0,0,1-.1.8c-.1,1.1-.2,2.1-.3,3.2-1.2,14.8-1.6,29.7-1.6,44.5h-18.2c-.2-1.2-.3-2.4-.5-3.6.8-4.7,2.2-9.4,2.3-14.1q2.4-149,4.5-298c.6-38.8,1.7-77.6.9-116.3-.7-32.2-.5-64.6-.5-96.7,0-22.7-8.4-50.9,17.4-69.5,3.6-2.6,5.5-5.9,9.2-3.4C1428.32,270.63,1422.62,273.63,1420.42,275.23Z"/><path class="cls-26" d="M1384.22,241.83c3.7-24-13.4-30.2-30.9-37.6q-43-18.15-84.7-39.2c-13.9-7.1-25.4-9.8-38.3,1.1-6.9,5.9-18.2,5.5-23.5,14.5,15.2,11.6,33.6,17,50.7,24.3,39.3,16.7,77.8,35.1,117.1,51.7,2.9,1.2,5.5,3.8,8.7.8Q1383.92,249.78,1384.22,241.83Z"/><path class="cls-27" d="M1603.52,362.83v3.9a2.18,2.18,0,0,1-.5-.4h0c-1.2-.8-2.3-1.7-3.5-2.6l-1.2-.9A45.1,45.1,0,0,0,1603.52,362.83Z"/><path class="cls-28" d="M1047.22,271.23c47.8,18.3,95.7,36.4,143.4,54.9q96.45,37.35,192.8,75.2c.7-14.3,5.4-28.5.5-42.8-.3,2.1-.7,4.3-.8,6.4-1.9,30.2-1.8,30.1-31.2,18.5q-156.45-61.5-313-122.7c-7.9-9.9-19.3-11.8-30.8-13.6-16.2,4.8-28.5,16.5-43.5,23.5-3.7,3.1-8.1,5.9-6.5,11.9a9.37,9.37,0,0,0,6.6,2.3c11-3,20.1-9.8,29-16.1,11.4-8.1,22.1-9.3,34-2.4C1033.72,269.33,1040.52,270.23,1047.22,271.23Z"/><path class="cls-29" d="M1382.52,513.33c-15.2.8-27.9-7.3-41.5-11.9-48.9-16.7-98.3-32.1-146.3-51.4-8.8-9.7-21.8-10.7-33-14.9-17-6.4-34.4-11.5-51.5-17.7-35.1-11.3-69.2-25.4-104.7-35.7-11.7-.4-21.3,4-29.3,12.4-.8,2.7.3,4.7,2.2,6.5a8.92,8.92,0,0,0,4.5,1.2c6.8-1,12.7-5.5,19.8-5.3,12.9.6,24.3,5.9,35.9,10.7,49.4,17.7,99.5,33.5,148.7,51.7,19.2,7.1,38.1,14.6,58.7,16.7q67.95,22.8,135.9,45.7C1382.12,518.63,1382.32,516,1382.52,513.33Z"/><path class="cls-30" d="M1104.42,589l229.8,66c12.9,3.7,25.9,7,38.9,10.4.1-1,.1-2.1.1-3.1-45.7-13.7-91.4-27.5-137.2-41.1q-92.85-27.6-185.8-54.9c-17.6-12.7-38.6-15.3-58.9-20.2-11.1,1.4-21.9,3.6-29.5,13-.4,2.7,1,4.7,3.1,6.2,9.2,2.4,16.2-5,24.7-5.4,16,1,30.3,7.7,45.3,12.4,17.4,5.1,34.8,10.4,52.3,15.2C1092.82,589.23,1098.42,590.83,1104.42,589Z"/><path class="cls-31" d="M1390.72,868.43H1389c0-1.2.1-2.4.1-3.6C1389.72,866,1390.22,867.23,1390.72,868.43Z"/><path class="cls-32" d="M1384.22,303.33c-.2,1.1-.5,2.1-.6,3.2-2.1,27.6-2.2,27.7-27.5,17.2q-113.55-46.8-227-93.7c-4.4-1.8-8.6-4.3-12.9-6.5-2.3-3.1-4.9-5.6-9.3-5.1a8.4,8.4,0,0,0-5.4,3.8,4.76,4.76,0,0,0,.4,4.2c33.1,9.9,64.3,24.8,96.2,37.7,62,25,123.8,50.5,185.7,75.9C1385.22,327.83,1388.82,315.63,1384.22,303.33Z"/><path class="cls-33" d="M1374.22,597.53c-49.1-18.7-99.9-32.4-149.8-48.6-6.6-2.1-13-4.8-19.4-7.2-5.6-6.7-14-7.9-21.6-10.1-24.3-6.9-47.3-18.1-72.7-21.1a7.66,7.66,0,0,0-5.6,5.4c48.7,18.7,99.2,32,148.8,48,39.9,12.9,80.2,24.6,120.3,36.8Z"/><path class="cls-34" d="M1197.92,747.83a516.46,516.46,0,0,1-61.2-15.3c-6.3-8.1-15.6-7.2-24.3-8.1-3.7.7-7,2.1-8.8,5.7,43.9,11,87.7,22.4,131.7,33,47.2,11.4,94.5,22.2,141.7,33.3.1-1.3.3-2.5.4-3.8-25.6-6.9-51.2-13.9-76.8-20.8-3.2-2.9-7.1-4.5-11.2-5.8-25-7.6-51-11.2-76-18.5C1208.32,746,1203,744.53,1197.92,747.83Z"/><path class="cls-35" d="M1383.42,257.53q-77-34-154-68c-7.4-3.3-15-5.9-22.6-8.8-1.3.1-2.7.3-4,.5-.4.5-.9,1-1.3,1.5.4.5.8,1.1,1.2,1.6q90.3,39.9,180.7,79.9Z"/><path class="cls-36" d="M1215,386.53q76.65,29,153.3,57.8c5,1.9,10,3.9,15,5.8.7-8.9,4.2-17.9-.3-26.8-2.1,20.4-2.1,20.2-22.1,12.7-47.4-17.6-94.9-34.9-142.4-52.3C1217.42,384.73,1215.32,384.53,1215,386.53Z"/><path class="cls-37" d="M1379,714.43c-30.8-4.8-60.1-15.8-90.3-22.9-8.3-2-16.6-4.1-24.9-6.2-1.3.8-3.2.9-3.7,2.8l118.9,33.3Z"/><path class="cls-38" d="M1408.22,330.73a764,764,0,0,0-.1,94.5,8.41,8.41,0,0,0,6.4-4.8c3.5-10.7,3.9-21.6,2.8-32.7a10.08,10.08,0,0,0-2.9-4.7c-5.6-14.5.4-29.1-.4-43.7-.5-9.3,4.1-18.8-1.3-27.9C1410.92,317.83,1414.42,325.43,1408.22,330.73Z"/><path class="cls-39" d="M1379.42,868.43h-4.7c1-4.1,1.7-9.7,2.7-17.3l.6,2.4A67.8,67.8,0,0,1,1379.42,868.43Z"/><path class="cls-29" d="M1382.82,475.23c-1,12.1-3.2,24.1-.1,36.2C1383.42,499.33,1387.42,487.23,1382.82,475.23Z"/><path class="cls-3" d="M803.32,213.53c-9.9-17-23.8-2.9-35.6-3.8-16.3-1.2-23-4.7-25.1-20.3-1.4-10.4-1.4-10.4-13.2-21.2-2,3.7-3.9,7.5-6,11-1.4,2.2-4.6,5.7-6,3.1-5-9.2-12.8-12-22.4-12.8-2.1-.2-3-3.2-2.1-5.3,1.2-3,4-3.4,6.8-2.4,3.5,1.4,7.2,1.3,7.6-2.7.5-4.7-3.9-3.2-7-3.6-8.8-1.3-16-6.6-21.6-12.7-8.7-9.4-3.9-16.9,6.5-21.1,11-4.5,7.6-10,.2-12.7-10-3.7-20.3-18.8-31.9-2.1-.3.5-2.4.5-2.9,0-14.8-13.6-36-17-50.2-31.5-3.7-3.8-7.1-10.5-12.7-8.8-12.5,3.8-23-2.2-33.9-5.3-11.9-3.4-15.1,1.3-15.5,11.5-3.3,6.6-14,8.2-13.5,16.8,1,17.3-1.5,35.2,6.8,51.5,5.5,29.3,7.2,59.1,11.3,88.6,8.1,57.9,6.5,116.6,13.6,174.6,1.7,13.5-2.6,28,7.1,40.1,8.6-3.5,7.3-11.2,6.9-17.8-2.3-38.8,16.2-68,43.9-92.3a207.18,207.18,0,0,1,62.2-37.4c13.6-5.3,26.9-7.4,41.1-2.6,17,5.8,35,7.1,52.4,11,18.7,4.2,18.8,4.1,17.5,23l-.6,8.1c-.8,6.2-.7,12.5-1.4,18.7-.6,3.7-.4,7.5-.7,11.3-1.1,17.6-2.7,35.3-2.8,53,.5,3.1,1.5,5.9,4.3,7.7,8.4-3.2,7.7-11,8.4-17.7,1.6-17.2,2.8-34.4,3.2-51.6,1.9-23.5,2.9-47.2,4.9-70.7,1.3-14.7,3.1-15.7,17.1-11.5,8.2,2.4,16,7,25.1,3.5,11.9-12.1,9.6-26.6,7.2-41.1-8.4.2-8,.3-10.4,9.6-1.6,6.3,2.3,16.9-10.5,15.7-15.9-1.5-25.2-9.5-25.7-21.4C805.22,232.43,809.42,222.53,803.32,213.53Z"/><path class="cls-40" d="M533.72,140.53c-5.8-16.6-1.8-34.4-5.9-51.2-.3-1.3.6-3,1-4.5,14.8,5,6.8-7.7,9.5-12.1l-3-.3c-10.4-21.2-21.1-22.2-36.8-3.8-31.9,37.3-62.4,75.6-94.3,112.9-4.5,5.2-9.6,10.4-11.4,17.5-1.5,11.8,5.8,18.2,15.1,22,25.5,10.6,51.4,19.4,79.8,15.7,12.3-1.6,24.8.7,37.1-.1,5.8-.4,11.9-.6,16.9-4.6,4-12.8-.9-25.3-2-37.9C538.32,176.43,538.62,158.13,533.72,140.53Z"/><path class="cls-41" d="M396.52,196.43q52.2-63.3,104.6-126.7c13.6-16.4,19.9-15.9,30.6,1.9,1,1.7,2.1,2.2,3.7.8,2.6-19.6-15.2-15.3-24.6-20.8-26.6,26.7-47.9,57.7-73,85.7-5.4,6-10.5,12.2-15.8,18.3l-49.7,61.7c-3.3,4.5-.3,8.6,1,12.7,30,39.6,29.4,81.9,16.8,128.1a264.77,264.77,0,0,0-3.3,125.8c3,13.9-.8,27.9,2.7,41.7,2.2,8.9,3.3,18.1,7.9,26.1,5.6,9.7,13,10.3,20.8,2.1a11.56,11.56,0,0,0,2-2.5,116.56,116.56,0,0,1,35.5-51.6c-21.3-9.3-29-29.8-36.9-48.6-6.4-15.1-.5-31.6,5.9-46.6,9.5-22.4,18.9-44.8,19.3-69.6.5-31.4-3.5-61.9-22.1-88.6a33.62,33.62,0,0,1-4.3-8.7c-2.9-7.2-9.3-10-15.7-13-16.3-7.6-16.2-7.7-8.5-22.9A13.7,13.7,0,0,1,396.52,196.43Z"/><path class="cls-42" d="M803.32,213.53c-.3,3.8-.7,7.5-1,11.3-2.4,32.4-2.3,32.1,28.1,43.5,10.5,3.9,14.9,2.6,15.5-9.2.4-7.8-1.6-16.3,4.1-23.3,5.9-4.7,5.2-11.1,4.3-17.5a15.39,15.39,0,0,0-4.1-6.8c-13.2-4.5-23.7-16.4-39.4-14.2C804.32,200.83,809.22,209.63,803.32,213.53Z"/><path class="cls-43" d="M810.82,197.23c13.6,2.8,25,10.8,37.6,16,7.8,4.6,13-1.6,18.7-4.7,5.1-2.8,9.2-7.2,14.8-9.1,5.5-2.6,11-5.1,12.5-11.9,4.4-4.3,8.8-8.7,14.3-14.1a145.53,145.53,0,0,0-37.4-11.2c-4.5,3.1-8.9,6.2-13.4,9.3-4,5.5-3.8,12-4.3,18.4-1.4,19.1-1.5,19.1-19.4,10.9-7.3-3.3-14.2-8.4-21.9-9.8C803.52,189.33,811.82,195.13,810.82,197.23Z"/><path class="cls-44" d="M1057.32,116.33l-3.5,2.9c3.5,7.1,10.8,8.6,17.1,11.3,34.4,14.5,68.5,29.6,102.6,44.7,9.3,4.1,18.6,8.6,29.3,6h0c-12.2-12.5-29.3-15.6-44.4-22.2C1124.92,144.33,1092.42,127.13,1057.32,116.33Z"/><path class="cls-4" d="M1202.82,181.13c-34.3-9.9-65.2-28-98.3-40.8-17.1-6.6-33.8-14.1-50.7-21.2-9.3-4.2-18.7-8.3-27.9-12.8-4.3-2-7.9-2.5-12,.6-4.9,3.7-1.8,7-.8,11.2,2.7,11.7-.4,23.5-.8,35.3-.3,10.7-1.4,21.5,4.7,31.2,1.4,3.8,4.5,5.9,7.9,7.4,22.6,9.7,45.5,18.6,68.3,27.8,4,1.6,8.2,2.6,12.4.2,3.5,1.1,7.1,2.2,10.6,3.3,5.8-7.8,15.1-9.8,23.3-13.5,17.1-7.6,34.7-14.2,50.5-24.5,3.2-2.1,8.4-1,12.6-1.3C1202.72,183.23,1202.72,182.13,1202.82,181.13Z"/><path class="cls-45" d="M957.92,282.33c2.6-3.2,5.1-6.4,7.7-9.6a65.12,65.12,0,0,1,19.7-20.8c15.1-10.2,20.6-34.8,12.9-51.6-4-2.6-6.4-.3-8.7,2.7-2.2,2.7-5.1,3.5-8.5,3.3-11.7.8-19.6,8.8-28.4,15.1-9.8,10.5-22.3,16.7-35.2,22.2-5.8,2.2-10.3,6.2-14.9,10.1-14.9,11.4-30.4,21.8-48,28.8a20,20,0,0,0-7.8,6.3c-10.5,16.8-11.6,35.3-9.3,54.2,6.4,9.3,13.5,3.4,19.6.1,23.5-12.9,46.8-26.1,69.8-40,6.5-3.9,13-7.5,20.2-9.6C951.42,290.53,957.72,289.43,957.92,282.33Z"/><path class="cls-46" d="M849.52,287.93l5.7-3c17.7-8.2,33-20.5,50.3-29.4,3.7-2.9,7.3-5.8,11-8.7,13.7-7.2,27.2-14.9,39.3-24.6l25.2-15.9c2.4-4.3,7.8-8.2-2.4-11-14.5-3.9-29.1-8.6-42.5-15.2-16.5-8.2-28.2,2.4-41.6,7.4l-11.2,8.2c-10.6,6.6-20.4,14.3-31,20.9-.8,6.4-1.5,12.7-2.3,19.1-.6,13.9,1,28.1-4.9,41.4C844.22,281.63,842.82,286.43,849.52,287.93Z"/><path class="cls-47" d="M989.52,203c2.1-.8,4.1-1.7,6.2-2.5,9.1,5.3,12.2-7.5,19.9-6.6,21.3,7,41.7,16.1,62.3,24.8,7.6,3.2,15,8.7,24.1,4.7,1.2-1,2.4-2.1,3.6-3.1q-44.25-17.7-88.6-35.5C1004.22,185.53,996,192.93,989.52,203Z"/><path class="cls-48" d="M313.12,223.33c-1.2,16.3,3.5,32.6-.3,48.8-7.2,11.6-1.9,24.3-2.6,36.4-.6,11.2,1.8,22.5-5.4,32.7-2.3,3.3-2.1,7.3,2.4,9.5,2,1.3,5.4-2.6,5.3-.5-1.7,28.9,1.5,57.6,1.6,86.4a53.64,53.64,0,0,0,.1,10.6c1.7,8.6,1.2,17.3,2.1,25.9,2.2,7.6.7,15.3.3,23-.1,5.2-.5,10.5.3,15.7,1.9,7.6.7,15.3.9,23,.4,6.7,2.7,13.2,1.5,20-1.4,13.4.7,26.8,1.2,40.2.6,16.9-4.7,29-19.9,36.6-11.3,6.8-20.1,20.8-36.7,12-2.3-1.2-5,1.1-6.7,3.4-5.9,7.6-3.7,26.6,4.1,35,17.7-4.1,31.2-16.1,46.8-24.2,3.6-1.9,7.2-6.7,11.4-3.1,5,4.4.7,8.7-2.1,12.6-9.1,12.5-4.4,28.5-10.4,41.8-1.8,11.5-5.6,22.7-6.6,34.4-.1,8.8-.8,17.4-4.7,25.5,1,12.1,8.6,6.2,14.1,4.8,5.9-1.6,10.1-8.4,17.8-5.1-5.2-.7-9.8,0-12.8,4.5a14.87,14.87,0,0,0-.7,4.7c2,14.2,0,28.5,12.3,41.1,7.1,7.3,3.2,21.4,3.4,32.6.2,11.8,1.8,13.5,11.4,14.8,6.8-14.2,2.3-28.7,1.1-43.1-1.7-14.9-3.4-29.7-2.7-44.8.7-16.4-1.8-32.7-1.6-49.2.1-10.8,0-21.3,3.6-31.6,4-30.1.1-60.2-1.1-90.2-2.8-72.6-4.9-145.1-7-217.7-.5-16.7-1.5-33.3-.4-50,.5-7.5-.1-15.2-6.5-20.8-4.7-18.3.8-37.1-2.9-55.4-4.4-12.8-7.8-25.9-6.9-39.6,1.9-2.3,2-4.6.1-7C311.62,216.73,311.12,219.43,313.12,223.33Z"/><path class="cls-49" d="M316.62,217.43v6c7.2-11.1,4.5-23.7,4.4-35.6,0-6.2-1.7-12.7-.7-19,1.3-8.3-1.4-12.2-9.9-14.8-11.7-3.6-22.7-9.4-34-14.2-.5,0-1.2-.1-1.6.2a18.11,18.11,0,0,0-2.1,1.8c7.1,3.4,14,8.1,21.5,9.9,20.4,4.9,23.3,19,21.3,36.3C311.52,197.93,313.12,207.73,316.62,217.43Z"/><path class="cls-50" d="M384.62,747.73a72.17,72.17,0,0,1-2.2,36.6c-8.8,27.5-13.6,55.5-15.8,84h-28c.1-.3.2-.7.3-1,.1-.6.2-1.1.3-1.7,2.2-14.6-.1-29.2-1-43.8.6-41.2-3-82.4-.9-123.6.2-9.7.9-19.4.5-29.1-2.5-72-5.2-143.9-7.7-215.9-1.5-45-2.6-89.9-3.9-134.9l.7-.7c14.7-15.1,25.7-32,29.6-53.4,2.1-11.7,7.5-22.8,11.5-34.2a7.45,7.45,0,0,1,3,.1,2,2,0,0,1,1.2,1.2c7.6,20.8,17.1,42.9,9,64.2-14,36.3-1.1,75.4-15,111.2-1.1,2.8,1.4,6.4,1.3,9.5-1,24.8,4.1,50.1-6.6,74a18.3,18.3,0,0,0,2.7,19.9c12.9,15.7,15.3,34.2,15.6,53.2.2,15.1,3.3,30.2,2.6,45.1-1,21.6,9.1,42.9,3,64.1C377.42,698,379.82,722.73,384.62,747.73Z"/><path class="cls-51" d="M476.72,868.43h-115c.5-10.6,1.4-21.2,4.8-31.6,2.4-7.3,1.2-15.2,2.8-23.1,4.1-19.2,16.5-37.6,12.3-57.5-6.5-30.6-9.9-60.7.1-91,3.7-11.2-5.2-20.9-4.1-31.2,2.6-23.3-3.4-45.9-3-69,.3-18.9-1.4-38.2-16.4-53.9-7.2-7.5-8.1-19.3.9-27.8,5.9-5.5,5.7-10.8,3.4-17.4-1.4-4-3.7-9.2-2.2-12.4,10.8-24.2-2.2-49.7,6.6-75,7.6-21.9-3.5-48.2,6.3-70.9,11-25.4,3.4-48.8-3.7-72.5-.5-1.7-1-3.3-1.5-5,.7-4.5-.6-9.6,4.1-12.8h0c.5,1.7.9,3.5,1.4,5.2s.9,3.3,1.3,4.9c3.3,5.5,5.9,11.5,8.9,17.2,7.5,14.3,13.4,28.8,13.5,44.9a72.25,72.25,0,0,1-1,12.1c-5.5,31-11.2,62-13.5,93.4h0a360.91,360.91,0,0,0-1,37.6c.3,10.7.8,21.3,1.5,32,1.3,19.3,3.2,38.6,5.2,57.8,5.9,56.5,15.6,112.7,12.6,169.8-.7,14.2.8,15.2,14.3,11.8,5.2-1.3,10.2-3.7,15.8-3.2a7.89,7.89,0,0,1,1.2,1.5c0,.1.1.1.1.2,2,3.2,1,6.6-.9,10-1.3,1.8-2.6,3.5-4,5.3l-4.2,5.7a279.16,279.16,0,0,0-21.8,34.9c-7.2,13.9-5.9,16.8,9.4,17,4.5.1,9-.6,12.3,2.9.1.1.1.2.2.2.2.2.4.5.7.8-1.2,14,8.1,22.6,16.3,31.8,8.5,9.6,15.8,20.6,11.6,33.4-4.2,12.6-9.7,22.1,10.7,12.8a7.82,7.82,0,0,1,4.8-.2C474.52,858.53,476.82,863.33,476.72,868.43Z"/><path class="cls-52" d="M81.32,373.33c6.5,4.1,6.9-2.6,8.5-5.4q63.6-112,126.9-224.3c3.1-5.6,5.9-11.3,8.9-17,1.8-3.6,1.5-6.1-3.2-6.6Q151.77,246.63,81.32,373.33Z"/><path class="cls-53" d="M308.12,349.83a10.77,10.77,0,0,1-1.1-1.1c15.2-24.5,5.9-50.9,5.8-76.5-19.6,14.5-42.1,22.1-65.4,27.8-3.2.8-6.8.6-7.8,4.4-3.8,14.4-14.5,24.1-22.3,35.8-12.7,19-30.1,34.8-39.6,55.9,5.9,10.6,14.9,12.9,25.7,9.1,12.9-4.6,27.5-4.4,38.3-14.4,5.2-10-.3-20.2.5-30.2.3-5.8.8-11.7.9-16.8.2,5-.7,10.7-.9,16.5,1.3,13.2,2.1,26.3-.1,39.7-1.4,8.3-.2,16.9,12.6,13.7a20.94,20.94,0,0,0,12.1-7.3c12.2-14,24.1-28.3,36.2-42.4C306.32,360.13,310,355.83,308.12,349.83Z"/><path class="cls-54" d="M240.12,390.53c-13.1,3.8-26.8,6.3-39.2,11.7-10.6,4.6-15.3-5.3-23.2-6.2-8.6.8-6.2,7.6-7.1,12.7,5.8,8.1,5.7,17.2,4.7,26.5-4.5,9.1.4,18.8-1.5,28,1.5,5.2.2,10.6,1.4,15.9.9,4-1.1,9.5,4,11.2,5.3,1.8,9-2.5,12.1-6.1,4.9-5.7,10.1-11.1,14.5-17.1a154.3,154.3,0,0,1,23.6-26.1C246.42,426.33,246.72,409.43,240.12,390.53Z"/><path class="cls-8" d="M316.62,217.43c-.4-9.8-.7-19.6-1.1-29.5a42.22,42.22,0,0,0-2.3,35.4C314.32,221.43,315.42,219.43,316.62,217.43Z"/><path class="cls-55" d="M156,527.63c-7.4,9.9-14.6,20-24.4,27.8-6.3,1.9-10.2,5.8-10.3,12.7-.2,25.1,1.1,50.1.7,75.2-.2,10.9,5.3,13.2,14.7,8.1a21.73,21.73,0,0,0,5.2-3.8c9.1-10,13.8-5.7,17,5,1.1,3.6,1.9,7.3,3.6,10.6,7.6,4.6,11.2-1.2,13.4-6.3,4.2-9.2,4.9-20-1.8-27.5-4.2-4.6-4.3-5.4-1-9.9,6.4-8.7,6.2-19.4,5.3-29.5-.9-9.6-.9-19.2-1.9-28.8-2.7-12.2.4-24.4.4-36.6,0-5.2,1.6-12.3-3.9-14.4-6.9-2.8-9.5,4.8-12.9,9.2C158.22,521.83,155.52,523.93,156,527.63Z"/><path class="cls-56" d="M52.52,757.63c1.2.1,2.4.3,3.7.4,6.8,2.8,10.3-4.4,16.9-5.9,1,12.1,4.9,23.3-8.9,31.3-9.4,5.4-6.1,13.3,1.1,18s9.4,11.2,10.7,18.8a10,10,0,0,0,4.6,5.1,6.1,6.1,0,0,0,4.4-.4c4.6-5,3.3-11.7,4.8-17.6.7-2.8-.8-8.4,5.7-6.2,5.2,5.2-1.1,14.9,7.4,18.8,7.6-4.2,5.8-12,7-18.6,1.1-6.1.1-13.1,8.5-17.2-.7,14.6-1.4,28.4,2.8,41.7,7.9,2.5,9.1,18.6,22.1,10.9,1.8-9.5,2.5-19-1.8-28.1-7.8-1-6.6,4.5-6.8,10.6-1.2-10.3,1.7-18.8,1.7-27.4,0-5.9,3.1-8.4,8.8-8.3,7.8-8,5.9-18.2,6.6-27.9a11.23,11.23,0,0,0-4.7-5.4c-14-4.6-18.9-14.1-16.4-28.5,1.1-6.3,0-12.9-4.9-18.1-9.2-2.4-12.7,4.2-16.6,10.3-3.2,8.9-11.4,17.8-.2,26.9,1.2,1,.9,1.7,0,1.8-12,1.2-11,8.9-8.9,17.2,5.2,4.1,12.5,1,17.8,4.9-3,7.1-9.2,4.5-14.2,5.3-10.2,6.4-15.1.9-16.8-8.4-2.3-12.8-.1-25,8-35.7a6,6,0,0,0-2.6-3.8c-4.8-2.8-6.1-7.3-5.7-12.4,1.8-24.2-.9-48.2-1.9-72.3a92.76,92.76,0,0,1,5.9-37.6c-.4-.7-.8-1.4-1.2-2.2-12.2,6.5-8.2-5-12.1-14.3-.9,13-1.4,21.4-2,29.9,1.5,7.6,3.5,15.2,1.7,23.1-7.8,8.4-6.4,19-6,28.8.5,13.8.5,27.6.9,41.4,3.5,13.9,3,26.2-11.1,35C55.52,744.83,51,750,52.52,757.63Z"/><path class="cls-57" d="M163.32,661.33c5.7-9.6-7.7-16.6-3.7-26.2.5-1.3-3.7-3.7-6.6-2-2.3,1.4-4.1,3.5-6.4,4.8-6.6,3.8-10.8,15.8-18.8,11.7-5.9-3.1-.9-13.9-1.2-21.2-.7-19.2-.3-38.5-1.9-57.6-.6-7.4,4.1-10.5,6.9-15.4-12.1-8.2-5.3-21.7-9.2-32.6-4.2,3.5-2.9,8.5-2.5,12.3,2.2,22.8-7.6,39.9-24.9,53.5-3,2.4-5.3,5.3-5.5,9.3l.1.1c14.5,4.8,15.7-12,25.2-14.7,2.1,22.8.2,46.3,1.3,69.7.3,6.6-1.8,11.5-6.9,15.4a75.34,75.34,0,0,0-8.6,7.3c-4.7,4.8-12.5,8.4-10.8,16.7,1.8,9.1,10.9,7,17.2,9.2a34.82,34.82,0,0,1,4.3,2.2c9.4-.6,10.6-10.1,16.2-14.8,4.1-13,7.8-26.4,26.1-24.2C157.62,665.73,160.72,664.33,163.32,661.33Z"/><path class="cls-58" d="M156,527.63c5.1-5.1,7.6-12.7,15.7-16,3.8,17-4.9,33.8,1.4,50.1,4.2-2.4,5.6-6.6,7.2-10.7,3.4-12.5,3.1-25.2,1.2-37.9-.5-7.5,5.2-12.2,8.5-18,14.9-19.5,32-37.2,46.7-56.2,1.3,3.1-2.2,10.3,6.3,10.7,4.3-3.8,3.9-9.5,5.9-14.2a28.28,28.28,0,0,0,1.4-4.1c1.1-3.4,2.4-6.7,3.7-10,1-3.4,3-6.6,1.2-10.3-5.6-.5-12,.7-9.7-9.2,3.4-14.3-1.1-28.8-.4-43.3-1.9-2.2-4-2.3-6.2-.5.8,10.8,3.2,21.6.9,32.5,7.5,27.8-9.6,44.6-26.9,61.9-11.2,11.3-20.9,24.2-32.7,38.1-3-10-4.8-17.9-4-26.3-2.8-.9-4.4-.5-3.4,2.9-1.3,19.3,1,39.8-17.5,53.7C153.22,522.73,153.22,525.53,156,527.63Z"/><path class="cls-11" d="M173.12,467.23c1.1-1,2.3-2,3.4-2.9,2.6-9.9-2.7-19.4-1.3-29.2A36.31,36.31,0,0,0,173.12,467.23Z"/><path class="cls-59" d="M61.42,868.43h7.8c-.5-1.5-1.1-3-1.7-4.6-.2-.5-.4-.9-.6-1.4-3.4-8.2-8-16.9-11-24.3a51,51,0,0,1-2.2-6.6,23.54,23.54,0,0,1-.8-5.5c0-3.6-.1-7.2-1.7-10.4a11.71,11.71,0,0,0-2.2-2.9c-6.3,6.1-2.9,14.2-4.5,21.3-.6,2.7-.9,5.8-4.3,5.6-1.7-.1-4-2.2-4.6-3.9-4.5-12.4-13.7-23.4-11.5-37.8.1-.2.1-.4.2-.6.9-3.1-.6-5.8-1.7-8.5a15.83,15.83,0,0,1-.9-3.1c0-.3-.1-.6-.1-.9-11.2-12.5-5.6-28.6-9.3-42.7-.8.5-1.6,1.1-2.4,1.6a22.91,22.91,0,0,1-.7,2.8h0c-5.9,27.3-3.9,54.8-1.6,82.3,4.5,12.6,3.4,26.3,7.6,39,0,.1.1.2.1.3h46.1Z"/><path class="cls-60" d="M75.62,710.53c.5-24.7.9-49.5,1.4-74.2-1.4-3.8-2.8-7.6-4.1-11.2-29.3,17.2-26.7,45-24.8,72.7.3,4.8.8,9.5,1.2,14.3,5.2,5.1,12,6.5,18.7,8.1C77.12,722.53,78.12,717.73,75.62,710.53Z"/><path class="cls-61" d="M49,812.83c-.2,4.3-.4,8.5-.6,12.8,2.9,10.8,9.6,17.5,21,14.4,8.9-2.4,12.9-9.4,8.5-18.9.5-9.2,3.9-19.2-10.5-22.2-4-.8-10.5-9.5-2.7-11.8,22-6.4,11.7-22.3,12.5-35,.1-2-.9-4.1-1.6-7.1-8.4,1.9-12.2,10.2-19.5,13-7.4,5.4-10.2,12.3-7.9,21.3C51,790.43,50.32,801.63,49,812.83Z"/><path class="cls-62" d="M75.62,710.53c-1.1,3.3.7,10.3-6.6,6.1-6.2-3.6-12.8-4.2-19.7-4.5-.7,10.9-1.5,21.9-2,32.8-.2,4.8-2.7,10.9,5.2,12.6,3.6-5.9,7.1-12.3,13.4-15.3C81,735,80,723.43,75.62,710.53Z"/><path class="cls-63" d="M26,671.73c1.9,6.1-11.9,9-3.7,16,5.5,4.7,10.6,14.6,17.6,11.9,8-3.1,3.5-12.6,2.6-19.8-.8-5.7-.2-11.5-.3-17.6-7.7,0-10,8.2-16.2,9.5Z"/><path class="cls-61" d="M21.62,784.93c-4.6,5.4.9,8.9,2.5,13.1,3,1.1,7.2,1.3,8.7,3.5,8.3,11.6,10.3,5.9,10.8-3.7.4-8.4,4.6-19.9-2.7-24.2C34.22,769.83,29.42,782.93,21.62,784.93Z"/><path class="cls-64" d="M10.92,742l1.4.2c-1.5-6.1,2.5-12.9-2.3-18.7Z"/><path class="cls-65" d="M1044.52,800.13c-10.8-7.1-10.8-7.1-13.8-39.1-.5,7.8-1,15.7-1.6,23.5-.3,3.3-1,6.9-5.1,6.8s-4.7-3.9-4.4-7.2c1.2-12.2,1.2-24.5,3.4-36.7,2.2-12.4,4.7-25.6-4.8-36.9-11.2-11.8-24.6-14.5-39.8-9.2-4.2,30.9-4.7,62-6.6,93,4,6.6,11,8,17.7,9.5,17.2,3.6,34.2,8.1,51.9,8.8C1053.42,811.13,1044.52,804.53,1044.52,800.13Z"/><path class="cls-66" d="M1315.12,868.43h-22.3l-39.3-8.1h-.1l-65.9-13.5q-76.95-15.75-153.9-31.6c-.4.1-.7.1-1.1.2a34,34,0,0,1-7.8.3c-.5,0-.9-.1-1.4-.1s-1-.1-1.5-.2c-1.5-.2-3-.4-4.4-.7a18.92,18.92,0,0,1-2.3-.5,22.88,22.88,0,0,1-2.8-.8c-12.5-1.9-24.6-6.4-37.4-6.7h-2.4c-36,4-71.2,12.3-106.9,17.8-20.1,3.1-39.9,9.3-60.7,7.8a11.61,11.61,0,0,1-2.2-1.3,2.7,2.7,0,0,1-.8-.7,4.8,4.8,0,0,1-1.3-4.2c.1-.1.2-.2.2-.3.2-.2.3-.4.5-.6h0a19.2,19.2,0,0,1,1.4-1.5,6.57,6.57,0,0,1,1.7-1.2h.1a25.94,25.94,0,0,1,7.7-2.6c50.1-9,100.1-18.5,150.4-26.7,3.1-.5,6.3-1,9.1.5a8.85,8.85,0,0,1,1.7,1.2c24.3,6,48.6,12.2,73.5,15.6h0c18.1-2.1,34.5,3.7,50.4,11.4h0c.3.2.7.3,1,.5Q1206.92,845.38,1315.12,868.43Z"/><path class="cls-67" d="M979.72,702.43c13.7-1.1,26.1,3.7,38.5,8.2l85.3,19.5c2.5-.9,5-1.7,7.5-2.6-4.1-6.8-11.8-6.1-18-8.7-5-1.2-10-2-14.8-4-13.4-3.7-27-6.8-40.5-10.1-19.2-3.1-37.2-11.6-56.8-13-50.7,10.6-100.3,25.9-150.8,37.7-8,2.6-16.8,3-23.4,9.1a4.42,4.42,0,0,0,.5,4.8c6.7,4.3,13.4,1,20,0,45.7-9.9,90.4-24.1,136.2-34.1A44.9,44.9,0,0,0,979.72,702.43Z"/><path class="cls-68" d="M1047,810.53c16.7,5.8,34.1,8.4,51.4,11.9-2.5-2.7-4.6-4.8-3.3-9.5,1.8-6.7-3.6-11.2-9.3-9.5-14.5,4.4-27.4-5-41.3-3.3C1031.52,806.93,1049.22,806.33,1047,810.53Z"/><path class="cls-69" d="M1033.72,815.23c-1.2,17.7-2.3,35.4-3.5,53.2H1019c.4-2.9.5-6,.9-8.9,2.1-14.5.8-29.4,3.5-43.9.2-1.1.4-2.1.7-3.2h0c3.3-.1,6.6,0,9.2,2.4Z"/><path class="cls-70" d="M990.32,549c20,5.7,39.9,11.5,59.9,17.2-3.1-21.9-3.7-43.6,5.1-64.5-1.8-8.1-9.5-8.2-15.1-10.1-10.7-3.6-21.4-7.3-32.4-10.2-5.8-1.5-11.5-3.6-16.4,2.1C987.12,505.33,980.62,527,990.32,549Z"/><path class="cls-71" d="M994.42,482.73c21,4.2,41,11.5,61,19l49.7,14.1c1.3-1.1,2.7-2.1,4-3.2-5.3-7.9-14.4-8.5-22.2-11.1-17.6-5.9-35.4-11.6-53.1-17.2-11.7-2.9-22.8-8.2-35-9.3-21,3.4-41.2,9-56.7,24.9a7.86,7.86,0,0,0,.6,4.8C962.72,503.93,978.42,493,994.42,482.73Z"/><path class="cls-72" d="M1102,223.43q-44.4-17.55-88.7-35.1c-10.7,19.3-6.6,40.3-7.3,60.8,10.9,3.8,21.8,7.7,32.8,11.5,19.9-13.6,41.8-23.4,63.2-34.2A7.57,7.57,0,0,0,1102,223.43Z"/><path class="cls-73" d="M1078.52,718.43c3.9,3.7,8.8,3.2,13.6,3.3,3.2-14.8,15.8-15.1,27.1-17.3,12.7-6.6,22.8,8.8,35.2,4.2,5.8-2.2,14.7-.1,14.3-11-.3-8.4,2.4-16.6-9.1-21-4.9-1.9-15.3-6.1-7.2-16-.4-3.1-2.7-4.6-5.4-5.3-49.4-13.9-98.3-29.4-147.9-42.3-5.9-1.5-11.8-2.6-16.5,2.8-4.9,26.2-11.4,52.3-2.5,78.9l57.4,13.5c10.2-19.5,10.9-19.3,31.3-11.9C1081,700.73,1083.62,707.53,1078.52,718.43Z"/><path class="cls-74" d="M985.62,615c44.8,12,89.7,23.9,134.5,36,10.9,2.9,21.6,6.4,32.5,9.6,30.6,8,61.3,16.1,91.9,24,5.2,1.3,10.5,2.3,15.7,3.4l3.7-2.8q-71.4-19.8-142.8-39.5a102.87,102.87,0,0,1-10.5-4c-16.7-11.6-37.2-11.7-55.6-18.5-7.5-2.8-15.3-4.4-23.1-6.4-15.3-3-29.9-8.9-45.4-11.2-38.2,10.4-75.3,24.3-112.8,36.7-3.1,1-5.7,3-6.4,6.5.8,6.1,5.4,6.5,9.6,5.2,35.5-10.7,71.2-20.6,105.1-35.9C983.32,617.63,984.22,615.93,985.62,615Z"/><path class="cls-75" d="M1197.92,747.83c34.2,8.3,68,18.1,102.8,24-1.3-6.1-2.6-12.2-4.1-19.2-6,5.2-10.1,12.5-13.5-2.7-2.5-11.1-34.5-8.5-43.2,4.6-1.1-17.5-12.9-21.7-25.6-23.9-5.3-.9-11.2-7.3-16.3-1C1193.52,735.23,1194.62,741.73,1197.92,747.83Z"/><path class="cls-76" d="M1119.32,704.43a38.84,38.84,0,0,1-4.8-.4c-21.1-4.2-21-4.2-22.4,17.6,6.3,1.9,12.6,3.9,18.9,5.8,8.5,1.7,17.1,3.4,25.6,5C1143.22,715.63,1130.52,710.53,1119.32,704.43Z"/><path class="cls-77" d="M1047.22,271.23c-6.5-2.8-13-5.6-19.4-8.4-21.4-.7-24.3,1.8-25.7,22.2-.4,5.8-.9,11.7,1,17.4,8.4,12.3,22.2,13.5,35.1,16.7,4.8.3,11.9-8.3,13.7,3.6,2.4,3,5.3,3.7,8.7,1.9,4.9-6,4.6-13,4-20.1-1.4-4.5-2.9-9-4.4-13.6-4.6-1.1-8.3,8.9-12.1,3.1C1043.82,287.53,1044.92,278.93,1047.22,271.23Z"/><path class="cls-78" d="M1059.52,323.43c-2.6.3-4.9-.3-6.4-2.6-3-5.3-8.7-2.1-12.7-4-11.5-4.2-23.1-8.4-34.6-12.6-3.7-1-6.3.5-7,4-.7,4,3,4.8,5.6,6.3,62.2,21.9,123.9,45.1,185.7,67.9,6,2.2,11.7,5.9,18.6,3.7l6.2.3c1.2-.9,2.4-1.9,3.6-2.8q-61.95-23.7-123.8-47.5c-4.8-10-15.2-4.4-22.3-7.9a7.71,7.71,0,0,1-2.5-1C1067.42,323.53,1064.32,321.43,1059.52,323.43Z"/><path class="cls-20" d="M1072.52,328.23c6.4,5.5,15.3,4.2,22.3,7.9,3.2-4,10.2-4.5,10.4-11.2,0-2-1-3.9-1.5-5.9-11.2,9.3-14-8.6-22.5-6.7-.9.2-1.7,5-1.1,7.2C1081.92,326.63,1078.22,328.13,1072.52,328.23Z"/><path class="cls-20" d="M1059.52,323.43c3.5,1.3,7,2.6,10.4,3.9,8.8-12.2,7-19.5-5.5-22.8C1057.92,309.53,1061.12,317.13,1059.52,323.43Z"/><path class="cls-79" d="M1030.32,620.33c26.4,8.2,53,16.1,80.2,21.4,1.9-3,2.7-6.2-.6-8.6-17.8-12.8-12.9-28.3-5.5-44.2-23.4-6.8-46.8-13.5-70.2-20.3-4.5-1.3-5.8,2.1-6.2,5C1025.32,589.43,1018.12,605.43,1030.32,620.33Z"/><path class="cls-80" d="M1032.72,487.53c25.5,8.4,50.9,16.8,76.4,25.2q48,14.55,95.9,29c-.2-12.2-.3-24.3-.8-36.5-.4-10.8,5.1-17.5,15-19.6,9.6-2,16.7-9.9,26.8-9.9-55.4-19.5-110.7-39.1-166.2-58.4-13.7-4.8-27.7-9-41.5-13.4-1.1-.6-2.7-.7-2.7-.2C1033.92,431.53,1027.92,459.33,1032.72,487.53Z"/><path class="cls-81" d="M1208.82,386.23c-40.4-18.3-82.6-31.9-124.1-46.9-26.3-9.5-51.8-21.5-79.2-28.1-11.4,21.9-8.9,45.3-7,68.6.2,2.7,3.2,4.1,5.7,5.3l104.7,35.7c3.8-7.8,9-8.8,16.9-5,11.3,5.5,25,4.2,35.9,11.8,2.5,1.7,6.3.5,8.8-2,11.2,4.4,26-3.2,34.3,10.5,9.5-6,21-1.4,30.6-5.7,3.8-1.7,4.6-6.5,3.2-9.9-3.1-7.4-8.1-17.1-15.9-16.3C1205.82,405.73,1208.72,395.63,1208.82,386.23Z"/><path class="cls-82" d="M1170.32,425.53c-3.2-.4-7.8.5-9.3-1.3-11.5-13.2-29.3-7.6-43.1-15.2-12.9-7.2-9.6,4.9-9.1,11.7,28.6,9.7,57.2,19.5,85.8,29.2,14.9-9.7,1.6-12.6-4.4-15.5C1183.72,431.33,1175.12,432.83,1170.32,425.53Z"/><path class="cls-83" d="M1603.52,445.13v40.2c-.3.1-.6.3-.9.4-.6.2-1.1.5-1.8.7h-.1A28.68,28.68,0,0,1,1588,485c-34.7-11.9-70.5-20.9-104.6-34.5-1.4-.6-2.9-1.2-4.3-1.8a.1.1,0,0,1-.1-.1c-2.8-1.6-5.5-3.4-6.9-6.4,0-.1-.1-.1-.1-.2s-.2-.5-.3-.7c.8-5.1,4.3-7.6,8.9-7.4,19.6,1,38.8-2.3,58-5.4.2,0,.4-.1.7-.1a.75.75,0,0,0,.5-.1c15.5-1.9,28.4,4.4,40.7,12.4,1,.6,1.9,1.2,2.9,1.9a16.28,16.28,0,0,0,3.1.3h.8C1593,442.73,1598.82,443.13,1603.52,445.13Z"/><path class="cls-84" d="M1472.52,442.23c8.2-10.7,19.6-3,29.1-3.9,13-1.2,25.2-3,37-8.2,1.1-.7,1.5-1.3,1.1-2s-.7-1-1.1-1l.2-.2c-14-11.5-31.3-13-48.1-15.8-2-.3-4-.5-6-.8-.9-1.3-1.7-3-3.1-3.5-19.5-8-39.6-14.5-59.5-21.7a7,7,0,0,0-7.4,1.8c-.9,11.7-1.7,23.4-2.6,35.1-.4,1.1-.8,2.7-.3,2.9C1430.72,435,1449.82,444.93,1472.52,442.23Z"/><path class="cls-85" d="M1603.52,376.63v73.9a29,29,0,0,1-5.9-2.4c-3.3-2.1-8.3-.7-10.8-4.6-.1-.2-.2-.3-.3-.5.2-8.5-.5-17.2-.3-25.6C1586.52,402.13,1579,382,1603.52,376.63Z"/><path class="cls-85" d="M1599.82,483.23a17.93,17.93,0,0,0,3.7-1.6v6.9a4,4,0,0,1-2.7-2.1A8,8,0,0,1,1599.82,483.23Z"/><path class="cls-86" d="M1414.72,386.83q35,11.7,70,23.4c11.8-3.4,12.8-13.7,10.2-21.8-4.2-13.1-18.3-6.6-27.7-9.7-13.8-4.6-7.6,11-13.7,15.3-1-1-2.9-1.9-3-3-1.5-16.6-10.7-27-26.5-30.8-5.3-1.3-7.3,1.1-7.9,5.2-.9,5.8-1,11.8-1.5,17.7A23.18,23.18,0,0,0,1414.72,386.83Z"/><path class="cls-86" d="M1490.72,411c15.3,7.5,31.7,11.8,48.1,15.8-.3-13.2-.7-26.5-.7-39.7,0-5.9-2.1-9.9-8.1-9.2-10.4,1.4-21-11-28-4.7-5.3,4.8-3,18-3.9,27.5C1497.72,405.83,1497.42,410.63,1490.72,411Z"/><path class="cls-87" d="M1538.62,427.13c0,1,0,2.1-.1,3.1,15.9.6,29.2,10.6,44.8,12.6-4.5-15.6-2.2-31.8-3.3-47.7-.5-7.1-1.9-10.8-8.9-7.6-8.7,4-20.9-3.2-25.4,3s-2.4,17.6-3.2,26.7C1542.42,420.83,1542.42,424.73,1538.62,427.13Z"/><path class="cls-88" d="M1518.92,869.93c.1,0,.2.1.4.2h-.3A.31.31,0,0,1,1518.92,869.93Z"/><path class="cls-88" d="M1603.52,861.43v7h-60.9a20.9,20.9,0,0,1-5,0h-18.7a13.62,13.62,0,0,1,1.7-1.7,14.16,14.16,0,0,1,6-3c7.7-1.8,16.6,1.9,23.9-1.6C1568.22,860.13,1585.92,858.93,1603.52,861.43Z"/><path class="cls-89" d="M1406.62,691.43l-1.5,129c3.8,4.2,9.1,5.6,14.1,7.5,20.2,4.3,40.1,10.3,60.9,11.7,10.4.3,15.7-1.2,15.7-15,.1-23.9,13-42.8,34.9-53.8,9.7-4.9,16.9-9.6,12.8-21.9-1.4-4.2,0-8.6,1.9-12.5,5.5-11.7,1.8-19.6-9.8-24.5-33.1-10.9-67.4-17.8-101-26.7-8.1-.6-15.9-4.7-24.3-2.8C1406.12,684.23,1405,687.33,1406.62,691.43Z"/><path class="cls-90" d="M1472.52,442.23c-20.6-5.5-41.2-11-60.4-20.4-1.3,1.1-2.6,2.3-3.9,3.4q-.45,59.85-.9,119.6c1.6,5.6,3.6,10.9,9.7,13.3a59.43,59.43,0,0,0,23.7,6.1c15.3-2,30.8-2.8,46.8-8.4.6,4-.2,9.7,4.4,13.3s9.5,5.4,15,2.4c5.1-2.9,6.3-7.7,3.6-12.5-8.2-14.6-3.1-26.4,5.9-38.6,6.5-8.8,10.8-19.1,1.2-29.4-3.2-3.4-3.5-7.9-1.7-12.2,5.3-12.6-2.5-16.8-12.5-18.8a45.26,45.26,0,0,1-24.9-14.1C1476.52,444.63,1474.52,443.43,1472.52,442.23Z"/><path class="cls-91" d="M1416.22,555c-3-3.4-6-6.8-9-10.1q-3,73.2-.6,146.6c.9-2.7,1.5-5.7,4.6-7,6.8-8,5.1-17.5,5.1-26.8-2-15.1-.2-30.2.3-45.3C1413.32,593.23,1418,574.13,1416.22,555Z"/><path class="cls-92" d="M1418.22,824.13c-.3,1-.7,2.1-1,3.1h0a52.37,52.37,0,0,0-2.6,14.1v1c-.1,1.1-.1,2.2-.2,3.3,0,.8-.1,1.6-.1,2.4s-.1,1.3-.1,2c0,.9-.1,1.8-.1,2.6a138.17,138.17,0,0,1-.8,15.8h-9.8c-.2-16-.4-32,1.6-47.9,1.5.2,3,.2,4.6.3C1412.82,820.83,1415.82,821.13,1418.22,824.13Z"/><path class="cls-93" d="M1603.52,486v125.5l-.9-.3c-4.8-1.5-9.8-2.5-14.6-3.7-44.4-11.9-88.1-26.5-133.3-35.4-5.3-1-10.3-2.9-12.3-8.1a14.18,14.18,0,0,1-.8-3.8c13.3-2,26.6-3.6,39.8-6.1,4.1-.8,3.9-10.6,10.3-7.3,5.3,2.8.1,7.6-.6,11.5-1.1,6.2,2.7,8.8,7.3,11,3.2,1.5,6.5,1.1,8.9-1.5,4.2-4.7-.8-7.5-2.5-11.1-5.3-10.9-5-21.3,3-31.3,8.5-10.7,19.5-21.5,3.3-34.9-3.1-2.6-3.3-7.6-1.2-10.6,10.9-15-1-14.8-10.6-16.7-9.2-1.8-17.6-4.8-20.2-14.5-.2-.9-.4-1.8-.6-2.8,3.1.7,6.3,1.3,9.3,2.3q56.1,17.55,112.1,35.1a6,6,0,0,0,2.8,2.5A3.09,3.09,0,0,1,1603.52,486Z"/><path class="cls-94" d="M1004.12,385c-6.6-11.1-1.4-22.8-1.3-34.2.1-13.2,1.7-26.4,2.6-39.7l-4.8-2.4c1.7-1.5,3.4-3.1,5.1-4.6.3-5.3,1.3-10.7.7-15.8-2.1-16.4,5.2-24.5,21.2-25.6-12.3-8.8-23.4-7.3-35.2,2.2-8.7,7-19.2,11.9-28.8,17.8-7.1,7.4-8.2,17.3-10.4,26.5-3.2,12.9-7.5,24.5-20.5,30.8-4.4,2.1-8.3,5.4-5.8,11.4,7.3,3.6,12,.7,15.3-4.9-4.4,23.5-16.6,46.2-17.3,71.7,12.7,7.2,20.6-5.6,31.1-7.4,6.4-5.4,16.6-5.8,20.4-14.8C985.42,391.73,993.22,384.63,1004.12,385Z"/><path class="cls-95" d="M928,350.93c.3-1,.3-2.7,1-3,29.5-12.3,28.7-40.5,34.7-65.2-2-.2-3.9-.3-5.9-.5-2.8,3.5-8.4,3.7-10.1,8.5-28,12.3-52.9,29.9-79.7,44.2-9.9,5.3-19.6,11-29.6,16.1a13.85,13.85,0,0,0-2.6,4.4c-2.1,12-4.3,24.1-1.5,36.3,6,8.4,12.5,3.1,18.5.4,19.7-8.8,37.8-21,58-28.9C917.22,360.23,924.62,358.33,928,350.93Z"/><path class="cls-94" d="M1006.12,249.13c9.1-19.5,2.5-40.8,7.3-60.8-7.8,1.3-9.3,11.7-17.7,12.1,6.2,20.4-1,41-18.8,51.7-8.2,4.9-13.4,10.5-11.3,20.5C980.72,267.63,993.42,258.53,1006.12,249.13Z"/><path class="cls-96" d="M943.32,500.53c17.1-10,34.8-18.6,54.5-22.4,4.2-25.5,4.5-51.3,5.6-77.1a13.28,13.28,0,0,0-3.2-9c-6.1,2.2-12.4,3.8-17.4,8.2-2.3,6.1.3,14.3-8.2,17.6-8.2,3.2-11.3-3.4-15.8-7.5-14.4,3.6-28,8.9-39.6,18.5-7.1,24.8-16,49.1-24.7,73.4-2,5.5-4.9,11-2.7,17.1a5.36,5.36,0,0,0,6.9,2.6C914.12,516,931.12,513,943.32,500.53Z"/><path class="cls-97" d="M1000.32,392.13c-1.7,23.6-3.3,47.1-5.1,70.7-.4,5.4-1.3,10.8,2.6,15.4l34.8,9.3c2.8-8.1,5-15.8,2.6-25-3.4-13.1,2-26.4,3.2-39.6.6-6.6-.9-12.8-.1-19.1C1026.42,397.33,1014.22,392.13,1000.32,392.13Z"/><path class="cls-94" d="M959.32,411.53c-1.7,13.8,6.4,13.3,16,10.9,14.3-3.5,11.3-12.7,7.6-22.2-1.1-.1-2.2-.2-3.3-.2-8.3-1.6-13.2,5.7-20.2,7.6A2.72,2.72,0,0,0,959.32,411.53Z"/><path class="cls-98" d="M959.72,408.73c8.8,2.1,12.4-7.8,20-8.7-1-1.3-2.1-2.6-3.1-3.8-6.8,4.3-15.6,5.1-21,12C956.82,409.83,958.12,410,959.72,408.73Z"/><path class="cls-99" d="M994.42,482.73c-17,7.2-34,14.5-51,21.7-13.2,1.3-24,9.1-36.1,13.1-5.5,1.8-10.4,6.1-16.9,4.1a9.9,9.9,0,0,0-8.1,4.7,8.75,8.75,0,0,0-.3,4.8c3.2,14.6-4.1,27.1-7.9,40.3-2,7.1-6.6,13.7-3.3,21.6,10.8,4.7,19-4.3,28.6-5.6,9.3-2.6,17.9-7.2,27.4-9.3,1.4-.4,2.8-.9,4.2-1.4,10.3-5.6,22.8-6.8,31.2-16,8.6-5.7,18.1-9.2,28-11.7C991.72,526.93,993,504.83,994.42,482.73Z"/><path class="cls-100" d="M868.72,649.13q49.65-16.8,99.2-33.7c6.1-2.1,12-5,17.9-7.5q12.75-25,3.2-51.4c-7.9,2.6-15.8,5.2-23.7,7.9-13.8-1.7-23.8,8.9-36.4,10.9l.1-.1c-9.3,2.9-18,7.3-27.3,10.2-10.9,3.5-21.4,8.3-32.6,10.8a9.26,9.26,0,0,0-2.6,3.9c-3.9,18-14.4,34.5-12.4,53.8C860.92,658.23,865.12,654.53,868.72,649.13Z"/><path class="cls-101" d="M989,556.43c-1.1,17.1-2.2,34.3-3.2,51.4,14.9,4.2,29.7,8.3,44.6,12.5-4.2-17.6-2.2-34.8,3.9-51.7C1019.52,563.13,1005.22,556.43,989,556.43Z"/><path class="cls-102" d="M928.92,575.23c13.5.8,23.6-9.4,36.4-10.9-1-1.2-2-2.3-3-3.5C950.72,564.53,938.72,567.43,928.92,575.23Z"/><path class="cls-103" d="M790.12,355.23c.4-6.4.9-12.9,1.3-19.3-3.6-5.3-8.9-7.6-15-8.4-17.7-2.4-35.3-5.7-52.2-11.7-5.7-2.1-11.9-2.6-17.6-.5-22.3,8.3-45.1,16-60.5,35.7-6.7,8.5-14.3,16.2-21.2,24.5-5.6,6.8-9.9,14.1-9.4,23.4.4,7.4-3.4,13.4-6.5,19.7-11.1,22.2-21.4,44.5-23.1,69.9s-7.2,50-12.8,74.7c1.1,26.3,3.3,52.5,6,78.6,1.2,11.4-.7,22.5.2,33.8,1.2,23.6,1.4,47.2,4.1,70.7.7,5.7-.5,12.1,6.2,15.5,8.6-.6,8-7.2,7.9-12.8-.1-7.4-.4-14.7-.1-22.1-.7-11.3-1.8-22.5-2.7-33.8-1.7-21,1.3-41.1,4.9-61.9,4.2-24.6,12.4-47.6,17.8-71.5,2.4-10.7,5.4-20.5,10.9-30,13-22.3,14.7-48.2,22.3-72.3,7-22.1,16.8-43.2,25.7-64.1,7.8-18.4,26.5-32.9,51-34.9C748.32,356.73,769.12,354.83,790.12,355.23Z"/><path class="cls-104" d="M577.72,561.93c8.9-33.7,11-68.5,17.4-102.5,3-15.6,13.4-29.9,20.9-44.6,1.7-3.3,4.3-6,4.7-10,3.6-36.2,29.2-55,57.4-71.9,4.1-2.5,8.1-5.3,12.3-7.5,12.3-6.4,24.4-10,38.5-3.7,19.8,8.8,42.2,7.3,62.6,14.2,2.4-28.6,2.7-30.2-24.8-35.6-21.5-4.3-42.5-11.9-64.3-13.2-23.6-1.4-44.1,11.2-62.7,23.4-25.3,16.6-48.7,35.3-63.3,64.5-11.6,23.2-10,45.9-10.5,69.4-.2.9-.5,1.7-.7,2.6-2,20.2,3,40.1,3.5,60.3.2,10-.5,20.2.9,30.2,2.3,7.6-.1,16,3.6,23.4A3.28,3.28,0,0,0,577.72,561.93Z"/><path class="cls-105" d="M593,725c-4.8,11.6,5.7,24.2-2.7,35.5-5.9,5.6-4.2,12.7-4.2,19.5,0,19.2,4.1,38.1,4.8,57.3.2,4.5.4,9.1,5,11.8,8.1-1.3,8.3-8.2,8.4-13.7,1-35,16.2-66.7,23.9-100.1,1.9-8.4,5.2-16.4,4.4-25.3-.2-2.1-.5-4.9.9-6.3,14.6-14.2,9.8-35.6,19.7-51.7,5.7-9.3,6.4-20.6,6.2-31.4-.4-22.5,5.1-43.6,13.8-64.1,1.9-4.5,4.2-9.2,2.8-14-7.8-27.3,2.1-50,18.1-71.3,5.9-7.8,9.6-16.9,13.6-25.6,4.4-9.4,9.9-17.9,18.4-24.1,3.5-2.5,7.8-5.3,8.2-9.6,1.7-18.3,18.2-19.1,29.8-25,9.2-4.7,15.7-.8,15.5,10.7-.1,6.9-1.8,14,1.4,20.7a3.25,3.25,0,0,0,4.3,1.3c1.2-18.3,2.5-36.6,3.7-54.9a12.45,12.45,0,0,0-8.4-4.4c-28-1.6-52.7,8.1-75.8,22.7a16.17,16.17,0,0,0-7.7,13.7c-.1,13.3-7.4,23.2-15,33.2a188.22,188.22,0,0,0-31.4,63.2c-7.6,26.3-8.7,52.8-9.7,79.6-.5,12.6-4.2,24-9.1,35.6-8.6,20.1-14.2,41-28.7,58.9-8.6,10.6-2.3,27.2-5.8,40.9C596.12,713.93,597.42,720.23,593,725Z"/><path class="cls-106" d="M593,725c16.1-10.6,8.6-27.9,11.3-42.2.9-4.8-2.2-11.4,2.3-14.9,23.2-18,20.6-48.7,35.7-70.7,2.7-4,1.7-10.4,2.6-15.7,4.2-25.1-.1-50.6,7.4-76.1,8.2-27.7,17.3-53.6,36.1-76.1,7.4-8.9,15.5-18.5,12.9-33.2-1.5-8.6,9.5-16.1,16.6-17.5,23.7-4.8,45.4-20.8,71.3-13.8.3-3.2.6-6.4.8-9.7a68.38,68.38,0,0,0-45.7-2.8c-2.6.7-5.4,2.6-7.7,2.1-30.4-6.4-45.4,17.2-64.7,32.5-1.6,1.3-4,3.4-3.9,4.9,2.3,27.1-18.5,46.6-24,71.6-4.4,19.9-5.9,42.1-17.3,59.7-16.2,24.9-20.4,54.1-27.5,81.2C589.22,643.23,584.12,684.33,593,725Z"/><path class="cls-107" d="M836.12,394.13l3.6-41.7c-3-2.9-5.5-2.3-7.7,1-9.6,14.4-14.5,15.2-28.6,4.5-3-2.2-5.5-5.4-9.8-2.7-1.3,18.7-2.5,37.4-3.9,56-.4,5.2.9,10.9-3.8,15.1-10.8,16.7-6.1,35.5-7.5,53.4,6.5,14.3,20,15.2,32.8,15.5,14,.4,16.3-11.9,20.7-21.6a14.8,14.8,0,0,0,1.6-4.6,26.75,26.75,0,0,0,.1-4.9c3.9-19.5,6.3-39.1,6.2-59C839.72,401.13,838.12,397.53,836.12,394.13Z"/><path class="cls-108" d="M793.72,355.23c9.3,5.2,13.8,19.5,29.4,13.5,7.6-2.9,14.6-3.2,11.9-13.9-.6-2.3,2.7-2.6,4.8-2.5l.2.1c1.7-2.3.3-4.6,0-7,3-19.2,1-39.3,9.5-57.6-1.5-3.6-3-7.2-4.4-10.8-11.6-.3-21.8-5.4-32.1-9.5-9.9-3.9-13.8-1.5-14.4,9.1C797.22,302.93,795.42,329,793.72,355.23Z"/><path class="cls-109" d="M574.52,561.63c-.4-7.7,3.4-15.6-1.6-23-3.3-31.4-3.7-62.9-7-94.3h0c-7.5-24.3-6-49.7-7.5-74.5q-6.9-115.2-21.2-229.7a13.82,13.82,0,0,0-.8-2.7c-.9,1-1.7,2-2.6,3,2.2,30.5,4.4,60.9,6.6,91.4-7.4,9.2-2.3,19.5-2.5,29.3-.3,12.2,3.6,24.1,3.6,36.3,4.3,67.2,10.2,134.3,16.2,201.4,1.1,25,3.2,49.9,5.7,74.8,2.4,20.2,3,40.5,5.2,60.6.8,7.4.9,15,5.6,21.4a4.09,4.09,0,0,0,5.2-.4c5.3-18.1-1.2-35.9-1.5-53.9C577.62,588.23,576,574.93,574.52,561.63Z"/><path class="cls-106" d="M781.82,484.43c1.4-19.3,2.8-38.7,4.2-58-.2-2.2-.3-4.4-.5-6.6-.9-.1-1.8-.1-2.7-.2-3.5,2.6-4.6,6.4-5.2,10.4-1,20.3-5.5,40.4-2.3,60.9,1.6,3.2,3.9,5,7.2,2.3C786.42,490.13,785.22,487,781.82,484.43Z"/><path class="cls-110" d="M545.42,297.33l-5.1-65.4c-20.7,1.7-41.4,0-62.2,1.2-26.6,1.5-51.9-7.5-75.6-19.8-7.5-3.9-6.4-10.4-6-16.9-21.5,19.6-21.3,21.1,4.9,32.4,4.4,1.9,9.1,3.3,12.1,7.4a26.52,26.52,0,0,0,9.8,8.1c35.4,15.7,69.2,34.7,105.1,49.3C533.72,295.83,539.12,298.83,545.42,297.33Z"/><path class="cls-111" d="M545.42,297.33q-66-30.6-131.9-61.1c1.2,4.1,1.4,8.8,3.7,12.1,20.5,29.4,24.1,62.3,21.6,96.7-1.2,16.9-6.8,32.9-14,47.5-7.9,15.9-10.8,32.5-13.7,49.1-2.4,13.7,10.8,22,15.3,33.7,4.7,12.3,10.5,25.7,28.4,23.2a13.22,13.22,0,0,0,6.5-.9c8-3.4,14.9-8.7,22-13.5,5.8-2.8,13,.2,18.3-4.7,7.2-4.3,9.8-12.3,15.2-19.6,3.7,11.5-4.1,25,8.3,33,12.1,3,23.2,12.6,36.8,5.3Q553.37,397.93,545.42,297.33Z"/><path class="cls-112" d="M459.12,496.13c-1.4.8-2.9,1.7-4.3,2.5-20.1,9.1-30,25.8-35.9,46.1-1.5,5.1-4.3,12.4-11.6,11.7s-7.8-8.5-9.3-13.7c-3.6-12.3-7.2-24.8-5.6-37.9,1.2-9.8.6-19-3.4-28.4a39.35,39.35,0,0,1-3.2-20.5c3.7-29.1-.4-58.7,5.5-87.8,2.4-12,9.2-22.2,10.2-34.9,3.2-38.5,2.5-75.5-26.6-105.7,2.4,7.1,3.8,14.7,7.4,21.2,16.1,28.7,8.2,57.3,2.8,87-6.7,36.2-10,73.1-7.7,110.2,3.3,53.7,11.6,106.9,16.4,160.3,2.8,30.3,7.7,61.5,2.3,92.7-2.6,15.3,1.3,17.1,15.7,11,6.8-2.9,13.8-5.2,20.7-7.7,6.6,3.7,11.7-1.3,17.3-3.1,4-2,8.9-1.8,12.5-4.9,1.5-15.8,11.4-24.9,25.2-30.6,4.9-2,3,2.3,3.5,4.3-.2,10.5-3.6,21.1,1.2,31.4,8.5,7.4,18.1,10.3,29.2,6.7,8.6-8.3,7.2-18.8,4.7-28.5-2.7-10.9-1.8-20.8,1.8-31.4,9.8-28.8-1-45.9-31-52.3-16.2-3.4-33.7-6.2-38-26.8a28.32,28.32,0,0,0-2.3-7.5c-1.7-13,.2-25.7,2.9-38.3C461.42,512.83,464.12,504.33,459.12,496.13Z"/><path class="cls-113" d="M852.32,216.63c12.1-4.3,22.7-11,31-20.9-13.8,1.5-20.8,16.4-34.8,17.5C849.72,214.43,851,215.53,852.32,216.63Z"/><path class="cls-114" d="M840,345.53c-3.8,2.3-.4,4.6,0,7,37.1-18.5,72.7-39.7,107.8-61.6-7.7-1.7-13.3,2.7-19.3,6.2-25.4,14.9-51,29.8-76.5,44.6C848.32,343.73,844.72,346.43,840,345.53Z"/><path class="cls-115" d="M905.52,255.63c-19.3,5.5-34.4,18.1-50.3,29.4C874.92,280,890.12,267.73,905.52,255.63Z"/><path class="cls-8" d="M955.82,222.23c-14.5,6.1-27.3,14.6-39.3,24.6C932.22,242.73,945.72,235.23,955.82,222.23Z"/><path class="cls-116" d="M339.12,868.43h-51.5c-1.2-5.6-.5-11.9-1.1-17.7-.6-7,.5-15.6-7-18.5-12.5-4.8-13.4-12.1-8.4-22.6,1.4-2.9,1.3-6.3.7-9.5-.5-2.9.3-7.2-4.2-7.5-3.6-.2-5.6,2.8-7.1,5.8a13,13,0,0,0-1.4,7.9c4,20.8-1.7,41.4-1,62.1h-14.7a27.15,27.15,0,0,1,.1-2.8c.7-17.4,1.3-34.7,1.3-52.1,0-13.5-.3-26.9-1.3-40.4-.5-6.5,1.2-12.7,6-17.7a11.69,11.69,0,0,1,2.3-1.1.37.37,0,0,0,.3-.1,3.5,3.5,0,0,1,2.7.3h0a10.69,10.69,0,0,1,2.6,2.6,12.9,12.9,0,0,0,3,3.5c10,10,22.3,11.6,35.5,10a1.27,1.27,0,0,0,.6-.1c7.6,6.2,12.5-2.1,18.6-3.6,5.2-1.2,9.9-9.4,15.3-3.4,4.2,4.7,2.5,11.6-1.2,18.3-4.6-3.9-3.8-17.4-13.5-6.9a8.64,8.64,0,0,1-1.6,1c-1.7.9-3.6,1.4-5.3,2.7,1.9-.9,3.6-1.6,5.3-2.6.6-.3,1.1-.7,1.6-1,4.7,7,3.3,15,4.1,22.8.3,3.4-3.5,11.2,5.1,10.9,9-.4,6.1,5.8,7.8,10.6,5.1,15-4.4,31.8,4.8,46.1a14.29,14.29,0,0,0,1.4,2A3,3,0,0,1,339.12,868.43Z"/><path class="cls-117" d="M247.52,429.83c-.2,1.2-.4,2.3-.6,3.5-1.7,14.8-4.5,29.7-2.4,44.6,2.4,17.1,2.3,34.2,2.5,51.4.8,3.8,2.9,8.7,6.3,8,11.4-2.3,21.3,6.2,32.5,3.3,3.8-2.6,7.7-5,7.8-10.3-1.7-3.7-8-1.7-8.6-6.8,6.4-13.3,20.1-20.1,28.5-31.6,4.1-5.7,9-10.6,6.3-18.4-.3-8.7,1.4-17.5-1.8-25.9C296.52,433.93,273.92,424.33,247.52,429.83Z"/><path class="cls-118" d="M250.52,533.83c2.7-33.6-3.1-67-3.6-100.5-5.5,4.2-2.8,10.6-4.3,15.9-7.9,9.1-6,20.1-5.6,30.5.4,10.1.8,20.3.7,30.4a30.52,30.52,0,0,0,.5,5.2c3.8,17.8,2,33.9-12.6,46.9-3.9,3.5-7.5,7.7-9.5,12.8-1.4,10.6,3.3,11.8,12.2,8.3,3.8-1.5,5.5-10,11.8-4,4.3,17.6-4.8,27.9-19,35.6-9.3-1.6-17.8-1.5-22,9.1-1.4,9.8-8.3,15.6-15.2,21.6a9.54,9.54,0,0,0-1.7,2.3,33.88,33.88,0,0,0,.4-6.4c1.6-20.2-2.7-40.5.6-60.6-.2-10.1,5-21.2-5.9-29.2-4.1,2.1-3.5,6.3-4.2,9.8.1,14.9,1.9,30.1-.1,44.7-1.7,11.8-5.6,21.7.5,34.6,5.4,11.4-.1,17.2-10.2,20.4-3.2.9-6.3,1.7-9.5,2.6-9,8.3-12.3,23.2-27.9,24-8,2.2-9.3,10.1-13.5,15.6-8,5.5-17,10.1-18.9,21l.6.9c9.8,4.2,12.2-4.5,16.7-9.5a36.93,36.93,0,0,1,13.9-11.8c7.8,2.6,11.5-3.9,16.3-7.5s8.8-7.8,13.4-11.4c4.1-3.2,7.7-9.8,13-7.6,5.7,2.4,2.9,9.4,3,14.5.1,10.1-.7,20.2,5.6,29.1a4.38,4.38,0,0,0,4.6-1.2c2.8-3.6,3.3-7.8,3.7-12.1.6-5.8.9-11.7,1.1-17.5-7.9-25.2,6.8-38.6,25.9-50.1,10.6-6.4,19-15.7,28.9-23.9,3.6,20-.4,40.3,4.7,59.9,1.2,3.3,2.7,6.3,6.2,7.8a4.17,4.17,0,0,0,4.2-2.6c-.7-21.8,2.7-43.7.1-65.5-2.2-8.2,1.2-13.9,7.1-19.7,16.6-16.3,37.6-27.1,53.5-44.2,3.5-3.7,3.5,5.2,7.3,3,2.4-6.8-1.1-13.2-1.5-19.8-9.9-2.4-13.7,6.5-19.9,10.9-5.7,4-10.3,9.5-16.4,12.9-15-.4-24,7-27.5,23.2C249.72,565.83,256.82,548.83,250.52,533.83Z"/><path class="cls-119" d="M257.72,764.73c3,5,13.2-.2,13.3,10.1.1,5.8,5.9,2.5,9,1.6,5.6-1.5,11.1-3.8,16.6-5.8,10.5-6.2,6.4-16.7,7.8-25.6-8.7,2.1-14.2,13.3-25.4,8.4,3.3-10.2,6.6-20.5,12.3-30.4,5.1-9,10.4-20.9-1.8-30.3-3-2.3-9.2-3.8-5.5-9.4a14.6,14.6,0,0,1,13.9-6.5c5.5.5,8.7,3.4,9.5,9.1,1,7.1-2.9,15.1,3.5,21.3,5.1-6.5,3.4-14.5,4.5-21.8,1.1-6.8,1.8-13.5,7.5-18.6,5.8-5.3,4.4-12.2.6-17.3-4.6-6.3-9.7-.6-13.9,2-15.6,9.6-31,19.4-46.5,29.2-9.4,14.5-9.7,31.1-10.9,47.5C249.32,741,254.92,752.73,257.72,764.73Z"/><path class="cls-120" d="M323.42,555.33c-2.5-4.4-2.5-12-11.1-4.3-18.1,16-37.1,31-55.9,46.2-5,4-8.9,8-4.8,14.7,5.2,3.3,11.4,1.5,17,3.3,12.9,4.1,26.8,6.3,33.9,20.1,5.4-3.4,10.4-7.7,16.3-10s5.9-5.4,5.6-10.9C323.62,594.63,323.72,574.93,323.42,555.33Z"/><path class="cls-121" d="M255.42,411c-1.4,3.1-2.8,6.3-4.3,9.4,13.1,2.6,24.1,11,37.2,13.8,9.8,2.1,19.4,6.1,29.8,3.7,1.3-27.7-3.1-55.3-1-83.1.3-4.5,0-14.4-9.1-5A408.61,408.61,0,0,1,255.42,411Z"/><path class="cls-122" d="M310.92,707.13c.3-5.9-.4-12,1-17.6,3.1-12.3-3.8-17.4-13.8-18.1-10.6-.7-18,6.2-22.6,15.3-2.5,5,2.9,4,5.4,5.3,13.1,6.9,16.5,21.8,5.2,31.8-9.6,8.5-5.8,20-10.7,29.2-.9,1.6.1,5.2,2.8,4.2,6.1-2.2,12.5,6.1,18.1-.6,3-3.6,5.4-7.7,8.1-11.6C306.62,732.43,308.72,719.73,310.92,707.13Z"/><path class="cls-123" d="M302.62,635.13c-4.6-18.1-28.4-29-50.9-23.3.6,23.8,1.1,47.7,1.7,71.5-6.6,14.5-2.9,29.3-1.4,44.1a3.56,3.56,0,0,0,4.8,1.6c-.9-16.6,6.1-32.1,6.5-48.4-10.6-9.5-4.5-21-3.5-31.7.3-2.7,5-4.6,6.2-2.2,8.8,16.7,15.1,1.8,21.9-1.6C293.22,642.53,297.72,638.53,302.62,635.13Z"/><path class="cls-124" d="M287.62,562.63c11.5-9,22.9-18.1,34.4-27.1-.2-7.9,2.9-15.9-1-23.6-13.2.4-22.1,7.2-27.9,18.6-2.4,3.1-7.3,4.1-7.2,9.1C280,547.73,276.32,555.73,287.62,562.63Z"/><path class="cls-125" d="M318.22,437.83c-15.7-4.4-31.5-8.6-47.1-13.3-6.5-1.9-10.9-13.7-19.9-4.2-1.7,3-4.5,5.5-3.7,9.5,24.8,1.1,47.2,11.4,70.6,17.7C318.12,444.33,318.12,441.13,318.22,437.83Z"/><path class="cls-116" d="M338.32,821.93c3.4-41.2,2.6-82.4-.9-123.6-5.8,9.3-5.4,19.3-3.8,29.6,1.2,7.4,2.5,14.9-2.6,21.6-.6.9-2.2,2.1-2,2.3C343.62,773.73,328.42,799.43,338.32,821.93Z"/><path class="cls-126" d="M319.92,473.53c-3.3,15.4-17,22.7-26.5,33.2-5.3,5.7-14.1,9.1-12.8,19.1,5,4.7,9.3.8,12.7-1.9,9.9-8.2,20.9-15.4,27.5-27C320.72,489,324.42,481.13,319.92,473.53Z"/><path class="cls-127" d="M320.72,496.83c-15.2,7.2-23,24.6-40.2,29,.6,11.1,9.1,1,12.5,4.6l27.9-18.6C320.82,506.83,320.82,501.83,320.72,496.83Z"/><path class="cls-128" d="M514.82,832.93a283,283,0,0,0-2.8,35.5h-39.5c.3-10.5-2.9-10-16-3.4-4.4,2.2-9.6,5-13.6,1.2-4.5-4.2-3.3-10.6.6-14.6,11-11.3,5.4-21.7-1.3-31.6-4.8-7.1-10.9-13.4-17-19.5-6.8-6.9-7.6-13.8-2.1-21.6a4.33,4.33,0,0,1,.1-.5,9,9,0,0,1,1.6-2.9c.2-.2.3-.4.5-.5a17.41,17.41,0,0,1,1.4-1.2,8.79,8.79,0,0,1,1-.6c4.4-1.7,8.8-3.7,12.8-1.4a9,9,0,0,1,2.3,1.8l.1.1a7,7,0,0,1,.8,1c-2.5,10.9,4.6,14.4,13.1,16.5,12.1,2.9,24.6,4.2,36.4,8.5C509.72,805.43,517.42,815.83,514.82,832.93Z"/><path class="cls-129" d="M448.52,696.33c-5.3,1.9-10.6,3.9-15.9,5.8-1.5,3-3,6-4.4,9-8.4,16.6-8.2,34.6-8.3,52.6,1,4.7,2,11.3,7.9,9.7,8.3-2.2,20,.3,23.6-10.5,6.4-19.4,8.2-39.6,6.4-59.9C457.32,698.33,455.42,693.33,448.52,696.33Z"/><path class="cls-50" d="M423.72,765.33c1.5-18.1,3-36.1,4.5-54.2-13.2,14.2-21.9,31.4-31.9,47.6-3.5,5.7-6.8,11.2-2.1,17.7,4.4,6.1,10.3,4,16.2,3.1,4.2-.7,8.6-.5,12.8-.8,1.2-.9,2.3-1.9,3.5-2.8C423.32,773.13,420.32,770,423.72,765.33Z"/><path class="cls-11" d="M239.12,358c2.1.2,4.1.3,6.2.5.2-8.1,3.5-16.6-4.5-25.6C240.22,342.43,239.62,350.23,239.12,358Z"/><path class="cls-130" d="M171.92,827.23c.5,13.7,1.6,27.4,2.2,41.2H73c-1.5-1.8-3.1-3.6-4.8-5.3l-.1-.1c0-.2.1-.4.1-.6a201.82,201.82,0,0,1,7.5-25.5,96.4,96.4,0,0,1,4-9.3c.3-.7.7-1.4,1-2.1a5.94,5.94,0,0,1,.4-.8h3.1c.2.1.3.3.4.4a7.61,7.61,0,0,1,2.2,5.6v2a22.53,22.53,0,0,0,0,5.2,46,46,0,0,1,.1-5.2c0-.6.1-1.2.1-1.8.1-.9.1-1.8.2-2.8.3-3.1.4-6.2.7-9.3a45.51,45.51,0,0,1,.9-6.3h0a22.55,22.55,0,0,1,5.8-11.5,18.48,18.48,0,0,1,1.4-1.4c3.7-1.4,6.2-1.3,5.8,3.8s-.5,10.5-.7,15.8v.3c7,8.2-1.2,19.1,3.9,28,9.7-4.4,4.3-20.7,18.3-20.1.1,0,.2,0,.2.1,4.4,1,8.6,1.9,10.6,7.1,2.1,5.4,5.1,3.4,7.9.3a16.68,16.68,0,0,1,1.7-2.6c3.2-3.6,8.1-4.6,12.5-6.4,4.2-1.7,8.8-6,12.7-2.8l.3.3A8.86,8.86,0,0,1,171.92,827.23Z"/><path class="cls-130" d="M246.42,868.43h-72.3c.2-16.3.7-32.6-2.3-48.7-.4-2.4-1-4.9-1.6-7.3-.3-1.3-.7-2.5-1-3.8a30.62,30.62,0,0,1-.5-3.2c0-.4-.1-.7-.1-1.1v-.7c.5-4.2,1.2-8.5,1.9-12.7l.6-4.2a16.35,16.35,0,0,0,.2-2.2,33.66,33.66,0,0,1,1.9-6.9c1-1.5,1.7-3.5,2.7-5.2h0a6.68,6.68,0,0,1,1.7-2,4.23,4.23,0,0,1,3.9-.5c4.7,1.4,3.8,7,4.1,11.1,1.5,17.6,5.9,22.1,22.4,22.6h.1a22.88,22.88,0,0,1,2.8-.8,26.14,26.14,0,0,1,6.9-1h.4c3.1,0,5.9-1.1,8.8-2.2h.1c13.7-5.1,17.2-2.7,17.8,12.2a9.7,9.7,0,0,0,.1,1.7c.3,8.5.8,17.2.3,25.5C244.82,848.83,246,858.63,246.42,868.43Z"/><path class="cls-131" d="M93.62,724.53c5.3-7.9,16.6-10.5,18.9-21,.2-7.1-1.1-12.3-9.9-7.5-4,2.1-7.2,1.5-9.7-2.3-3.3-5,1.2-7.3,3.9-8.9,19.8-12,25.9-28.3,23.8-51.7-1.7-19.4-3.9-39.4.4-60.7-14,6.7-17.4,22.7-31.4,25.8-18.1,24-6.1,51.2-7.1,76.8-.5,12.6-.6,25.6-.4,38.4C82.12,720.73,82.92,727.83,93.62,724.53Z"/><path class="cls-132" d="M176.32,720.63c-1.1-13.3-2.8-26.5-1.5-39.9.4-4-.1-9.2-4.6-11.1-4.1-1.7-6.6,2.6-9.4,4.8-12.1,9.8-24,19.7-36,29.6.7,5.7,2.9,11.7,2,17-3,16.2.2,28.3,18,32.9,1.9-2.1,2.9-4.6,2.1-7.4-2.1-7.5-4-12.4,8.5-11.8C162.92,735.23,173,730.93,176.32,720.63Z"/><path class="cls-133" d="M142.22,834.93c8.9-3.9,18.9-5.1,26.9-11.1,6.1-5.8,2.6-12.6,2-19l-1.2-.2c-5.4-.5-5.6-3.5-3.7-7.5,2-4.3,5.8-7.4,8.3-11.4.4-2.2.9-4.5,1.3-6.7,2-3.5,1.5-7.5,2.1-11.2-2-5.3-6.6-5-10.8-4.4-6.1.8-8.7-3-10.9-7.5a5.83,5.83,0,0,0-3.6-2.3l-2.1.6c-6.5,8.7-.7,20.6-7.9,29.1-7,8.1-7.6,16.6-1.9,25.7C140.42,817.63,139,826.43,142.22,834.93Z"/><path class="cls-119" d="M101.22,819.63c-.6,7.4-1.8,14.8-1.7,22.3.1,4.1-7.1,10.2.4,11.9,6.6,1.5,14.4-1.8,15.3-10.3.7-6.7,1.8-12.5,8.2-16,.6-16.5-4-32.7.6-49.4-14.9.7-18.8,8-18.8,20C105.32,805.23,106.92,813.23,101.22,819.63Z"/><path class="cls-131" d="M110.92,715.93c-5.9,2.6-9.5,9.2-16.7,9.5-16.4,12-12.4,28.4-9.9,44.6,1.4,9.1,9.2,5.3,14.1,7.2,7,2.8,4.7-3.1,5.4-6.1.9-3.7.8-7.2-2.2-10.1,1.6-7.5-3.1-22.5,13.9-11.2,2.4,1.6,4.2-.3,5.3-2.1,1.4-2.5,1.5-6.7-1.1-7C97.92,738.73,110.52,725.33,110.92,715.93Z"/><path class="cls-13" d="M61.42,868.43a19.64,19.64,0,0,0,6.1-4.6,5.72,5.72,0,0,0,.7-.8c.2-.2.3-.4.5-.6h0c9.4-10.6,9.6-24.1,12.3-36.9.1-.3.1-.6.2-.9-1.1-1.2-2.1-2.4-3.2-3.6a17.85,17.85,0,0,1-.2,2.3h0c-.7,6.5-2.9,12.7-10,14-6,1.1-10.3-1.9-14-5.8-1.5-1.6-2.9-3.2-4.3-4.9a10,10,0,0,0-1-1.1c0,2.2.1,4.4.2,6.6h0c.6,11.9,2.2,23.8.2,35.7.2.2.3.4.5.6h12Z"/><path class="cls-134" d="M176.32,720.63c-5.9,3.5-11.9,7.1-17.9,10.6a21.14,21.14,0,0,1-4.4,1.7c-2-5.3-3.9-11.2-10.4-3.6-5.4,6.3-5.1,12.3.6,18.5,1.1,1.2.3,4.1.5,6.3,1.9,0,3.8,0,5.7.1h.2c9.5-2.5,17.7-7.6,25-13.8,6.3-5.4,9-11.8,3.4-19.5A8.31,8.31,0,0,0,176.32,720.63Z"/><path class="cls-135" d="M140.62,808.93c.6-8.6,1.3-17.1,1.9-25.7-3.2-10-8-6.1-8.9.1-2,12.8-5.5,25.9.3,39.2C139.42,819.13,135.22,811.73,140.62,808.93Z"/><path class="cls-136" d="M101.62,761c-.6,3.7-1.1,7.3,2.2,10.1,3.6,2.2,5.8,8.9,11.7,3.2,3.8-3.7,11.6-9.5,8.2-12C118.22,758.43,109.32,753.83,101.62,761Z"/><path class="cls-137" d="M89.82,830.93l6.3-31.2c-5.8-8.4-9-3.4-10.2,2.6-1.4,7.3-1.2,14.9-1.7,22.4l-.3,6.3C86,833.23,87.92,833.43,89.82,830.93Z"/><path class="cls-55" d="M125.92,687.93c.3,4.5,2,8,6.8,4.1,9.4-7.5,20.6-13.9,21.1-28.1-1.2-2.5,1.9-10.1-3.9-6.7C138.32,664,122.22,668.83,125.92,687.93Z"/><path class="cls-138" d="M217.92,577.23c16.5-16.8,33.6-33.4,24-60.5-14.8-.3-28.5-5.7-42.7-8.5-7.4-1.5-14.8-3.8-21.8,1.2,1,14.1,1.9,28.3-.1,42.4,5.1,9.5.9,19.5,1.4,29.2,3.3,6.2-.3,12.5.3,18.8.2,2.6-1,5.6,1.7,7.3s5.5,0,7.2-2c7.1-7.7,14.2-14.2,26.3-10.9,3.5,1,5.3-3.4,4.3-6.9S214.42,580.83,217.92,577.23Z"/><path class="cls-139" d="M241.82,513.93c.3-21.5.6-43.1.9-64.6-4.3-3.8-1.3-9.2-3.4-16.2-19.5,19.6-37,38.9-51.6,60.6-1.9,5.6,1,10.2,5.4,11.7C208.72,511,224.42,517.53,241.82,513.93Z"/><path class="cls-140" d="M241.82,513.93c-13.4-3-26.7-6.5-40.1-8.9-7.2-1.3-11.5-4.9-14.1-11.2-4,4.8-10.2,8.3-10.2,15.7,19,.7,36.8,7.3,55.1,11.4,5.1,1.1,8.3,1.9,9.5-4.1A26.42,26.42,0,0,0,241.82,513.93Z"/><path class="cls-141" d="M979.72,702.43c-25.2,2.8-49.1,11-73.5,17.1-26.5,6.6-53,13.8-79.4,20.7-7.1,6-8.4,14.6-10.5,22.8-3.7,14.5-8.5,28.6-12.7,42.9-2,6.7-4,13.4.6,19.9Q889,810.38,973.62,795C980,764.43,981.42,733.53,979.72,702.43Z"/><path class="cls-142" d="M973.52,868.43c6.1-20.4,10.2-40.8,1.5-61.6a45.38,45.38,0,0,0-2.1-4.5q-84.15,13.95-168.4,27.8h0a8.75,8.75,0,0,0-2.4.3c-7.2,1.4-8.2,7.5-8.8,14.2-1.2,13.3-2,19.8-5.9,23.8h186.1Z"/><path class="cls-143" d="M807.22,743.23v.2c7,11.7,3,23.8,1,35.7-1.5,8.8-3.2,17.6-4.5,26.4-.8,5.1-1.4,10.3-1.8,15.5-.1,1.5-.2,2.9-.3,4.4v1.1c1,1.2,2,2.5,3.1,3.7h0c-.6.3-1.1.7-1.7,1-6.4,4.4-5.9,11.3-5.8,18.4.1,8.1-1,14.2-3.8,18.9h-51.1c1.3-18.7,2-37.4,3.1-56.1,2.9-30,1.5-60.3,8.1-89.9a7.25,7.25,0,0,1,3.4-3.3.1.1,0,0,0,.1-.1,1.42,1.42,0,0,1,.6-.2,5.23,5.23,0,0,1,1.5.7c.2.1.3.2.5.3,4.6,2.9,3.3,8.2,3.4,12.7.2,7.5-1.1,15-1.1,22.5.1,5.7-1.2,13.8,5.6,15.3,6.4,1.4,10.4-6.4,11.8-11.3,4.2-14.1,7-29.1,5.8-43.7-1.3-15.3,4.4-28.6,8.3-42.2,3-10.4,11.9-11.9,19.8-5.3.7.6,1.4,1.3,2.1,2s1.1,1.2,1.7,1.9c-.8,14.3-2.2,28.7-3.2,43-.5,7.4.2,15.3-4.4,21.8a21.18,21.18,0,0,1-2,2.4C807.32,740.33,807.22,741.73,807.22,743.23Z"/><path class="cls-69" d="M973.52,868.43H1018c1.8-14.4,2.5-29,2.9-43.5.1-4-1.4-7.1-3.4-10-.9-1.3-1.9-2.6-2.8-3.8a152.68,152.68,0,0,0-41.7-8.7c.3,1.5.5,3,.7,4.5,2.7,20.6-1.8,41.1-2.5,61.6h2.3Z"/><path class="cls-144" d="M807.12,743.43c-2.5,22.7-5.2,45.3-7.5,68-.5,5-2.9,10.6,1.9,15.1l2.7-.6c4.5-29.3,17.3-56.5,22.6-85.7C820.22,741.23,813.72,742.33,807.12,743.43Z"/><path class="cls-15" d="M1022.92,868.43H1014c.1-1.8.2-3.7.3-5.5.9-16.2,3.4-32.4,1-48.6l-.6-3.3,9.4,1.5h0c.3,1.1.5,2.2.7,3.3C1028.12,833.43,1025.12,850.93,1022.92,868.43Z"/><path class="cls-145" d="M868.72,649.13c-4.6,1.8-9.3,3.6-13.9,5.4a4.4,4.4,0,0,0-4.8,0,17.22,17.22,0,0,0-6.2,8.1c-7.4,18.4-10,38.1-15.5,57.1-1.3,4.6-1.8,9.5,1.5,13.8l150.6-38.7c1.8-26.5,3.6-53.1,5.3-79.6q-52.65,17.1-105.5,34C876.52,650.13,872.52,654.43,868.72,649.13Z"/><path class="cls-146" d="M829.72,733.33c6.2-24.1,12.3-48.3,18.5-72.4-12.6-5-23-.5-32.6,7.6-8.8,22.7-5.5,46.9-8.3,70.3C814.82,737,822.22,735.23,829.72,733.33Z"/><path class="cls-147" d="M1078.52,718.43c11.6-9.9,10.8-18.7-2.2-23.4l-10.5-3.9c-23.9-9.1-26.8-7.4-28.2,17.1A222.5,222.5,0,0,0,1078.52,718.43Z"/><path class="cls-148" d="M890,523.93c19.5-1.9,35.6-13,53.3-19.5,0-1.3,0-2.6-.1-3.9-16.7,6.7-33.4,13.5-50.1,20.2C890.62,520.23,889.32,521.13,890,523.93Z"/><path class="cls-77" d="M1040.42,316.83c3.4,4.1,8.5,2.7,12.7,4-.3-4.4,3.4-10.5-3-12.6C1043.52,306.13,1045,315.43,1040.42,316.83Z"/><path class="cls-149" d="M1603.52,856.23v9.4c-18.2-1.3-36.4-.6-54.6.2a191.24,191.24,0,0,1-28.3.9c-4.5-.2-9-.6-13.4-1.1a.75.75,0,0,1-.5-.1c-23.3-3-46.1-9.6-69.3-13.4-6.6-1.1-14.4-1-20.5-4.7a14.37,14.37,0,0,1-2.5-1.8,17.06,17.06,0,0,1-4.1-5.3c1.1-4.8-1.4-11.4,3-14.5a10.75,10.75,0,0,1,4.9-1.7c21.6,2.2,42.1,10.4,63.9,11.3h0a14.52,14.52,0,0,0,7.8,2.4h1.4c5.3,0,10.8-1.6,16.1-.6C1539.52,843.33,1571.52,849.93,1603.52,856.23Z"/><path class="cls-150" d="M1506.62,865.53c2.8.9,5.7,1.9,8.5,2.9h-106.6c.7-6.2,1.5-12.5,1.8-18.7a32.94,32.94,0,0,1,3.9-1.7,12.21,12.21,0,0,1,2.6-.6c9.6-1.7,18.7,3.3,27.8,5.2C1465.22,856.93,1486.42,859.13,1506.62,865.53Z"/><path class="cls-150" d="M1519.32,870h-.3a.1.1,0,0,0-.1-.1C1519,869.93,1519.12,870,1519.32,870Z"/><path class="cls-151" d="M1518.92,869.93c.1,0,.2.1.4.2h-.3A.31.31,0,0,1,1518.92,869.93Z"/><path class="cls-151" d="M1548.92,865.83a12.34,12.34,0,0,1-6.3,2.6,20.9,20.9,0,0,1-5,0c-5.2-.5-10.6-2-15.4,0h-15.8c-2.6-.4-5.1-.9-7.7-1.2-28.5-4.2-55.7-14.7-84.5-17.2l-3.8-.3v-9.4c1.4.3,2.8.7,4.3,1,37,9,74.1,17.8,112,22.3C1534,864.53,1541.42,865.33,1548.92,865.83Z"/><path class="cls-152" d="M1550.92,713.93c17.5,4.6,35.1,8.4,52.6,13v133.7c-11.8-2.5-23.8-3.9-35.5-6.7-25.5-6.2-51.8-8.8-77.1-15.9-.3-.1-.7-.2-1-.3h0l-7.8-2.4c3.5-1,12,1.2,10-2.6-7.3-13.9,2.1-24,6.1-34.7,5.1-13.6,15.1-24.9,28.7-30.7,9.5-4.1,19.6-5.1,10.8-19.1-2.7-4.3.7-9.6,3.6-13.4,6.8-9,2.4-14.5-5.6-19.1a12.65,12.65,0,0,1,3.3-2.2C1542.92,711.93,1547,712.93,1550.92,713.93Z"/><path class="cls-153" d="M1603.22,675.83c.1-1.4.1-3.1.3-4.7v32.6c-4.8.9-9.7-.8-14.5-2.4-23.2-7.5-47.2-11.6-70.6-18.2a41.48,41.48,0,0,0-20.9-.5c-.4.3,1.8.1,3.8.7,32.4,8.2,64.6,17.4,97.5,24.1a15,15,0,0,1,4.6,1.7v15.7c-5.4,1.8-10-4.5-15.4-5.6-45.7-8.9-89.9-24.5-135.7-32.7a31.15,31.15,0,0,0-12.9,0h0a20.14,20.14,0,0,0-5.9,2.5c-7.4-1.5-14.9-2.9-22.3-4.4,0-.8.1-1.5.1-2.3.3-8.7.7-17.4,1-26.1.7-3.1,1.9-5,3.3-6,3.7-2.8,9.2-.2,13.4.7,16.1,3.5,32.4,6.1,48,11.7-1.6-1.1-2.6-2.7-2.2-5.6.7-4.8,5.7-6.2,10.1-6.6a86.26,86.26,0,0,1,29.1,2.1,44.39,44.39,0,0,0,32.8-3.4c.1,0,.1-.1.2-.1s.4-.1.6-.1c.6-.1,1.2-.2,1.7-.3h0a43,43,0,0,1,12.4-.1c8.3,1,16.3,3.8,24.5,6.2a6.18,6.18,0,0,1,2,1.5,3.59,3.59,0,0,1,.7,1,.52.52,0,0,1,.2.4.31.31,0,0,1,.1.2,4.88,4.88,0,0,1,.3.7,5.09,5.09,0,0,1-.5,2.2c0,.1-.1.1-.1.2a5.16,5.16,0,0,1-1.8,1.8c-15.3,5.4-31.5,7.2-47.8,10.6,16.2,4.2,31.8,8.1,47.3,12.6C1596.22,688.53,1602.22,687.43,1603.22,675.83Z"/><path class="cls-154" d="M1603.52,722.33v8.9l-59-13.5c-2.9-.7-5.8-1.3-8.7-2h0q-51.15-13.5-102.3-26.9a19,19,0,0,1,1.9-3.5c4.8-6.9,12.2-5.1,19.9-3.2,28.1,7,56.3,13.8,84.4,20.8,16.7,4.1,33.5,7.9,49.8,13C1594.42,717.43,1597.82,724.23,1603.52,722.33Z"/><path class="cls-155" d="M1603.52,607.93v14.4c-1.8,7.6-2.2,15.5-3.3,23.2-.8,5.8.3,15.6-11,12.1-.2-.1-.4-.1-.6-.2h0c-.2-.5-.3-.9-.5-1.4-1.9-6.3-.7-12.9-.8-19.3-.1-14.7-10.6-15.8-20.7-17-11.9-1.4-9.8,8.6-11.4,15.4-.6,2.7-1.1,5.5-2.5,7.9l-.3.6c-.1.2-.2.3-.3.5a16.19,16.19,0,0,1-3.4,2.6,11.11,11.11,0,0,1-1.6.7c-.1,0-.2.1-.4.1a6.47,6.47,0,0,1-1.3.4c-3.3.8-6.9.2-10.6-.8a12.18,12.18,0,0,1-4.2-2.9c0-.2-.1-.5-.1-.7V643a5.31,5.31,0,0,1,2.5-4.3c8.4-5.8,9.7-14.1,7-22.8-2.4-8.1-10.9-7.7-17.4-9.5-5.3-1.5-11.1-2.3-13.5,4.5-2,5.9-1.6,11.7,3.7,16.1,2.1,1.7,4.7,2.6,6.9,4.1,3.3,2.2,9.3,3.3,7.5,8.6a4.44,4.44,0,0,1-1.3,2.1,6.21,6.21,0,0,1-2.5,1.4h0c-2.3.7-5,.5-7.4.6-28.9-4.2-56.7-13.1-85-20-5.2-1.3-10.3-3.1-14.5-6.4a24.4,24.4,0,0,1-3.7-3.5c-1.9-19-4.3-38,2.6-56.4a24.43,24.43,0,0,1,1-2.4h0c8.5,1.7,17,3.5,25.4,5.2,2.1,1.1,4.2,2.2,6.3,3.2,19.6,8.9,41.4,10.7,61.7,17.3C1540.72,590.73,1572.82,596.73,1603.52,607.93Z"/><path class="cls-156" d="M1534.22,644c-1-.1-2.1-.2-3.1-.4-3.7-3.7-9.5.1-13.2-3.7-35.7-6.4-70.3-17-105.3-26-1.6,14-2.6,28.1-.4,42.1,5.2-5.2,10.8-2.5,16.5-1.2,22.7,5.4,45.4,10.5,69.5,16-4.4-11.2-18.1-3.6-21.7-15.5,14-2.5,27.5-1.2,40.9,2.5,11,3,21.1,2.5,29.3-6.6a2.81,2.81,0,0,0,.1-3.9C1542.92,645,1537.72,647.73,1534.22,644Z"/><path class="cls-157" d="M1603.52,610.73v55.7c-5.6.9-10.3-1.5-14.6-5.8l-.2-.2c-.1-1-.1-2-.1-3h.5c7.2-.8,6.5-6.6,6.8-11.6.6-7.9,1.2-15.7,1.5-23.6.2-5.1,1.6-9,5.2-11C1602.92,611,1603.22,610.93,1603.52,610.73Z"/><path class="cls-158" d="M836.32,400.63c-1.4,22.3-6.1,44.4-4.7,66.9,2.1.6,4.3,1.1,6.3.2,29.7-13.5,60-25.6,87-44.2a3.92,3.92,0,0,0,1.7-4.1c6.8-24.5,13.7-49.1,20.7-74.2-7.9-1.7-12.4,6.6-19.4,5.7-5.6,2.4-11.4,4.4-15.7,9C886.72,373,860.92,385.63,836.32,400.63Z"/><path class="cls-159" d="M926.72,419.43c-30.3,18.7-63.9,31.1-95.1,48.1-.1,1.1-.2,2.3-.2,3.4,4.8,3.6,9.4.9,13.5-1.1,23.2-10.9,46.4-21.8,69.2-33.5,3.5-1.8,5.9-4.6,8.2-7.5,12.3-5.8,24.7-11.6,37-17.4a23.58,23.58,0,0,1,.4-2.8c-1.4-.2-2.7-.3-4.1-.5C944.72,408.83,936.92,417.33,926.72,419.43Z"/><path class="cls-160" d="M836.32,400.63c26.2-11.9,52.3-24.2,76-40.8-15.8.7-26.4,12.7-40.1,18-12.3,4.7-22.4,14.5-36.1,16.2C832.72,396.43,836.42,398.43,836.32,400.63Z"/><path class="cls-161" d="M922.32,428.93l-90.9,42-.2.3c-9.7,20.4-11.5,42.3-11.6,64.4,0,14.2,3.3,16.7,16.7,12.1,16.3-5.5,33.6-9,46.9-21.1,2.3-.9,4.5-1.8,6.8-2.7l3.2-3.2C901.52,489.73,917.32,461,922.32,428.93Z"/><path class="cls-162" d="M883.32,526.63c-20.6,3.5-38,16.7-59.6,20.5,1.5-26.1,2-51.2,7.6-75.9-19.2,23.3-19.2,23.3-49.4,13.1,1.7,4.4,1,7.9-3.7,9.9-7.5,6.4-6.1,15.5-6.9,23.8-3.1,32.3-2.8,64.9-7.9,97a53.25,53.25,0,0,0-2.5,15.3c-1.2,23-3.1,46-4.4,69-.4,6.8-2,14,3,20.1-.7,12.3-1.3,24.6-2.2,36.9a28.53,28.53,0,0,0,3.1,15.3c5,10.6,8.5,10,14.6.8,6.6-9.9,10.2-18.7,11.7-31.8,2.5-21.2.5-43.6,8.4-64.4,4.4-11.5,11.8-10.4,20.6-7.6,10.9-2.5,21.7-5.1,32.6-7.6,1.3-2.2,2.5-4.4,3.8-6.6-8.7-5.5-16.6.2-24.6,2-7,1.6-9.7.2-10.1-7.4-1.1-22,2.4-27.2,24.2-34.9,9.5-3.4,19.7-5.9,27.1-13.6.1-1.1.1-2.2.2-3.3a2.57,2.57,0,0,0,.9-2.7c-.3-.9-.6-1.3-.9-1.3-12.5-1.4-22.3,6.8-33.7,9.5-7.9,1.9-11.3,0-10.8-8.2.4-6.9,1.2-13.9,1.3-20.8,0-11,5.1-17.9,15.5-21.8,9.5-3.6,18.9-7.7,28.2-11.8,5.3-2.3,11.4-3.8,13.8-10.1A19,19,0,0,1,883.32,526.63Z"/><path class="cls-163" d="M883,529.93c-15.9,6.6-31.6,13.5-47.6,19.5-9.1,3.4-14.3,8-14,18.5a185.08,185.08,0,0,1-2,28.8c-1.7,11.9,1.2,16.1,13.5,10.9,11.9-4.9,24.2-8.7,36.4-13,1.6.9,2.4.5,2.3-1.3q7.8-25.05,15.6-50C888.82,537.93,892.82,531.83,883,529.93Z"/><path class="cls-164" d="M871.52,593.33a5.76,5.76,0,0,0-2.3,1.3,10.05,10.05,0,0,1-.4,2.5c12-.7,23-4.6,33.3-10.8a5.13,5.13,0,0,0-2.8-2.8C890,586.83,880.82,590,871.52,593.33Z"/><path class="cls-165" d="M899.32,583.53c.9.9,1.8,1.9,2.8,2.8,9.7-2.1,19.1-4.7,26.9-11.2C917.92,573.63,909.62,581.93,899.32,583.53Z"/><path class="cls-166" d="M868.62,600.53c-8.1,2.8-16.3,5.4-24.3,8.4-31.3,11.5-32.2,13.2-31.3,47.1.2,6.4,1.1,8.7,8.1,6.5,10.1-3.3,20.6-5.5,30.9-8.1l1.4-.1,1.4.2C859,636.43,867,619.23,868.62,600.53Z"/><path class="cls-167" d="M578.22,656l-3-.3c-6.2,17.7-7.9,36.1-7.5,54.8-3.6,28.6-4.1,57.6-8.7,86.1a77.73,77.73,0,0,0-2.7,16.6c.4,7-1.9,14.4,3.4,20.5,17.4-2.6,14,12.3,17.8,21.2,3.7,2.2,7.2,2.4,10.4-.8,1.7-3.9-1.5-7.1-1.7-10.8-.1-4.5,2.3-3.8,5.1-3a4.82,4.82,0,0,0,3.6-1.4c-1.6-26.1-3.2-52.1-4.7-78.2-2.9-22-5.7-43.9-4.8-66.1.3-6.4,1.1-12.8-2.3-18.7C578.12,670.13,587.82,660.63,578.22,656Z"/><path class="cls-3" d="M578.22,656c6.2,5.4-1.4,14.4,5.1,19.7,2.7-32.8-3.3-65.2-5-97.8-.3-5.3-.4-10.7-.6-16-1.1-.1-2.1-.2-3.2-.2C571,593.33,581.12,624.43,578.22,656Z"/><path class="cls-3" d="M565.92,444.43c.2,31.6.1,63.2,7,94.3C574,507,572.42,475.53,565.92,444.43Z"/><path class="cls-168" d="M784.32,395.43c-.3,8.1-1,16.1-1.5,24.2h0v.3l-.1,1.7c-.2,2.6-.4,5.2-.7,7.8-1.7,2.9-3.3,5.9-4.9,8.9-11.6,22-21.5,45-39.6,63a148.38,148.38,0,0,0-12.9,14.5c-5.6,7.1-7.2,14.3-1.6,22.2,3.9,5.4,6.5,11.3,3.8,18.1-9.8,24.4-14.6,50.5-30.6,72.7-10.4,14.4-16.8,32-11.6,50.5,3.9,14.1,1.4,27.2-4.6,39.2-10.2,20-15.9,41.1-19.1,63.1-1.3,9.2-3.9,17.6-11.3,24.3-9.1,8.2-16.5,17.3-10,31,1.9,4-.4,8.4-2.4,12.3a85.62,85.62,0,0,0-6.9,19.3h-34.2c-.2-4.5-.5-9-.9-13.4a7.92,7.92,0,0,1,2.3-5.8h0c0-.1,0-.2.1-.2,5.6-24.4,3.5-50.5,15-73.6,13.6-27.5,6.6-61.5,27.7-86.6a5,5,0,0,0,.6-4.6c-4.5-9.4,1.2-16.5,5-24,7.3-14.2,10.8-29.5,9.5-45.2-1.5-18.8,5.5-35.6,10.7-52.7,3.2-10.4,12.9-19.7-.4-29.8-2.3-1.8-1.5-6.6.9-8.9,5.9-6,5.7-13.5,6.4-21,.9-8.7,3.7-17.6,9.7-23.5,11.7-11.4,17-26,23.5-40a48.74,48.74,0,0,1,14.8-18.7c6.7-5,16.3-8.4,8.5-19.8-1.6-2.3.4-6.4,3.2-6,13.4,1.6,20.9-10.2,32.4-13.1,10.6-2.7,16.4-1.3,18.4,5.6A24.11,24.11,0,0,1,784.32,395.43Z"/><path class="cls-169" d="M600.32,868.43h-32.2a59.78,59.78,0,0,0-1.6-10.9,10.54,10.54,0,0,1,.7-1.1c.2-.2.4-.5.6-.7,2.4-2.7,5.5-3.3,9.3-2.2.1,0,.3.1.4.1h0c3.6.4,7.4,1.3,10.5-1.7-.1-1.3-.2-2.6-.2-3.8,0-3,.4-5.8,2.4-8.3.3-.3.6-.7.9-1,.1-.1.2-.2.3-.2,1.3.1,2.5.1,3.8.2.8,3.4,1.6,6.7,2.4,10.1v.2h0c.8,5.2,2.1,10.3,2.5,15.5C600.12,865.93,600.22,867.13,600.32,868.43Z"/><path class="cls-170" d="M571.72,710.73c.3-18.4,6.2-36.4,3.6-55-2.8-27.1-5.6-54.1-8.4-81.2a10.33,10.33,0,0,0-5.7-4.1c-9.8-2.7-17.7,2.8-26.1,6.2-6.3,2.5-13.1,4.8-13.8-5.9-.7-10-9.5-10.4-16.1-13.5-18.3-8-34.7-6.5-48.2,9.5-5.8,9.5,1.3,14.9,7.3,19.3,10.5,7.7,22.8,11.5,35.9,12.9,19.4,2,32.7,14.3,26.2,31.9-9.3,25.1-1.2,49.3-3.9,73.6C536.52,718,560.52,721.13,571.72,710.73Z"/><path class="cls-171" d="M456.92,566.83c1.6-.2,3.8.2,4.7-.6,13.4-12.8,28.6-11.5,44.4-5.7,17.4,7.6,35.5,12.5,54.5,13.3,2.1.3,4.1.6,6.2.8-1.7-25.4-3.4-50.9-5.1-76.3-12.6-2.7-25.2-5.5-37.7-8.2-7.7-4.2-3.6-11.2-4-17.1-.2-2.6.2-5.5-2.7-6.7-3.9-1.6-6.2.7-7.1,4-1.6,6-5.7,8.4-11.5,8.7-5.4,3.7-11.8-3.7-17,1.6-7.5,13.1-4.8,28.3-8.3,42.3-3,12.1-4.5,24.2-16.3,31.6-2.7,1.7-3.8,5.1-3.3,8.6C454.82,564.43,455.92,565.63,456.92,566.83Z"/><path class="cls-172" d="M782,429.43c-.1,2-.2,3.9-.4,5.9h0c-.9,15.1-1.8,30.3-2.7,45.4-.3,4.5-.5,8.9-.8,13.4v.1h0c-2.3,31.5-4.4,63-7.2,94.4-.8,9.4,1.4,19.4-4.3,28.1a25.5,25.5,0,0,0-3.8-.2h0c-8,.5-11.4,7.1-13.3,14-5.7,20.9-23.1,40-10.6,63.9.5.9.2,2.2,0,3.2-5.7,27.3-11,54.7-25.4,79.4-7.6,13-18.1,29.1-14,41.5,4.4,13.4,1.8,21.7-3,32.3-2.5,5.6-3.1,11.6-3.6,17.7h-65.6c1.4-9.1,2.3-18.6,9.1-26,.9-.9,1.1-3.7.4-4.6-14.2-18.5,2.6-27,12.5-37.2a22,22,0,0,0,6.1-12.6c4.2-24.7,7.7-49.2,21-71.7,4.7-7.9,10-19.2,5.7-29.3-9-20.9-3.2-41.1,8.2-56.7,17.1-23.4,21.1-51.3,33.4-76.1,1.9-3.9.7-7-1.4-10.5-11.7-19.6-10.6-20.6,4.9-38.1,10-11.4,24.3-20.2,28.6-35.6,3.9-14,12.9-24.3,21.6-34.8C778.92,433.33,780.42,431.43,782,429.43Z"/><path class="cls-173" d="M453.72,563.13c30.9-20.3,25.3-52.8,27.9-82.5-7.5,5.2-15,10.3-22.6,15.5-2.6,18-5.5,36-7.8,54.1C450.72,554.43,447.92,559.83,453.72,563.13Z"/><path class="cls-174" d="M498.62,479c18.8,17.3,10.5-7.3,16.4-10.6,8.8,4.8-4.7,19,8.9,21.6-6.2-8.5-1.1-17.8-1.8-26.7-.3-3.3,3-8.3-2.3-9.7-4.6-1.2-9.3,1.8-9.7,6.4C509.42,468.73,502.62,472.93,498.62,479Z"/><path class="cls-175" d="M571.72,710.73c-17.6,7.3-33-2.5-49.2-6.3-10.1.8-19.2-3.6-28.9-5.2-1.2,6.7,4,10.7,6.8,15.5,10.2,17,4.3,35.4,4.6,53,.1,7.6-11.5,4-14.9,9.8-3,14,7.8,14.4,15.9,13.6,19.3-2.1,37.7,1,56,6.4,5.8-4.2,3.9-10.7,4.3-16.3C568.32,757.93,569.92,734.33,571.72,710.73Z"/><path class="cls-176" d="M490.92,777.23c15,2.2,23.3,0,19-19.1-3.2-14.1,4.8-29.5-4.7-43.9a100.61,100.61,0,0,0-11.7-15l2.4-35.7c-5.6-1.9-8.2,2.6-11.5,5.4-5.2,6.2-.6,17.6-11.2,21a61.38,61.38,0,0,0-8.6,1.2c-1.3.7-2.7,1.3-4,1.9-4.3.1-8.9-1-12.1,3.2,4.7.7,5.8,3.6,5.7,7.9a325,325,0,0,1-5.7,56.5c-1.6,8.4-9.1,7.5-14.8,9.4-4.9,1.7-9.6,2.9-10-4.8-3.8,4.9-4,8.8,3,10.7,5.5-.9,10.9-1.7,16.4-2.6C459,774.53,474.32,783.63,490.92,777.23Z"/><path class="cls-177" d="M486.32,669.63c4.8.4,6.2-4.5,9.7-6.1.7-5-1.7-13-5.8-8.7-11.1,11.5-34.4,14.6-29.6,38.2,1.5.2,3,.4,4.5.7,4.9-5.9,5-15.4,14.2-17.9C482.72,675.13,482.32,669.93,486.32,669.63Z"/><path class="cls-178" d="M291.62,868.43h-38.7c-1.9-10.5,3.1-20.8,3.7-31.1.8-12.4-2.2-24.4-1.5-36.8.6-10.4,8.3-12.9,15.1-13.7,6.3-.7,4.8,7.7,6,11.9a20.55,20.55,0,0,1-3.3,18.2c-1.9,2.5-5.5,7.3,1.2,8.2,18.7,2.6,15.8,16.5,16.8,29.1C291.22,858.83,290.82,863.83,291.62,868.43Z"/><path class="cls-179" d="M253.92,750.83h0a7.4,7.4,0,0,1-1.6,3.5l-.3.3c-1.8,6.7-5.7,13-4.3,20.2,3.2,16.8.4,33.8,1.5,50.6,1,14.3-2.3,28.7-1.2,43h-4.7c-.4-23-2.5-45.7-3.7-68.1-10-2.2-13.7,12.5-23.2,4.8h0a12.57,12.57,0,0,1,1.8-3.2c2.6-3.5,6.6-6.3,7.4-10.8a8.81,8.81,0,0,0,.2-1.7,4.1,4.1,0,0,0-.1-1.1c2.8-18.9,5.4-37.8,10.1-56.3a6.89,6.89,0,0,1,1.1-1.3,2.09,2.09,0,0,1,.6-.4,5.28,5.28,0,0,1,2.5-.8.6.6,0,0,1,.4.1c.4.1.8.1,1.1.2a14.79,14.79,0,0,1,9.1,6c.3.4.5.8.8,1.2h0a21,21,0,0,1,1.3,2.6h0a17.55,17.55,0,0,1,1.2,3.2C253.72,745.43,254.42,748.23,253.92,750.83Z"/><path class="cls-118" d="M252.72,741.83c-.2,4.3-.5,8.5-.7,12.8,1.9,3.4,3.8,6.7,5.7,10.1-.3-11.9-.6-23.8-.8-35.7-1-.1-2-.3-3.1-.4C249.32,732.73,250.52,737.23,252.72,741.83Z"/><path class="cls-48" d="M315.82,775a38.46,38.46,0,0,0-4.8-.1c-3.6.5-7.5.9-9.2,4.7-.3.7,1.4,2.8,2.6,3.4,4.4,2.3,6.9-.5,9-3.9.8-1.3,1.6-2.7,2.4-4.1Z"/><path class="cls-127" d="M287.62,562.63c-5.8-7.3-1-15.4-1.8-23.1-11.2-5.2-22.9-7.4-35.2-5.6-2.5,19.2-1.9,38.1,3.7,56.8,12.3-3,8.6-14.4,12.6-21.4C272.32,559.33,282.12,568.93,287.62,562.63Z"/><path class="cls-180" d="M247.32,676.53c-.8-21.8-1.6-43.5-2.6-68.2-22.2,17.9-42.7,34.6-63.4,51.1-4.5,3.6-2.9,7.7-1.8,11.6,1.6,5.7,2.8,11.4,1.9,17.3,1.8,4.1,4.5,6.7,9.4,5.9,6.2-2.1,4.4-7.5,4.9-12,.3-14.7,9.8-8.2,16.9-7.3,6.9.9,11.8,4.3,14.4,10.8C236.62,688.73,242,682.53,247.32,676.53Z"/><path class="cls-56" d="M237.72,731.33a24.62,24.62,0,0,1,2.6-.2c6.1-6.3,10.1-13.8,11.1-22.6.8-7.1-.9-12.8-8.7-14.9-17.8,2.1-29.5,17-46,21.7-8.3,3.5-9.8-8.1-16.7-7.6-.4,4.4-.7,8.7-1.1,13.1,1.7,10.3-3.8,16.4-12.1,21.4-5.7,3.5-12.7,5.5-16.3,11.9,1.2.2,2.3.5,3.5.7,1.1,1.2,2.8,2.5,4,1.8,10.4-5.4,14.9.2,17.8,9-.1,4.4-.1,8.8-.2,13.3,1.6-2.1,3.1-4.1,5-6.6,4.4,9.5-6.2,22.6,5.9,28.9,6.7,3.5,12.8,13.6,22.9,6.2,2.3-5.5,3-10.4-4.1-13.1-8.7-3.3-10.6-10.5-9.2-18.5,2.8-16.6,1.6-34.1,11.2-49.1,8.8-3.5,16.2-10,25.8-12.6C235.92,719.53,231.52,726.93,237.72,731.33Z"/><path class="cls-181" d="M217.92,577.23c-6.6,3.6.1,9.9-3.3,15.3-17.6-14.4-21.7,6.7-32.1,12.1-6.9-7.1,5.5-17-3.7-23.6-2.1,21.8-2.2,43.5,2,65.1,5.9-8.2,6.3-21.8,21-21.3,3.9-12,13.1-4.2,19.9-5.2-1.7-18.5,9.5-30.1,22.3-40.7-.3-3.6.7-9.3-1.2-10.4-5.2-3.2-5.7,4.7-9.4,5.7C228.42,575.73,225.62,589.43,217.92,577.23Z"/><path class="cls-182" d="M195.92,718.33c17.5-2.1,29.1-15.3,43.7-22.7,3.8-3.9,14.6-2,10.5-12.4.1-2.6-.3-5.1-2.8-6.7-8.2-.6-12.2,8.4-20.1,8.6-9.5,2.8-19.3,9.6-27.2-3.4-1.3-2.2-6-2-8.1,1.8-1.3,3,3.4,6.3-.6,9.1C181.72,703.13,183.72,711.53,195.92,718.33Z"/><path class="cls-183" d="M244,578.93c-26.8,15.4-28.6,18.8-22.3,40.7C236.62,610.13,250.22,599.93,244,578.93Z"/><path class="cls-116" d="M250.22,683.13c-.2,7-9,6.6-10.5,12.4,12.8,3.1,10.4,12,6.1,19.5-3,5.2-5.1,10.2-5.3,16,4.1,3.6,8.2,7.2,12.3,10.7.4-4.4.7-8.8,1.1-13.1,1.8-15.1,1-30.2-.4-45.3A32.51,32.51,0,0,1,250.22,683.13Z"/><path class="cls-184" d="M201.82,624.83c-16.1-5.7-19-2.7-21,21.3,5.6,1.9,13.3-1.6,17.8-7.9C201.52,634.23,201.42,629.53,201.82,624.83Z"/><path class="cls-185" d="M195.92,718.33c-6.5-7.7-7.8-16.3-4.5-25.7l-9.9-4.2c-.4,6.5-.9,12.9-1.3,19.4C185.12,711.73,183.42,725.33,195.92,718.33Z"/><path class="cls-186" d="M560.72,813c-2.8,6.6-2.4,13.1-1.6,19.7.1,1.2.3,2.4.5,3.6.1,1,.2,2,.4,3,.2,1.6.3,3.3.4,4.9-.3,8.1-1.1,16.1-2.2,24.2h-51c-.1-9.4.3-18.8,2.7-28.2,5.9-22.8-1-32.1-24.5-38-10.9-2.7-21.8-5.2-32.9-7.2-7.9-1.4-13.6-7-17.8-11.9-3.6-4.2,6.4-5.1,8.3-9.5,0-.1,0-.1.1-.2,16.5-8,31.4,4.9,47.4,3.8h.6c2.7,15,14,9.7,22.7,9,16.4-1.3,32.3-1.9,45.6,9l2.7,2.4C561.62,802.83,561.12,807.93,560.72,813Z"/><path class="cls-167" d="M573.52,868.43H553c1.1-8.6,2.3-17.1,3.3-25.7l.2-.2c1.4-1.5,1.3-5,3-6.1a2.94,2.94,0,0,1,2.5-.2c.2.1.4.1.6.2a10.41,10.41,0,0,1,1.2.5c3,5.9,2.7,12.5,4,18.8.1.3.1.7.2,1A16,16,0,0,1,573.52,868.43Z"/><path class="cls-187" d="M205.42,722.63c-4.6-.1-6.7,2.3-7.2,6.8-2.1,16.4-3.8,32.9-6.6,49.3-1.7,10.3,2.6,19.3,11.2,19.8,9.2.5,2.7,7.8,6.7,9,2.3-.8,4.5-1.6,6.8-2.4,6.7-2.1,13.6-4.1,12.9-13.3-17.4-11.6-17.6-12.5-4.8-29.1,10-13.1,7.8-23.7-6.8-29.7C212.22,730.73,209.32,726.33,205.42,722.63Z"/><path class="cls-59" d="M61.42,868.43h19.9c-2.5-3.5-8.2-4.6-12.6-6h-1.8c-4,0-7.8.3-8.4,6h2.9Z"/><path class="cls-188" d="M171.22,868.43c-.2-14.9-1-29.8-2.1-44.7a2,2,0,0,1,.1-.7c.4-3.5.8-7.1,1.1-10.7.3-2.6.5-5.2.8-7.7,9.5,18,2.5,37.6,5.1,56.3.3,2.5.6,4.9.8,7.4h-5.8Z"/><path class="cls-189" d="M174.52,785.63c-8.5,2.2-14.5,6.6-13.8,16.5.2,3.4-2.3,8.5,2.4,9.7s3.4-5.8,6.9-7.3C174,798.83,174.12,792.23,174.52,785.63Z"/><path class="cls-56" d="M89.82,830.93H84c-.4,5.9-2.4,12.1,2.9,19.2C90.62,842.93,89.72,836.83,89.82,830.93Z"/><path class="cls-190" d="M176,765.63c.7-19.8.7-19.8-21.8-10.9C152.22,776.73,167.12,765.33,176,765.63Z"/><path class="cls-191" d="M766.62,616.73c-.3,4.2-.7,8.4-1,12.6-3.5,5.3-2.1,11.4-2.7,17.2-2.4,23.1-1.8,46.4-5.5,69.4-.2,1-.3,2-.5,3-.1.4-.1.8-.2,1.1h0c-2.2,30.9-4.5,61.9-6.7,92.8a18.67,18.67,0,0,0-1.8,5.5h0c-.8,4.4-.3,8.9-.8,13.3-1.2,12.2-1.7,24.4-2.4,36.6h-57.4c1-7.5,2.2-14.8,5.6-21.5,5.1-10.4,10-17.8-1-27-2.8-2.4,1-6.9,2.7-10.2,7.9-15.5,13.2-32,21.9-47.4s11.2-34.3,16-51.8c2.8-10.3,5.6-20.8-3.1-30.4-4.1-4.5-3.9-10.2.2-14.7,7.8-8.3,9-19.2,12.6-29.2,2.7-7.6,4.6-15.7,10.6-21.5,3.5-3.4,7.8-7.5,10.9-4.2A17.85,17.85,0,0,1,766.62,616.73Z"/><path class="cls-142" d="M749.92,812.93c-1.1,18.5-2,37-3.4,55.5h-2.9c1.8-16.6-.1-33.6,4.5-49.9h0A52.23,52.23,0,0,1,749.92,812.93Z"/><path class="cls-172" d="M765.62,629.33c-7.1,8.3-4,18.5-4.9,27.9-1.9,20.9-2.8,41.9-4.1,62.9.9-.3,1.9-.6,2.8-.8C761.52,689.33,763.52,659.33,765.62,629.33Z"/><path class="cls-192" d="M1519.82,850.73c-2,.4-4.8,0-4.7,3,.2,3.9,3.9,4.7,6.7,5.6,2.1.7,4.1-.6,4.3-3.3C1526.32,851.73,1523.22,851.13,1519.82,850.73Z"/><path class="cls-193" d="M1603.52,664.23v28.5c-3.4,2.5-10.5-1.9-27-5.6a209.35,209.35,0,0,1-23.2-6.3c-8.3-2.8-18.2-2.1-26.8-10.4,22.2-3.6,42.2-6.8,62.2-10.1.1,0,.2.1.3.1C1593.82,661.73,1598.62,663,1603.52,664.23Z"/><path class="cls-194" d="M1527.42,680.33c25.3,6.8,50.7,13.1,76.1,19.5v12.9c-38.8-8-77.4-17.2-116.5-29.9C1501.42,674.33,1514.22,676.83,1527.42,680.33Z"/><path class="cls-157" d="M1546.72,648.23v2.9l41.8,6.3c8.4-11.6,4.5-25.5.3-35.3-3.5-8.3-19-7-29.1-7.8-8.7-.7-7.6,8.6-8.2,14.7-.4,4.3-.6,8.5-.9,12.8C1559.22,649.93,1545.32,644.53,1546.72,648.23Z"/><path class="cls-195" d="M1517.92,639.83c3.5,4.5,8.5,3.5,13.2,3.7,16.9-2.3,13.6-15.5,14.5-26.4,1-12.2-8.7-11-16.1-13.1-23.6-6.6-29.4-2.5-26.5,18.3,1.5,10.7,11.7,9.4,17.7,13.8.8.6,7.4-.6,2,3.5C1521.62,640.43,1519.52,639.83,1517.92,639.83Z"/><path class="cls-195" d="M1546.72,648.23c4.2.3,8.5.6,16.7,1.1-6.5-3.7-9.7-5.6-12.9-7.5-4.9,5.1-10.9,1.6-16.4,2.1C1537.22,648.73,1542.42,647.13,1546.72,648.23Z"/><path class="cls-196" d="M562.52,836.83c2.2,6.5-5.6,15.8,5.5,19.9,3.2-1,6.3-2,9.5-3.1.3-3.1.3-6.3,1-9.3,3.7-16.3-3.4-16.9-15.4-10.8-1,.6-1.5,1.3-1.3,2S562.22,836.73,562.52,836.83Z"/><path class="cls-197" d="M587.92,851.93c4.9-3.5,3-8.7,3.4-13.3-2.9-2.4-.1-7.8-4.6-9.1-2.3-.6-3.9,1.7-3.6,3.8C583.92,839.73,577.12,848.13,587.92,851.93Z"/><path class="cls-175" d="M562.52,836.83c.2-1.1.3-2.2.5-3.3-5.6-6.3-.8-13.8-2.4-20.5-4.6,9.4-3.8,19.7-4.4,29.7C558.42,840.73,560.42,838.73,562.52,836.83Z"/><path class="cls-198" d="M560.62,573.73c-17.6-6.8-35.8-10.9-54.5-13.3,4.5,4.4,14,3.3,10.8,15.6-2.5,9.9,7.9,8.8,14.9,6.6C541.32,579.53,549.42,571.53,560.62,573.73Z"/><path class="cls-199" d="M478.52,672.93c-12.4,1.9-14.2,10.6-13.5,20.9,3.2.4,6.3.8,9.5,1.1C478.42,688,483.42,681.33,478.52,672.93Z"/><path class="cls-200" d="M478.52,672.93c-1.3,7.3-2.6,14.7-3.9,22,14-3.8,8.7-16.4,11.7-25.2C481.32,665,481.72,673.23,478.52,672.93Z"/><path class="cls-201" d="M205.42,722.63c1.8,8.1,1.3,18.3,15,14.3,2.7-.8,5.8.8,5.8,3.9,0,6.7,1.7,14.3-4.6,19.3-3.7,2.9-8.1,4.6-9.6,9.9-4.4,15-2,18.3,17.2,21.6,1.9-20.3,9.3-39.8,8.5-60.4-1.7-6.9,5.2-16.7-2.2-20.2-6.9-3.3-15,2.9-21.6,7.7C211.52,720.73,208.32,721.43,205.42,722.63Z"/><path class="cls-185" d="M192,683.43c3.3-.5,8-.9,8.8,2.1,6.5,23.8,16,5.3,24.4,2,.9-.4,1.4-1.6,2.1-2.4,1.4-5.2,2.6-10.3-5.2-11.6-4.2-.7-8.5-1.3-12.2-3.1C195,663.13,190.22,668.73,192,683.43Z"/><polygon class="cls-2" points="1093.02 66.93 1018.52 36.03 981.32 66.83 995.12 66.33 1022.32 52.93 1063.82 64.93 1093.02 66.93"/><polygon class="cls-5" points="570.42 32.63 514.02 7.03 511.92 28.83 570.42 32.63"/><polygon class="cls-59" points="25.52 868.43 0.32 868.43 -6.28 609.53 -6.48 604.03 15.92 603.23 15.92 603.73 16.12 608.83 18.32 668.43 18.42 671.93 22.42 784.63 22.52 786.03 22.62 788.93 22.82 795.53 22.92 798.53 23.72 820.63 25.52 868.43"/></g><rect class="cls-202" x="0.62" y="2.63" width="1623.5" height="863.8"/></g><g id="Layer_2" data-name="Layer 2"><path class="cls-203" d="M1591,872c-85.23-12.81-213.8-29.18-371-32-240.53-4.32-225.08,26.51-376,15-242.82-18.52-471.58-112.75-616-79-53.93,12.61-106,33-106,33A778,778,0,0,0,1,869Z"/></g></svg>