<svg id="Layer_1" data-name="Layer 1" xmlns="http://www.w3.org/2000/svg" xmlns:xlink="http://www.w3.org/1999/xlink" viewBox="0 0 160 30"><defs><style>.cls-1{fill:#1e009b;}.cls-2,.cls-9{fill:#0067b2;}.cls-3{fill:#f1f1f1;}.cls-4{fill:#fff;}.cls-5{fill:#fbfbfb;}.cls-6{fill:#f0f0f0;}.cls-7{fill:#4e35e7;}.cls-8{fill:url(#Degradado_sin_nombre_3);}.cls-9{font-size:20px;font-family:Anton-Regular, Anton;letter-spacing:0.1em;}</style><linearGradient id="Degradado_sin_nombre_3" x1="38.25" y1="14.03" x2="61.77" y2="-9.49" gradientTransform="translate(13.81 -18.97) rotate(40.46)" gradientUnits="userSpaceOnUse"><stop offset="0" stop-color="#5552e1" stop-opacity="0.1"/><stop offset="1" stop-color="#fff" stop-opacity="0.4"/></linearGradient></defs><title>Speak</title><path class="cls-1" d="M18.64,19.16l-1.05.55.66,8.23a.83.83,0,0,0,.89.77c1.47,0,3.42-2,3.32-3.21l-.53-6.6Z"/><path class="cls-2" d="M17.95,19.57h3.3a0,0,0,0,1,0,0v6.62a2.47,2.47,0,0,1-2.47,2.47h0a.83.83,0,0,1-.83-.83V19.57a0,0,0,0,1,0,0Z" transform="translate(-1.85 1.63) rotate(-4.54)"/><path class="cls-1" d="M21,20.58l-.09-1.13-3.29.26.07.9A3.52,3.52,0,0,1,21,20.58Z"/><path class="cls-3" d="M18.15,19.31h0A3.57,3.57,0,0,1,14.31,16v-.15a3.57,3.57,0,0,1,3.27-3.83h0Z"/><path class="cls-4" d="M16.73,12.05a.71.71,0,0,0-.57.37,6.16,6.16,0,0,0-.52,3.44,6.25,6.25,0,0,0,1.05,3.32.71.71,0,0,0,.62.27c9.23-.61,19.42,3.37,19.42,3.37l-.68-8.58-.68-8.58S25.94,11.2,16.73,12.05Z"/><path class="cls-5" d="M28.17,10.74c-1.29.72-2.86,1.77-3.25,3.32-.52,2,1.83,3.4,3.37,4a32.2,32.2,0,0,1,8.44,4.75L35.37,5.66S33.75,7.59,28.17,10.74Z"/><path class="cls-2" d="M35.35,5.19c-1-.09-1.79,1.14-2,2.13a23.62,23.62,0,0,0-.43,7.17,20.31,20.31,0,0,0,1.55,6.92,3.9,3.9,0,0,0,1.21,1.67c1.68,1.13,2.55-1.37,2.81-2.54A21.93,21.93,0,0,0,38.79,14a23.68,23.68,0,0,0-1.13-5.84,6.47,6.47,0,0,0-1.41-2.52A1.52,1.52,0,0,0,35.35,5.19Z"/><ellipse class="cls-4" cx="36.14" cy="14.23" rx="2.5" ry="8.31" transform="translate(-1.01 2.91) rotate(-4.54)"/><ellipse class="cls-6" cx="34.83" cy="14.34" rx="1.19" ry="7.07" transform="translate(-1.03 2.8) rotate(-4.54)"/><path class="cls-2" d="M22.15,19.5a10,10,0,0,1-1-4.08,10.09,10.09,0,0,1,.37-4.18,1,1,0,0,1,.48-.58,35.22,35.22,0,0,1-5.28.95,1.13,1.13,0,0,0-.92.6,6.53,6.53,0,0,0-.57,3.69,6.58,6.58,0,0,0,1.14,3.55,1.2,1.2,0,0,0,1,.45,33.34,33.34,0,0,1,5.38.1C22.52,20,22.33,19.79,22.15,19.5Z"/><polygon class="cls-7" points="22.07 10.63 22.07 10.63 22.07 10.63 22.07 10.63"/><path class="cls-7" d="M22.81,20Z"/><path d="M22,10.66l.1,0A.29.29,0,0,0,22,10.66Z"/><path d="M22.79,20h0Z"/><path class="cls-2" d="M23.3,19.61l-.51-.05h0c-.28-.13-1-1.47-1.22-4.17s.29-4.13.54-4.3h0l.5-.13a.69.69,0,0,0-.54-.32h0l-.1,0a1,1,0,0,0-.48.58,10.09,10.09,0,0,0-.37,4.18,10,10,0,0,0,1,4.08c.18.29.37.47.57.5h.1A.69.69,0,0,0,23.3,19.61Z"/><polygon points="22.79 19.56 22.79 19.56 22.78 19.56 22.79 19.56"/><path d="M22.1,11.09h0Z"/><path class="cls-2" d="M37.64,16.51A4.06,4.06,0,0,0,38,14.24a4.11,4.11,0,0,0-.71-2.18.72.72,0,0,0-.62-.28,20.2,20.2,0,0,1-3.11,0c0,.85,0,1.75.08,2.69a27.86,27.86,0,0,0,.41,3,22.07,22.07,0,0,1,3-.53A.7.7,0,0,0,37.64,16.51Z"/><ellipse class="cls-1" cx="37.19" cy="14.3" rx="0.62" ry="2.12" transform="translate(-1.02 2.99) rotate(-4.54)"/><path class="cls-2" d="M19.5,23.63h0a.59.59,0,0,1-.64-.55l-.07-.81a.61.61,0,0,1,.55-.65h0a.6.6,0,0,1,.64.55l.07.82A.59.59,0,0,1,19.5,23.63Z"/><path class="cls-2" d="M19.82,22.11a.39.39,0,0,0-.42-.37h-.09a.38.38,0,0,0-.29.15h0a.47.47,0,0,0-.09.28l.07.87a.44.44,0,0,0,.51.41h0a.33.33,0,0,0,.3-.35Z"/><path class="cls-2" d="M19.5,23.42h0a.39.39,0,0,1-.42-.37l0-.9a.4.4,0,0,1,.36-.41h0a.4.4,0,0,1,.42.38l0,.9A.38.38,0,0,1,19.5,23.42Z"/><path class="cls-2" d="M19.18,22.6a.6.6,0,0,1,.26-.05.54.54,0,0,1,.25,0,.76.76,0,0,1-.25.06A.78.78,0,0,1,19.18,22.6Z"/><path class="cls-8" d="M48-1.53,35.21,6h0c-1.21.56-1.91,4.15-1.57,8.41.33,4.08,1.49,7.41,2.71,8a20.13,20.13,0,0,1,2,1l14,8.56L67,14.7Z"/><g id="_1De3N3" data-name="1De3N3"><polygon class="cls-4" points="43.87 24.37 44.07 25.8 38.92 22.95 38.92 22.94 43.31 24.61 43.11 23.19 43.12 23.18 47.95 26.1 47.95 26.1 43.87 24.37"/></g><g id="_1De3N3-2" data-name="1De3N3"><polygon class="cls-4" points="42.34 21.32 42.75 21.99 39.57 21.72 39.57 21.72 42.11 21.57 41.7 20.91 41.7 20.9 44.74 21.27 44.74 21.27 42.34 21.32"/></g><g id="_1De3N3-3" data-name="1De3N3"><polygon class="cls-4" points="41.58 4.56 40.33 3.83 45.77 1.56 45.77 1.57 41.74 3.98 42.97 4.7 42.97 4.71 37.69 6.69 37.69 6.68 41.58 4.56"/></g><g id="_1De3N3-4" data-name="1De3N3"><polygon class="cls-4" points="40.54 7.43 40.08 6.79 43.28 6.87 43.28 6.87 40.75 7.18 41.2 7.81 41.2 7.81 38.14 7.63 38.14 7.63 40.54 7.43"/></g><text class="cls-9" transform="translate(44.9 22.63)">SPEAK ITK</text><path class="cls-2" d="M68,26h65.12l.88-2H68Z"/></svg>