<?xml version="1.0" encoding="utf-8"?>
<!-- Generator: Adobe Illustrator 24.0.2, SVG Export Plug-In . SVG Version: 6.00 Build 0)  -->
<svg version="1.1" id="ae7ad495-543d-4c4b-9483-8059c5566fe6"
	 xmlns="http://www.w3.org/2000/svg" xmlns:xlink="http://www.w3.org/1999/xlink" x="0px" y="0px" viewBox="0 0 1009.5 839.6"
	 style="enable-background:new 0 0 1009.5 839.6;" xml:space="preserve">
<style type="text/css">
	.st0{opacity:0.25;fill:url(#SVGID_1_);enable-background:new    ;}
	.st1{opacity:0.1;fill:#38D39F;enable-background:new    ;}
	.st2{fill:#252064;}
	.st3{fill:url(#SVGID_2_);}
	.st4{fill:url(#SVGID_3_);}
	.st5{fill:url(#SVGID_4_);}
	.st6{fill:#FFD9B6;}
	.st7{fill:url(#SVGID_5_);}
	.st8{fill:url(#SVGID_6_);}
	.st9{fill:url(#SVGID_7_);}
	.st10{fill:url(#SVGID_8_);}
	.st11{fill:url(#SVGID_9_);}
	.st12{fill:url(#SVGID_10_);}
	.st13{fill:#55A4DB;}
	.st14{fill:url(#SVGID_11_);}
	.st15{fill:url(#SVGID_12_);}
	.st16{fill:url(#SVGID_13_);}
	.st17{fill:url(#SVGID_14_);}
	.st18{fill:url(#SVGID_15_);}
	.st19{fill:url(#SVGID_16_);}
	.st20{fill:url(#SVGID_17_);}
	.st21{fill:url(#SVGID_18_);}
	.st22{fill:url(#SVGID_19_);}
	.st23{fill:url(#SVGID_20_);}
</style>
<title>bg2</title>
<linearGradient id="SVGID_1_" gradientUnits="userSpaceOnUse" x1="-1.411415e-02" y1="504.1668" x2="1009.5297" y2="504.1668" gradientTransform="matrix(1 0 0 -1 0 842)">
	<stop  offset="0.22" style="stop-color:#55A4DB"/>
	<stop  offset="0.65" style="stop-color:#252064"/>
	<stop  offset="0.93" style="stop-color:#252064"/>
</linearGradient>
<path class="st0" d="M586.5,111.4c-64.7-2.3-126.4-23.1-185.2-46S284.2,17.2,221,5.1C180.4-2.7,133.9-3.8,101.2,18
	C69.7,39,59.5,75.1,54,108.7c-4.1,25.3-6.5,51.9,4.7,75.5c7.8,16.4,21.7,30.2,31.4,45.9c33.5,54.7,9.8,122.2-26.5,175.6
	c-17,25.1-36.8,49-49.9,75.7s-19.2,57.2-7.7,84.5c11.4,27,38.5,47.2,67.9,61.5c59.7,29,130,37.2,198.6,41.9
	c151.8,10.4,304.5,5.9,456.7,1.4c56.3-1.7,112.9-3.4,168.3-12.1c30.8-4.8,62.5-12.5,84.9-31c28.4-23.5,35.4-63.4,16.4-92.9
	c-31.9-49.5-120-61.8-142.3-114.9c-12.3-29.2,0.3-61.8,18.2-88.9c38.3-58.2,102.3-109.2,105.7-175.7c2.3-45.7-28.5-91.4-76.1-113
	c-49.9-22.6-119.2-19.8-156,17.7C710.4,98.5,643.7,113.4,586.5,111.4z"/>
<ellipse class="st1" cx="483.5" cy="781" rx="304" ry="41.1"/>
<path class="st2" d="M760,606.1c0,10.1-123.8,18.2-276.5,18.2S207,616.2,207,606.1s123.8-18.2,276.5-18.2S760,596,760,606.1z"/>
<linearGradient id="SVGID_2_" gradientUnits="userSpaceOnUse" x1="-6608.6372" y1="2228.5959" x2="-6608.6372" y2="2064.9436" gradientTransform="matrix(-0.7645 0.6447 0.6447 0.7645 -6000.4771 3129.6003)">
	<stop  offset="0" style="stop-color:#071786"/>
	<stop  offset="0.15" style="stop-color:#05136B"/>
	<stop  offset="0.32" style="stop-color:#041055"/>
	<stop  offset="0.51" style="stop-color:#030E45"/>
	<stop  offset="0.72" style="stop-color:#020C3B"/>
	<stop  offset="1" style="stop-color:#020C38"/>
</linearGradient>
<path class="st3" d="M407.1,435.5c19.8,14,36.5,32.3,52.4,50.5c7.9,9,31.5,46.5,38.8,56.1c13.6,18.2,7.3,17.9-17.2,30.9
	c-3.1,1.6-6.5,2.7-10,3c-41,4.2-59.9-49.6-72.3-78.5c-5.4-12.5-11.1-28-15.7-40.9C386.8,433.7,407.1,435.5,407.1,435.5z"/>
<linearGradient id="SVGID_3_" gradientUnits="userSpaceOnUse" x1="-4187.3706" y1="2686.2959" x2="-4187.3706" y2="2522.6531" gradientTransform="matrix(0.2615 0.9652 0.9652 -0.2615 -943.0243 5302.2148)">
	<stop  offset="0" style="stop-color:#071786"/>
	<stop  offset="0.15" style="stop-color:#05136B"/>
	<stop  offset="0.32" style="stop-color:#041055"/>
	<stop  offset="0.51" style="stop-color:#030E45"/>
	<stop  offset="0.72" style="stop-color:#020C3B"/>
	<stop  offset="1" style="stop-color:#020C38"/>
</linearGradient>
<path class="st4" d="M395.8,573.6c21-12,44.7-19.5,67.9-26.2c11.5-3.3,55.5-9,67.2-11.5c22.2-4.7,19.3,1,20.8,28.6
	c0.2,3.5-0.3,7-1.5,10.3c-13.5,38.9-70.2,33.4-101.6,32.4c-13.6-0.5-30.1-1.8-43.7-3.1C385.6,591.3,395.8,573.6,395.8,573.6z"/>
<linearGradient id="SVGID_4_" gradientUnits="userSpaceOnUse" x1="-2990.4534" y1="407.8142" x2="-2990.4534" y2="474.4679" gradientTransform="matrix(0.9924 0.1227 0.1227 -0.9924 3260.0864 1368.7712)">
	<stop  offset="0" style="stop-color:#FFD1C1"/>
	<stop  offset="0.39" style="stop-color:#FFCFBF"/>
	<stop  offset="0.59" style="stop-color:#FFC9B7"/>
	<stop  offset="0.75" style="stop-color:#FFBDA9"/>
	<stop  offset="0.88" style="stop-color:#FFAE97"/>
	<stop  offset="1" style="stop-color:#FF9A7F"/>
</linearGradient>
<path class="st5" d="M387.7,582.3c-0.1-2.1-0.4-4.2-1-6.2c-0.1-0.6-1-6.2-0.9-6.8c0.9-8.8,6-32.9,6-32.9l-24.2-3.8
	c0,0,0.4,21.5-4.8,33.4l0,0c-11.6,4.4-31.9,9.6-31.9,9.6s-22.1,0.4-23.4,0.7c-2.8,0.5-5.4,1.6-7.8,3.2c0,0-3.3,5.2,23.1,13.4
	c0,0,11.3,4.3,30.5,4l12.3,0.7c4.2,0.2,16.8,1.6,18.6,0.7c0.6-0.3,1.1-0.7,1.6-1.2C388.6,593.7,387.6,586.5,387.7,582.3z"/>
<path class="st6" d="M378.3,554.8c0.3,1.4,0.5,2.8,0.7,4.2c0.7-1.3,1.3-2.5,1.9-3.8L378.3,554.8z"/>
<linearGradient id="SVGID_5_" gradientUnits="userSpaceOnUse" x1="-3034.8245" y1="422.9993" x2="-2946.0535" y2="422.9993" gradientTransform="matrix(0.9924 0.1227 0.1227 -0.9924 3260.0864 1368.7712)">
	<stop  offset="0" style="stop-color:#071786"/>
	<stop  offset="0.15" style="stop-color:#05136B"/>
	<stop  offset="0.32" style="stop-color:#041055"/>
	<stop  offset="0.51" style="stop-color:#030E45"/>
	<stop  offset="0.72" style="stop-color:#020C3B"/>
	<stop  offset="1" style="stop-color:#020C38"/>
</linearGradient>
<path class="st7" d="M386.7,576.2c-0.1-0.3-0.4-2.3-0.6-4.1c-1,0.4-2,0.7-2.9,1c-11.1,3.7-22.2,1.6-32.9-2.4l-0.6-0.3
	c-9.5,2.9-18.7,5.2-18.7,5.2s-22.1,0.4-23.4,0.7c-2.8,0.5-5.4,1.6-7.8,3.2c0,0-3.3,5.2,23.1,13.4c0,0,11.3,4.3,30.5,4l12.3,0.7
	c4.2,0.2,16.8,1.6,18.6,0.7c0.6-0.3,1.1-0.7,1.6-1.2c2.7-3.5,1.7-10.6,1.8-14.8C387.6,580.2,387.2,578.2,386.7,576.2z"/>
<linearGradient id="SVGID_6_" gradientUnits="userSpaceOnUse" x1="-2959.3164" y1="461.8642" x2="-2959.3164" y2="598.4342" gradientTransform="matrix(0.9924 0.1227 0.1227 -0.9924 3260.0864 1368.7712)">
	<stop  offset="0" style="stop-color:#071786"/>
	<stop  offset="0.15" style="stop-color:#05136B"/>
	<stop  offset="0.32" style="stop-color:#041055"/>
	<stop  offset="0.51" style="stop-color:#030E45"/>
	<stop  offset="0.72" style="stop-color:#020C3B"/>
	<stop  offset="1" style="stop-color:#020C38"/>
</linearGradient>
<path class="st8" d="M394.6,435.3h-0.2c-11-0.3-20.4,8-21.4,18.9c-2.6,26.8-6.2,66.5-8.3,89.2l25,4.7c7.3-22.4,12.8-45.3,16.7-68.6
	c1.9-12.2,3.1-24.6,3.7-36.9c0.1-1.9-3-5.1-2.9-7.2C402.1,434.8,400.1,435.5,394.6,435.3z"/>
<linearGradient id="SVGID_7_" gradientUnits="userSpaceOnUse" x1="-2875.8557" y1="240.9888" x2="-2884.7083" y2="246.1003" gradientTransform="matrix(0.9972 -7.532681e-02 -7.532681e-02 -0.9972 3345.4893 410.1155)">
	<stop  offset="0" style="stop-color:#E2B691"/>
	<stop  offset="1" style="stop-color:#EF9367"/>
</linearGradient>
<polygon class="st9" points="454,374.6 458.7,388.6 450.6,391.2 "/>
<linearGradient id="SVGID_8_" gradientUnits="userSpaceOnUse" x1="-2827.9143" y1="219.7212" x2="-2857.8438" y2="237.0007" gradientTransform="matrix(0.9972 -7.532681e-02 -7.532681e-02 -0.9972 3345.4893 410.1155)">
	<stop  offset="0" style="stop-color:#FFD1C1"/>
	<stop  offset="0.39" style="stop-color:#FFCFBF"/>
	<stop  offset="0.59" style="stop-color:#FFC9B7"/>
	<stop  offset="0.75" style="stop-color:#FFBDA9"/>
	<stop  offset="0.88" style="stop-color:#FFAE97"/>
	<stop  offset="1" style="stop-color:#FF9A7F"/>
</linearGradient>
<path class="st10" d="M478.5,388c0.3,4.6,1.4,31.4,1.4,31.4c3,2.9,16.4,3,21.7-2.2c4.2-4.1,4.4-7.6,4.4-7.6l-4.6-39L478.5,388z"/>
<linearGradient id="SVGID_9_" gradientUnits="userSpaceOnUse" x1="-2831.7498" y1="240.2501" x2="-2887.0039" y2="272.1498" gradientTransform="matrix(0.9972 -7.532681e-02 -7.532681e-02 -0.9972 3345.4893 410.1155)">
	<stop  offset="0" style="stop-color:#FFD1C1"/>
	<stop  offset="0.39" style="stop-color:#FFCFBF"/>
	<stop  offset="0.59" style="stop-color:#FFC9B7"/>
	<stop  offset="0.75" style="stop-color:#FFBDA9"/>
	<stop  offset="0.88" style="stop-color:#FFAE97"/>
	<stop  offset="1" style="stop-color:#FF9A7F"/>
</linearGradient>
<path class="st11" d="M497.1,341.2l2.5,13.8l3.9,21.1l1.1,5.9c-11.8,24.1-34.1,28.2-42,21.1s-14.5-50.9-14.5-50.9L497.1,341.2z"/>
<path class="st2" d="M495.6,402.8c0,0-19.9-34.8-25.4-37.4s-23,3-33.6-10.5c-10.4-13.3-5.3-21-1.7-22s11.6,12.2,23.3,3.1
	c11.9-9.3,37.3-11.2,42-1.5c0,0,16.1,0.4,14.2,22.4s-6.5,40.8-11.7,42.8L495.6,402.8z"/>
<linearGradient id="SVGID_10_" gradientUnits="userSpaceOnUse" x1="-2849.1667" y1="246.3665" x2="-2863.6348" y2="254.7154" gradientTransform="matrix(0.9972 -7.532681e-02 -7.532681e-02 -0.9972 3345.4893 410.1155)">
	<stop  offset="0" style="stop-color:#FFD1C1"/>
	<stop  offset="0.39" style="stop-color:#FFCFBF"/>
	<stop  offset="0.59" style="stop-color:#FFC9B7"/>
	<stop  offset="0.75" style="stop-color:#FFBDA9"/>
	<stop  offset="0.88" style="stop-color:#FFAE97"/>
	<stop  offset="1" style="stop-color:#FF9A7F"/>
</linearGradient>
<path class="st12" d="M482.3,364.2c5.8,4,6.5,16.8-3.5,24.6l-5.9-20.6C473.1,365,478.4,361.6,482.3,364.2z"/>
<path class="st13" d="M504.2,410.6c-15.1,1.8-39,6.2-43.4,23.7c-2.3,9.3-2,19.3-0.3,28.6c1.3,7.4,2.5,14.8,3.4,22.2
	c1.5,12.6,3.2,26.7-0.2,39.1l-14.2,26c0,0,68.9,30.4,103.1-9.9c0,0-2.2-100.3-18.2-123.8c-1.9-2.9-6.8-4.1-9.9-4.9
	C517.9,410.1,511,409.7,504.2,410.6z"/>
<path class="st13" d="M534.4,416.6c-1.9-2.9-6.8-4.1-9.9-4.9c-5-1.2-10.2-1.7-15.4-1.5V561c15.2-1.2,31.1-6,43.5-20.6
	C552.6,540.4,550.5,440.1,534.4,416.6z"/>
<linearGradient id="SVGID_11_" gradientUnits="userSpaceOnUse" x1="-28.1216" y1="41.7881" x2="-52.8424" y2="-50.2449" gradientTransform="matrix(0.9435 -0.3315 -0.3315 -0.9435 466.6899 475.269)">
	<stop  offset="0" style="stop-color:#FFD1C1"/>
	<stop  offset="0.39" style="stop-color:#FFCFBF"/>
	<stop  offset="0.59" style="stop-color:#FFC9B7"/>
	<stop  offset="0.75" style="stop-color:#FFBDA9"/>
	<stop  offset="0.88" style="stop-color:#FFAE97"/>
	<stop  offset="1" style="stop-color:#FF9A7F"/>
</linearGradient>
<path class="st14" d="M379.7,448.7c0,0,1.6,13,9.2,21.7s16.3,12.1,23.4,21.3c5.6,7.2,61.3,60.7,67,41.2c0.7-2.6-0.2-5.3-1.2-7.7
	c-9.5-23-32.5-32.8-52.6-44.9l-7.6-5.1c0,0-3.3-13.1-11.4-20.4L379.7,448.7z"/>
<linearGradient id="SVGID_12_" gradientUnits="userSpaceOnUse" x1="323.0689" y1="189.7517" x2="380.6732" y2="189.7517" gradientTransform="matrix(0.9972 -7.532681e-02 -7.532681e-02 -0.9972 51.4692 659.1356)">
	<stop  offset="0" style="stop-color:#18154B"/>
	<stop  offset="0.13" style="stop-color:#191650"/>
	<stop  offset="0.28" style="stop-color:#1C1A5F"/>
	<stop  offset="0.45" style="stop-color:#212078"/>
	<stop  offset="0.63" style="stop-color:#27299A"/>
	<stop  offset="0.82" style="stop-color:#2F34C5"/>
	<stop  offset="1" style="stop-color:#3941F7"/>
</linearGradient>
<path class="st15" d="M378.7,414.7L359,437c-0.4,0.4-0.4,1,0.1,1.4c0,0,0,0,0,0l37.3,33.8c0.4,0.4,1,0.4,1.4,0c0,0,0,0,0,0
	l19.4-21.3c0.4-0.4,0.4-1,0-1.4c0,0,0,0,0,0l-36.9-34.7C379.8,414.3,379.1,414.3,378.7,414.7C378.7,414.7,378.7,414.7,378.7,414.7z"
	/>
<linearGradient id="SVGID_13_" gradientUnits="userSpaceOnUse" x1="328.0636" y1="191.6631" x2="371.7918" y2="191.6631" gradientTransform="matrix(0.9972 -7.532681e-02 -7.532681e-02 -0.9972 51.4692 659.1356)">
	<stop  offset="5.000000e-02" style="stop-color:#F8F2FA"/>
	<stop  offset="0.22" style="stop-color:#F4F1FA"/>
	<stop  offset="0.39" style="stop-color:#E9ECFA"/>
	<stop  offset="0.55" style="stop-color:#D5E5FB"/>
	<stop  offset="0.72" style="stop-color:#BADAFC"/>
	<stop  offset="0.88" style="stop-color:#97CDFD"/>
	<stop  offset="1" style="stop-color:#78C1FE"/>
</linearGradient>
<path class="st16" d="M363.8,437.4l29,26.4l15.5-17.1l-28.7-27.2L363.8,437.4z"/>
<linearGradient id="SVGID_14_" gradientUnits="userSpaceOnUse" x1="-53.4423" y1="17.0845" x2="-62.3923" y2="50.5945" gradientTransform="matrix(0.9435 -0.3315 -0.3315 -0.9435 466.6899 475.269)">
	<stop  offset="0" style="stop-color:#FFD1C1"/>
	<stop  offset="0.39" style="stop-color:#FFCFBF"/>
	<stop  offset="0.59" style="stop-color:#FFC9B7"/>
	<stop  offset="0.75" style="stop-color:#FFBDA9"/>
	<stop  offset="0.88" style="stop-color:#FFAE97"/>
	<stop  offset="1" style="stop-color:#FF9A7F"/>
</linearGradient>
<path class="st17" d="M397,470.6c0,0,2.5-1.5,1.5-6.4s-3.3-16.2-3.3-16.2s0-4.1,1.6-3.2s5.1,3.4,6.5,10.5c0,0,1.4,6.1,3,7.6
	c3.5,3.3,5.8,7.7,6.4,12.5C412.7,475.5,401.2,479.4,397,470.6z"/>
<linearGradient id="SVGID_15_" gradientUnits="userSpaceOnUse" x1="-3975.3025" y1="2432.9272" x2="-3985.5811" y2="2339.8003" gradientTransform="matrix(0.9829 -0.1843 -0.1843 -0.9829 4825.6748 2101.5859)">
	<stop  offset="0" style="stop-color:#FFD1C1"/>
	<stop  offset="0.39" style="stop-color:#FFCFBF"/>
	<stop  offset="0.59" style="stop-color:#FFC9B7"/>
	<stop  offset="0.75" style="stop-color:#FFBDA9"/>
	<stop  offset="0.88" style="stop-color:#FFAE97"/>
	<stop  offset="1" style="stop-color:#FF9A7F"/>
</linearGradient>
<path class="st18" d="M481.8,532.6c2.3-3.1,2.7-7.6,2.8-12.2c0.4-11.4,0.9-22.8,1.5-34.1c0.2-5.1,0.4-10.1,0.6-15.2
	c0.4-10.4,1-25.6-12.5-28c-3.1-0.6-7.1,1.7-9,3.8c-1.5,1.8-2.5,4-2.9,6.3c-1.2,5.3-0.8,11.8-1.1,16.4c-0.5,9.4-0.9,18.8-0.9,28.2
	c0,6.1,0,12.1,0.3,18.2c0.3,5,0.1,11.3,2.4,16c2.5,5,8.5,5.7,13,4.5C478.3,535.8,480.3,534.5,481.8,532.6z"/>
<path class="st13" d="M492.5,491.5c-1.9-14,0.1-64.5-20-66.6c-22.3-2.3-18,67.2-18,67.2L492.5,491.5z"/>
<linearGradient id="SVGID_16_" gradientUnits="userSpaceOnUse" x1="-5140.0908" y1="2079.885" x2="-5147.3989" y2="2149.0491" gradientTransform="matrix(-0.1668 0.986 0.986 0.1668 -2677.6941 5290.5801)">
	<stop  offset="0" style="stop-color:#FFD1C1"/>
	<stop  offset="0.39" style="stop-color:#FFCFBF"/>
	<stop  offset="0.59" style="stop-color:#FFC9B7"/>
	<stop  offset="0.75" style="stop-color:#FFBDA9"/>
	<stop  offset="0.88" style="stop-color:#FFAE97"/>
	<stop  offset="1" style="stop-color:#FF9A7F"/>
</linearGradient>
<path class="st19" d="M251.6,607.7c2-0.5,4-1.1,5.9-2c0.5-0.2,5.9-2,6.5-2c8.9-0.6,33.4,0.3,33.4,0.3l-0.4-24.5c0,0-21.1,4.1-33.7,1
	l0,0c-6.3-10.7-20-25.2-20-25.2s-4.6-11.9-5.2-13s3.3-3.9,0.2-7.1c0,0-0.6-16.4-4.1,11c0,0-6.4,11.4-2.9,30.2l1.4,12.3
	c0.5,4.2,1.2,16.8,2.5,18.5c0.4,0.5,0.9,1,1.5,1.3C240.6,610.6,247.5,608.4,251.6,607.7z"/>
<linearGradient id="SVGID_17_" gradientUnits="userSpaceOnUse" x1="-5184.3574" y1="2094.1797" x2="-5102.1563" y2="2094.1797" gradientTransform="matrix(-0.1668 0.986 0.986 0.1668 -2677.6941 5290.5801)">
	<stop  offset="0" style="stop-color:#071786"/>
	<stop  offset="0.15" style="stop-color:#05136B"/>
	<stop  offset="0.32" style="stop-color:#041055"/>
	<stop  offset="0.51" style="stop-color:#030E45"/>
	<stop  offset="0.72" style="stop-color:#020C3B"/>
	<stop  offset="1" style="stop-color:#020C38"/>
</linearGradient>
<path class="st20" d="M257.4,605.8c-1-6.1-1.1-12.3-0.4-18.5c0.4-4.3,1.5-8.4,3.3-12.3c-5.7-10.7-11.8-24.3-11.8-24.3
	s-4.3-15.6-4.9-16.7c-1-2.7-2.5-5.1-4.5-7.1c0,0-5.6-8.6-9.1,18.9c0,0-2.3,11.9,1.2,30.7l1.4,12.3c0.5,4.2,1.2,16.8,2.5,18.5
	c0.4,0.5,0.9,1,1.5,1.3c3.9,2.1,10.8-0.1,14.9-0.8C253.6,607.3,255.6,606.6,257.4,605.8z"/>
<linearGradient id="SVGID_18_" gradientUnits="userSpaceOnUse" x1="-5135.1475" y1="2137.312" x2="-5149.917" y2="2276.8708" gradientTransform="matrix(-0.1668 0.986 0.986 0.1668 -2677.6941 5290.5801)">
	<stop  offset="0" style="stop-color:#071786"/>
	<stop  offset="0.15" style="stop-color:#05136B"/>
	<stop  offset="0.32" style="stop-color:#041055"/>
	<stop  offset="0.51" style="stop-color:#030E45"/>
	<stop  offset="0.72" style="stop-color:#020C3B"/>
	<stop  offset="1" style="stop-color:#020C38"/>
</linearGradient>
<path class="st21" d="M285.6,603.9c28.9,4,92.3,9.5,128.2-2.7c5.6-1.9,11.7-7.7,12.3-13.8c0.5-4.8-1.5-11.8-5.6-14.7
	c-3.4-2.4-14.7-3.2-18.6-3c-11.1,0.5-82.2,6.2-115.8,8.9L285.6,603.9z"/>
<linearGradient id="SVGID_19_" gradientUnits="userSpaceOnUse" x1="630.3419" y1="476.64" x2="630.3419" y2="415.08" gradientTransform="matrix(1 0 0 -1 0 842)">
	<stop  offset="0" style="stop-color:#F9FBFC"/>
	<stop  offset="3.000000e-02" style="stop-color:#F5F8FC"/>
	<stop  offset="0.2" style="stop-color:#DFE8FE"/>
	<stop  offset="0.36" style="stop-color:#D2DEFF"/>
	<stop  offset="0.51" style="stop-color:#CDDBFF"/>
</linearGradient>
<path class="st22" d="M589.3,433c-31-22.7-37.7-66.2-15-97.2s66.2-37.7,97.2-15c31,22.7,37.7,66.2,15,97.2c-4.2,5.7-9.3,10.8-15,15
	h30.3c31.2-39.4,24.5-96.7-15-127.8c-39.4-31.2-96.7-24.5-127.8,15c-26.1,33.1-26.1,79.8,0,112.8H589.3z"/>
<linearGradient id="SVGID_20_" gradientUnits="userSpaceOnUse" x1="628.95" y1="300.42" x2="628.95" y2="134.84" gradientTransform="matrix(1 0 0 -1 0 842)">
	<stop  offset="0" style="stop-color:#F9FBFC"/>
	<stop  offset="3.000000e-02" style="stop-color:#F5F8FC"/>
	<stop  offset="0.2" style="stop-color:#DFE8FE"/>
	<stop  offset="0.36" style="stop-color:#D2DEFF"/>
	<stop  offset="0.51" style="stop-color:#CDDBFF"/>
</linearGradient>
<path class="st23" d="M723.9,398.6H534c-7.6,0-13.7,6.2-13.7,13.7v180c0,7.6,6.2,13.7,13.7,13.7h189.9c7.6,0,13.7-6.2,13.7-13.7
	c0,0,0,0,0,0v-180C737.6,404.8,731.5,398.6,723.9,398.6z M643.7,494v51.9c0,3.9-3.1,7-7,7H624c-3.9,0-7-3.1-7-7V494
	c-8.6-4.8-14.6-13.6-14.5-24.2c0.2-14.9,12.1-27.1,27-27.7c15.4-0.5,28.3,11.6,28.7,27c0,0.3,0,0.6,0,0.9
	C658.2,480.4,652.2,489.2,643.7,494z"/>
</svg>
